ISO-10303-21;
HEADER;
FILE_DESCRIPTION (( 'STEP AP203' ),
    '1' );
FILE_NAME ('µç´ÅÖ§¼Ü2v1.0.0.STEP',
    '2026-05-24T09:46:01',
    ( '' ),
    ( '' ),
    'SwSTEP 2.0',
    'SolidWorks 2025',
    '' );
FILE_SCHEMA (( 'CONFIG_CONTROL_DESIGN' ));
ENDSEC;

DATA;
#1 = EDGE_CURVE ( 'NONE', #564, #447, #335, .T. ) ;
#2 = PLANE ( 'NONE',  #401 ) ;
#3 = DIRECTION ( 'NONE',  ( -0.000000000000000000, -0.6427876096865349220, 0.7660444431189816772 ) ) ;
#4 = ORIENTED_EDGE ( 'NONE', *, *, #933, .F. ) ;
#5 = EDGE_CURVE ( 'NONE', #869, #583, #637, .T. ) ;
#6 = DATE_AND_TIME ( #169, #575 ) ;
#7 = CARTESIAN_POINT ( 'NONE',  ( 2.500000000000000000, -2.500000000000000000, 0.000000000000000000 ) ) ;
#8 = CIRCLE ( 'NONE', #770, 1.600000000000000089 ) ;
#9 = CARTESIAN_POINT ( 'NONE',  ( -8.362940674426879826E-17, -7.017736872739085641, 8.363413129967744553 ) ) ;
#10 = DIRECTION ( 'NONE',  ( 0.000000000000000000, 0.7660444431189807890, 0.6427876096865360322 ) ) ;
#11 = ADVANCED_FACE ( 'NONE', ( #416 ), #24, .F. ) ;
#12 = VERTEX_POINT ( 'NONE', #525 ) ;
#13 = CARTESIAN_POINT ( 'NONE',  ( -2.500000000000000000, -1.500000000000000444, 5.719709140972390138 ) ) ;
#14 = B_SPLINE_CURVE_WITH_KNOTS ( 'NONE', 3,
 ( #845, #920, #380, #240, #528, #148, #541, #66 ),
 .UNSPECIFIED., .F., .F.,
 ( 4, 2, 2, 4 ),
 ( 0.000000000000000000, 0.0003557639342007435528, 0.0005336459013011148143, 0.0007115278684014861299 ),
 .UNSPECIFIED. ) ;
#15 = ORIENTED_EDGE ( 'NONE', *, *, #466, .T. ) ;
#16 = CARTESIAN_POINT ( 'NONE',  ( -2.500000000000000444, 2.085786437626903744, 9.010939394591174434 ) ) ;
#17 = LINE ( 'NONE', #728, #996 ) ;
#18 = VECTOR ( 'NONE', #923, 1000.000000000000114 ) ;
#19 = ORIENTED_EDGE ( 'NONE', *, *, #396, .F. ) ;
#20 = CARTESIAN_POINT ( 'NONE',  ( 1.989041597896677116, -1.819455293860413381, 6.120885459038983178 ) ) ;
#21 = TOROIDAL_SURFACE ( 'NONE', #242, 2.000000000000000000, 0.5000000000000000000 ) ;
#22 = PRODUCT_DEFINITION_SHAPE ( 'NONE', 'NONE',  #102 ) ;
#23 = CC_DESIGN_PERSON_AND_ORGANIZATION_ASSIGNMENT ( #86, #768, ( #947 ) ) ;
#24 = PLANE ( 'NONE',  #810 ) ;
#25 = LINE ( 'NONE', #557, #402 ) ;
#26 = MECHANICAL_CONTEXT ( 'NONE', #965, 'mechanical' ) ;
#27 = VERTEX_POINT ( 'NONE', #519 ) ;
#28 = EDGE_CURVE ( 'NONE', #202, #556, #631, .T. ) ;
#29 = EDGE_CURVE ( 'NONE', #677, #948, #989, .T. ) ;
#30 = CARTESIAN_POINT ( 'NONE',  ( 4.436879550973972450E-16, 2.499999999999999556, 8.517298893531785708 ) ) ;
#31 =( NAMED_UNIT ( * ) SI_UNIT ( $, .STERADIAN. ) SOLID_ANGLE_UNIT ( ) );
#32 = CARTESIAN_POINT ( 'NONE',  ( 2.303924038141859754, -2.109030810229323816, 5.593664876359055071 ) ) ;
#33 = ORIENTED_EDGE ( 'NONE', *, *, #116, .T. ) ;
#34 = EDGE_CURVE ( 'NONE', #219, #149, #163, .T. ) ;
#35 = LINE ( 'NONE', #345, #929 ) ;
#36 = CARTESIAN_POINT ( 'NONE',  ( 2.500000000000000000, -2.500000000000000000, 5.542759944674822137 ) ) ;
#37 = AXIS2_PLACEMENT_3D ( 'NONE', #472, #682, #913 ) ;
#38 = CIRCLE ( 'NONE', #629, 1.000000000000000000 ) ;
#39 = DIRECTION ( 'NONE',  ( 0.000000000000000000, 0.000000000000000000, 1.000000000000000000 ) ) ;
#40 = EDGE_LOOP ( 'NONE', ( #899, #865, #229, #4 ) ) ;
#41 = EDGE_CURVE ( 'NONE', #161, #391, #264, .T. ) ;
#42 = AXIS2_PLACEMENT_3D ( 'NONE', #341, #418, #791 ) ;
#43 = CARTESIAN_POINT ( 'NONE',  ( 1.500000000000000000, -2.102838272858010171, 6.032069958506117047 ) ) ;
#44 = FACE_OUTER_BOUND ( 'NONE', #909, .T. ) ;
#45 = VERTEX_POINT ( 'NONE', #699 ) ;
#46 = DIRECTION ( 'NONE',  ( 8.673617379884027583E-16, 8.673617379884027583E-16, 1.000000000000000000 ) ) ;
#47 = CARTESIAN_POINT ( 'NONE',  ( -2.500000000000000000, -2.411353091432040241, 7.500000000000000000 ) ) ;
#48 = CARTESIAN_POINT ( 'NONE',  ( -1.623782104627684797, -2.499999922478191472, 5.948598494811771609 ) ) ;
#49 = VERTEX_POINT ( 'NONE', #76 ) ;
#50 = CYLINDRICAL_SURFACE ( 'NONE', #304, 1.000000000000000000 ) ;
#51 = CARTESIAN_POINT ( 'NONE',  ( 0.000000000000000000, -1.983712190783880391, 9.323943160602958358 ) ) ;
#52 = CARTESIAN_POINT ( 'NONE',  ( 2.027463042854391162, -2.389175059291684722, 5.552798871464956321 ) ) ;
#53 = ORIENTED_EDGE ( 'NONE', *, *, #498, .F. ) ;
#54 = CIRCLE ( 'NONE', #221, 0.5000000000000000000 ) ;
#55 = CIRCLE ( 'NONE', #403, 0.5000000000000003331 ) ;
#56 = TOROIDAL_SURFACE ( 'NONE', #812, 2.000000000000000000, 0.5000000000000000000 ) ;
#57 = DIRECTION ( 'NONE',  ( 0.000000000000000000, 0.000000000000000000, -1.000000000000000000 ) ) ;
#58 = CARTESIAN_POINT ( 'NONE',  ( 2.000000000000000000, -1.262286426753566948, 8.464181414529802439 ) ) ;
#59 = DIRECTION ( 'NONE',  ( -1.000000000000000000, 0.000000000000000000, 0.000000000000000000 ) ) ;
#60 = ORIENTED_EDGE ( 'NONE', *, *, #935, .T. ) ;
#61 = DIRECTION ( 'NONE',  ( -0.000000000000000000, -0.6427876096865354771, 0.7660444431189812331 ) ) ;
#62 = CARTESIAN_POINT ( 'NONE',  ( 1.500000000000000000, 1.499999999999999778, 5.000000000000000000 ) ) ;
#63 = CARTESIAN_POINT ( 'NONE',  ( -2.000000000000000000, -1.727838272858010171, 6.164781855729292381 ) ) ;
#64 = CARTESIAN_POINT ( 'NONE',  ( 0.000000000000000000, 0.000000000000000000, 5.000000000000000000 ) ) ;
#65 = ORIENTED_EDGE ( 'NONE', *, *, #29, .F. ) ;
#66 = CARTESIAN_POINT ( 'NONE',  ( 1.999999999999999556, -1.727838272858009949, 6.164781855729292381 ) ) ;
#67 = ORIENTED_EDGE ( 'NONE', *, *, #928, .F. ) ;
#68 = DIRECTION ( 'NONE',  ( 1.000000000000000000, 0.000000000000000000, 0.000000000000000000 ) ) ;
#69 = APPROVAL ( #725, 'æœª' ) ;
#70 = CARTESIAN_POINT ( 'NONE',  ( -1.499999999999999778, 2.499999999999999112, 8.517298893531785708 ) ) ;
#71 = EDGE_LOOP ( 'NONE', ( #375, #561 ) ) ;
#72 = CARTESIAN_POINT ( 'NONE',  ( 0.000000000000000000, 0.2502433660971229434, 11.19845444444822391 ) ) ;
#73 = EDGE_LOOP ( 'NONE', ( #684, #853, #259, #765, #156, #357, #694, #777 ) ) ;
#74 = ORIENTED_EDGE ( 'NONE', *, *, #1007, .T. ) ;
#75 = DATE_AND_TIME ( #469, #546 ) ;
#76 = CARTESIAN_POINT ( 'NONE',  ( -2.500000000000000000, -1.035331853275947678, 12.73054333068618682 ) ) ;
#77 = DIRECTION ( 'NONE',  ( 0.000000000000000000, 0.000000000000000000, -1.000000000000000000 ) ) ;
#78 = EDGE_CURVE ( 'NONE', #556, #608, #868, .T. ) ;
#79 = ORIENTED_EDGE ( 'NONE', *, *, #428, .F. ) ;
#80 = ORIENTED_EDGE ( 'NONE', *, *, #471, .T. ) ;
#81 = EDGE_CURVE ( 'NONE', #83, #455, #450, .T. ) ;
#82 = DIRECTION ( 'NONE',  ( 0.000000000000000000, -0.6427876096865355882, 0.7660444431189812331 ) ) ;
#83 = VERTEX_POINT ( 'NONE', #63 ) ;
#84 = CARTESIAN_POINT ( 'NONE',  ( -2.000000000000000000, -2.411353091432040241, 7.500000000000000000 ) ) ;
#85 = VERTEX_POINT ( 'NONE', #386 ) ;
#86 = PERSON_AND_ORGANIZATION ( #128, #305 ) ;
#87 = ORIENTED_EDGE ( 'NONE', *, *, #5, .T. ) ;
#88 = DIRECTION ( 'NONE',  ( -4.887868071420653132E-15, -0.7660444431189821213, -0.6427876096865345890 ) ) ;
#89 = CARTESIAN_POINT ( 'NONE',  ( 2.132028000600240336, -2.286209791798454738, 5.567664339969907061 ) ) ;
#90 = EDGE_LOOP ( 'NONE', ( #182, #665, #748, #872, #135, #671, #33 ) ) ;
#91 = AXIS2_PLACEMENT_3D ( 'NONE', #951, #398, #412 ) ;
#92 = VECTOR ( 'NONE', #266, 1000.000000000000000 ) ;
#93 = CIRCLE ( 'NONE', #127, 2.000000000000000000 ) ;
#94 = ORIENTED_EDGE ( 'NONE', *, *, #81, .F. ) ;
#95 = CARTESIAN_POINT ( 'NONE',  ( 2.000000000000000000, -1.727838272858009949, 6.164781855729292381 ) ) ;
#96 = ORIENTED_EDGE ( 'NONE', *, *, #188, .F. ) ;
#97 = CARTESIAN_POINT ( 'NONE',  ( 2.500000000000000000, 1.500000000000000000, 5.000000000000000000 ) ) ;
#98 = APPROVAL_STATUS ( 'not_yet_approved' ) ;
#99 = ORIENTED_EDGE ( 'NONE', *, *, #468, .F. ) ;
#100 = LINE ( 'NONE', #407, #503 ) ;
#101 = PERSON_AND_ORGANIZATION_ROLE ( 'design_owner' ) ;
#102 = PRODUCT_DEFINITION ( 'æœ', '', #978, #885 ) ;
#103 =( BOUNDED_CURVE ( )  B_SPLINE_CURVE ( 3, ( #555, #704, #16, #250 ),
 .UNSPECIFIED., .F., .F. ) 
 B_SPLINE_CURVE_WITH_KNOTS ( ( 4, 4 ),
 ( 0.000000000000000000, 1.570796326794896780 ),
 .UNSPECIFIED. ) 
 CURVE ( )  GEOMETRIC_REPRESENTATION_ITEM ( )  RATIONAL_B_SPLINE_CURVE ( ( 1.000000000000000000, 0.8047378541243649375, 0.8047378541243649375, 1.000000000000000000 ) ) 
 REPRESENTATION_ITEM ( '' )  );
#104 = CIRCLE ( 'NONE', #667, 0.5000000000000001110 ) ;
#105 = DIRECTION ( 'NONE',  ( -0.000000000000000000, -0.6427876096865349220, 0.7660444431189816772 ) ) ;
#106 = CARTESIAN_POINT ( 'NONE',  ( 1.772613254070183109, -2.471477959166880733, 5.545620205990708484 ) ) ;
#107 = DIRECTION ( 'NONE',  ( 0.000000000000000000, 0.6427876096865350330, -0.7660444431189817882 ) ) ;
#108 = CC_DESIGN_SECURITY_CLASSIFICATION ( #947, ( #978 ) ) ;
#109 = EDGE_CURVE ( 'NONE', #661, #85, #54, .T. ) ;
#110 = EDGE_CURVE ( 'NONE', #948, #483, #848, .T. ) ;
#111 = DIRECTION ( 'NONE',  ( -0.000000000000000000, 0.7660444431189813441, 0.6427876096865354771 ) ) ;
#112 = DIRECTION ( 'NONE',  ( 0.000000000000000000, 0.000000000000000000, -1.000000000000000000 ) ) ;
#113 = ADVANCED_FACE ( 'NONE', ( #377 ), #690, .T. ) ;
#114 = CARTESIAN_POINT ( 'NONE',  ( 2.500000000000000000, -1.500000000000000000, 5.719709140972390138 ) ) ;
#115 = EDGE_LOOP ( 'NONE', ( #162, #463, #511, #96 ) ) ;
#116 = EDGE_CURVE ( 'NONE', #474, #167, #614, .T. ) ;
#117 = DIRECTION ( 'NONE',  ( -0.000000000000000000, 0.7660444431189812331, 0.6427876096865353661 ) ) ;
#118 = APPROVAL_DATE_TIME ( #193, #69 ) ;
#119 = CARTESIAN_POINT ( 'NONE',  ( 1.766650794772381072, -2.500000000000000444, 5.542759944674822137 ) ) ;
#120 = ORIENTED_EDGE ( 'NONE', *, *, #758, .F. ) ;
#121 = DIRECTION ( 'NONE',  ( -0.000000000000000000, 0.7660444431189812331, 0.6427876096865353661 ) ) ;
#122 = CARTESIAN_POINT ( 'NONE',  ( -2.000000000000000000, -2.411353091432040241, 7.500000000000000000 ) ) ;
#123 = CIRCLE ( 'NONE', #688, 0.5000000000000002220 ) ;
#124 = VECTOR ( 'NONE', #906, 1000.000000000000000 ) ;
#125 = CARTESIAN_POINT ( 'NONE',  ( -2.500000000000000000, -1.620395174778279435, 5.688893253575034947 ) ) ;
#126 = ORIENTED_EDGE ( 'NONE', *, *, #493, .T. ) ;
#127 = AXIS2_PLACEMENT_3D ( 'NONE', #47, #288, #200 ) ;
#128 = PERSON ( 'æœª', 'æœª', 'æœª', ('æœª'), ('æœª'), ('æœª') ) ;
#129 = FACE_OUTER_BOUND ( 'NONE', #147, .T. ) ;
#130 = SPHERICAL_SURFACE ( 'NONE', #798, 0.5000000000000000000 ) ;
#131 = CARTESIAN_POINT ( 'NONE',  ( -2.313966737892090286, -2.095704832824078601, 5.595771017641833822 ) ) ;
#132 = CYLINDRICAL_SURFACE ( 'NONE', #689, 1.100000000000000533 ) ;
#133 = DIRECTION ( 'NONE',  ( -0.000000000000000000, -0.000000000000000000, -1.000000000000000000 ) ) ;
#134 = DIRECTION ( 'NONE',  ( -0.000000000000000000, 0.7660444431189814551, 0.6427876096865355882 ) ) ;
#135 = ORIENTED_EDGE ( 'NONE', *, *, #468, .T. ) ;
#136 = CYLINDRICAL_SURFACE ( 'NONE', #141, 1.100000000000000533 ) ;
#137 = CARTESIAN_POINT ( 'NONE',  ( -2.000000000000000444, 1.188429510891769292, 6.321393804843261854 ) ) ;
#138 = CYLINDRICAL_SURFACE ( 'NONE', #652, 0.5000000000000002220 ) ;
#139 = ORIENTED_EDGE ( 'NONE', *, *, #640, .F. ) ;
#140 = CARTESIAN_POINT ( 'NONE',  ( 1.500000000000000222, -2.000000000000000000, 5.542759944674822137 ) ) ;
#141 = AXIS2_PLACEMENT_3D ( 'NONE', #293, #599, #602 ) ;
#142 = LOCAL_TIME ( 17, 46, 1.000000000000000000, #708 ) ;
#143 = ADVANCED_FACE ( 'NONE', ( #533 ), #458, .T. ) ;
#144 = DIRECTION ( 'NONE',  ( 0.000000000000000000, 0.6427876096865352551, -0.7660444431189815662 ) ) ;
#145 = DIRECTION ( 'NONE',  ( 0.000000000000000000, 0.000000000000000000, 1.000000000000000000 ) ) ;
#146 = CARTESIAN_POINT ( 'NONE',  ( 1.999999999999999556, -1.727838272858009949, 6.164781855729292381 ) ) ;
#147 = EDGE_LOOP ( 'NONE', ( #120, #779, #598, #480 ) ) ;
#148 = CARTESIAN_POINT ( 'NONE',  ( 1.984423048065901973, -1.834945454116083674, 6.114199401411606338 ) ) ;
#149 = VERTEX_POINT ( 'NONE', #844 ) ;
#150 = CARTESIAN_POINT ( 'NONE',  ( 2.000000000000000000, -2.886265188597456177, 11.17742585168418756 ) ) ;
#151 = EDGE_CURVE ( 'NONE', #307, #349, #619, .T. ) ;
#152 = DIRECTION ( 'NONE',  ( 0.000000000000000000, 0.000000000000000000, -1.000000000000000000 ) ) ;
#153 = CARTESIAN_POINT ( 'NONE',  ( 2.500000000000000000, 1.500000000000000000, 0.000000000000000000 ) ) ;
#154 = ORIENTED_EDGE ( 'NONE', *, *, #492, .T. ) ;
#155 = FACE_OUTER_BOUND ( 'NONE', #73, .T. ) ;
#156 = ORIENTED_EDGE ( 'NONE', *, *, #324, .F. ) ;
#157 = ORIENTED_EDGE ( 'NONE', *, *, #34, .T. ) ;
#158 = PERSON_AND_ORGANIZATION_ROLE ( 'creator' ) ;
#159 = CARTESIAN_POINT ( 'NONE',  ( 2.500000000000000000, -3.269287410156948237, 10.85603204684092127 ) ) ;
#160 = CARTESIAN_POINT ( 'NONE',  ( 1.500000000000000000, -2.500000000000000000, 0.000000000000000000 ) ) ;
#161 = VERTEX_POINT ( 'NONE', #238 ) ;
#162 = ORIENTED_EDGE ( 'NONE', *, *, #475, .T. ) ;
#163 = CIRCLE ( 'NONE', #558, 1.600000000000000089 ) ;
#164 = VECTOR ( 'NONE', #584, 1000.000000000000000 ) ;
#165 = MANIFOLD_SOLID_BREP ( '\X2\570689d2\X0\4', #572 ) ;
#166 = CARTESIAN_POINT ( 'NONE',  ( 2.500000000000000000, -2.886265188597457954, 11.17742585168418934 ) ) ;
#167 = VERTEX_POINT ( 'NONE', #166 ) ;
#168 = CARTESIAN_POINT ( 'NONE',  ( 2.000000000000000000, -3.207658993440726469, 11.56044807324367873 ) ) ;
#169 = CALENDAR_DATE ( 2026, 24, 5 ) ;
#170 = DIRECTION ( 'NONE',  ( -1.000000000000000000, 0.000000000000000000, 0.000000000000000000 ) ) ;
#171 = CARTESIAN_POINT ( 'NONE',  ( 2.478083199726022645, -1.744312067978869507, 5.661180625371898145 ) ) ;
#172 = ORIENTED_EDGE ( 'NONE', *, *, #813, .F. ) ;
#173 = ORIENTED_EDGE ( 'NONE', *, *, #471, .F. ) ;
#174 = DIRECTION ( 'NONE',  ( 0.000000000000000000, 0.000000000000000000, -1.000000000000000000 ) ) ;
#175 = AXIS2_PLACEMENT_3D ( 'NONE', #905, #298, #512 ) ;
#176 = VECTOR ( 'NONE', #354, 1000.000000000000000 ) ;
#177 = LOCAL_TIME ( 17, 46, 1.000000000000000000, #644 ) ;
#178 = EDGE_LOOP ( 'NONE', ( #303, #157, #184, #231 ) ) ;
#179 = APPLICATION_CONTEXT ( 'configuration controlled 3d designs of mechanical parts and assemblies' ) ;
#180 = CARTESIAN_POINT ( 'NONE',  ( 1.759795694126246035, -2.052188816712021691, 6.043489923313844159 ) ) ;
#181 = ADVANCED_FACE ( 'NONE', ( #464 ), #2, .F. ) ;
#182 = ORIENTED_EDGE ( 'NONE', *, *, #396, .T. ) ;
#183 = CARTESIAN_POINT ( 'NONE',  ( 2.251545668448661885, -2.177459541391275621, 5.997802127251759430 ) ) ;
#184 = ORIENTED_EDGE ( 'NONE', *, *, #933, .T. ) ;
#185 = ADVANCED_FACE ( 'NONE', ( #782 ), #983, .T. ) ;
#186 = DIRECTION ( 'NONE',  ( -1.000000000000000000, -1.734723475976807094E-16, 0.000000000000000000 ) ) ;
#187 =( LENGTH_UNIT ( ) NAMED_UNIT ( * ) SI_UNIT ( .MILLI., .METRE. ) );
#188 = EDGE_CURVE ( 'NONE', #773, #85, #414, .T. ) ;
#189 = ADVANCED_FACE ( 'NONE', ( #604, #751 ), #287, .F. ) ;
#190 = EDGE_CURVE ( 'NONE', #696, #382, #912, .T. ) ;
#191 = VECTOR ( 'NONE', #61, 1000.000000000000227 ) ;
#192 = FACE_OUTER_BOUND ( 'NONE', #476, .T. ) ;
#193 = DATE_AND_TIME ( #952, #177 ) ;
#194 = VECTOR ( 'NONE', #121, 1000.000000000000114 ) ;
#195 = CARTESIAN_POINT ( 'NONE',  ( -1.635237103740729392, -2.500000000000000444, 5.542759954358571051 ) ) ;
#196 = DIRECTION ( 'NONE',  ( 0.000000000000000000, 0.000000000000000000, 1.000000000000000000 ) ) ;
#197 = DATE_AND_TIME ( #267, #320 ) ;
#198 = CARTESIAN_POINT ( 'NONE',  ( -2.500000000000000000, -2.500000000000000444, 0.000000000000000000 ) ) ;
#199 = CARTESIAN_POINT ( 'NONE',  ( -2.000000000000000444, -2.886265188597456177, 11.17742585168418756 ) ) ;
#200 = DIRECTION ( 'NONE',  ( 0.000000000000000000, 0.000000000000000000, -1.000000000000000000 ) ) ;
#201 = CARTESIAN_POINT ( 'NONE',  ( -2.000000004322453950, -1.773005822672548026, 6.141660023727990136 ) ) ;
#202 = VERTEX_POINT ( 'NONE', #367 ) ;
#203 = LINE ( 'NONE', #658, #319 ) ;
#204 = CARTESIAN_POINT ( 'NONE',  ( 1.500000000000000000, 1.499999999999999778, 0.000000000000000000 ) ) ;
#205 = CARTESIAN_POINT ( 'NONE',  ( 2.000000000000000000, -1.035331853275947678, 12.73054333068618504 ) ) ;
#206 = DIRECTION ( 'NONE',  ( 1.000000000000000000, 0.000000000000000000, 0.000000000000000000 ) ) ;
#207 = CYLINDRICAL_SURFACE ( 'NONE', #518, 1.000000000000000000 ) ;
#208 = DIRECTION ( 'NONE',  ( 1.000000000000000000, 0.000000000000000000, 0.000000000000000000 ) ) ;
#209 = ORIENTED_EDGE ( 'NONE', *, *, #328, .T. ) ;
#210 = DIRECTION ( 'NONE',  ( -1.734723475976806306E-15, -0.7660444431189809000, -0.6427876096865358102 ) ) ;
#211 = CARTESIAN_POINT ( 'NONE',  ( -1.600000000000000089, 0.000000000000000000, 5.000000000000000000 ) ) ;
#212 = EDGE_CURVE ( 'NONE', #455, #677, #282, .T. ) ;
#213 = DIRECTION ( 'NONE',  ( -0.000000000000000000, 0.7660444431189814551, 0.6427876096865355882 ) ) ;
#214 = ORIENTED_EDGE ( 'NONE', *, *, #216, .F. ) ;
#215 = EDGE_CURVE ( 'NONE', #202, #349, #444, .T. ) ;
#216 = EDGE_CURVE ( 'NONE', #12, #809, #994, .T. ) ;
#217 = CARTESIAN_POINT ( 'NONE',  ( -2.500000000000000000, -1.356725658119217526, 13.11356555224567977 ) ) ;
#218 = DIRECTION ( 'NONE',  ( 1.000000000000000000, 0.000000000000000000, 0.000000000000000000 ) ) ;
#219 = VERTEX_POINT ( 'NONE', #673 ) ;
#220 = CARTESIAN_POINT ( 'NONE',  ( -2.007614110126188400, -2.371626143725401370, 5.557181367505378944 ) ) ;
#221 = AXIS2_PLACEMENT_3D ( 'NONE', #227, #373, #930 ) ;
#222 = ORIENTED_EDGE ( 'NONE', *, *, #81, .T. ) ;
#223 = CIRCLE ( 'NONE', #559, 0.5000000000000000000 ) ;
#224 = VECTOR ( 'NONE', #133, 1000.000000000000000 ) ;
#225 = EDGE_CURVE ( 'NONE', #167, #583, #123, .T. ) ;
#226 = DIRECTION ( 'NONE',  ( 1.000000000000000000, 0.000000000000000000, 0.000000000000000000 ) ) ;
#227 = CARTESIAN_POINT ( 'NONE',  ( 2.000000000000000000, -1.500000000000000000, 5.719709140972390138 ) ) ;
#228 = CARTESIAN_POINT ( 'NONE',  ( 0.000000000000000000, 0.000000000000000000, 5.000000000000000000 ) ) ;
#229 = ORIENTED_EDGE ( 'NONE', *, *, #41, .F. ) ;
#230 = CARTESIAN_POINT ( 'NONE',  ( -2.500000000000000000, 1.499999999999998668, 0.000000000000000000 ) ) ;
#231 = ORIENTED_EDGE ( 'NONE', *, *, #650, .F. ) ;
#232 = ORIENTED_EDGE ( 'NONE', *, *, #543, .T. ) ;
#233 = CARTESIAN_POINT ( 'NONE',  ( -2.000000000000000000, -2.886265188597459286, 11.17742585168418756 ) ) ;
#234 = ORIENTED_EDGE ( 'NONE', *, *, #968, .T. ) ;
#235 = LINE ( 'NONE', #609, #191 ) ;
#236 = EDGE_LOOP ( 'NONE', ( #692, #934, #456, #843 ) ) ;
#237 = DATE_AND_TIME ( #395, #142 ) ;
#238 = CARTESIAN_POINT ( 'NONE',  ( -1.600000000000000089, 0.000000000000000000, 0.000000000000000000 ) ) ;
#239 = EDGE_LOOP ( 'NONE', ( #270, #154, #80, #126 ) ) ;
#240 = CARTESIAN_POINT ( 'NONE',  ( 1.883228882544212057, -1.973558923834717316, 6.064910405617520262 ) ) ;
#241 = AXIS2_PLACEMENT_3D ( 'NONE', #302, #842, #992 ) ;
#242 = AXIS2_PLACEMENT_3D ( 'NONE', #975, #263, #39 ) ;
#243 = CIRCLE ( 'NONE', #384, 1.000000000000000000 ) ;
#244 = CARTESIAN_POINT ( 'NONE',  ( -1.984118476001133891, -1.835339131983437566, 6.114062610831387801 ) ) ;
#245 = ORIENTED_EDGE ( 'NONE', *, *, #286, .F. ) ;
#246 = CARTESIAN_POINT ( 'NONE',  ( -2.500000000000000000, 0.3151187188515183202, 7.362165078708539312 ) ) ;
#247 = ORIENTED_EDGE ( 'NONE', *, *, #755, .T. ) ;
#248 = CARTESIAN_POINT ( 'NONE',  ( 0.000000000000000000, 0.000000000000000000, 5.000000000000000000 ) ) ;
#249 = EDGE_LOOP ( 'NONE', ( #537, #529 ) ) ;
#250 = CARTESIAN_POINT ( 'NONE',  ( -2.500000000000000000, 1.499999999999998668, 9.709052486126010351 ) ) ;
#251 = EDGE_LOOP ( 'NONE', ( #874, #522, #730, #1000 ) ) ;
#252 = CARTESIAN_POINT ( 'NONE',  ( -2.000000000000000000, -2.886265188597457509, 11.17742585168418934 ) ) ;
#253 = ADVANCED_FACE ( 'NONE', ( #757 ), #136, .F. ) ;
#254 = AXIS2_PLACEMENT_3D ( 'NONE', #137, #825, #585 ) ;
#255 = DIRECTION ( 'NONE',  ( 0.000000000000000000, 0.6427876096865349220, -0.7660444431189816772 ) ) ;
#256 = CARTESIAN_POINT ( 'NONE',  ( 1.999999998605366924, -1.773135357503714316, 6.141593713232583518 ) ) ;
#257 = DIRECTION ( 'NONE',  ( -0.000000000000000000, 0.000000000000000000, -1.000000000000000000 ) ) ;
#258 = EDGE_CURVE ( 'NONE', #45, #608, #828, .T. ) ;
#259 = ORIENTED_EDGE ( 'NONE', *, *, #215, .T. ) ;
#260 = CARTESIAN_POINT ( 'NONE',  ( 1.816014004184759223, -2.022666951592765550, 6.050748268632851534 ) ) ;
#261 = EDGE_CURVE ( 'NONE', #615, #661, #14, .T. ) ;
#262 = CARTESIAN_POINT ( 'NONE',  ( 1.347111479062088257E-16, -6.810799710151520969, 3.837587785175662347 ) ) ;
#263 = DIRECTION ( 'NONE',  ( -1.000000000000000000, 0.000000000000000000, 0.000000000000000000 ) ) ;
#264 = CIRCLE ( 'NONE', #769, 1.600000000000000089 ) ;
#265 = AXIS2_PLACEMENT_3D ( 'NONE', #62, #832, #979 ) ;
#266 = DIRECTION ( 'NONE',  ( 1.000000000000000000, -0.000000000000000000, -0.000000000000000000 ) ) ;
#267 = CALENDAR_DATE ( 2026, 24, 5 ) ;
#268 = AXIS2_PLACEMENT_3D ( 'NONE', #863, #213, #820 ) ;
#269 = CARTESIAN_POINT ( 'NONE',  ( -1.906983376591182111, -1.951227587121941331, 6.071828251272981980 ) ) ;
#270 = ORIENTED_EDGE ( 'NONE', *, *, #538, .T. ) ;
#271 = CARTESIAN_POINT ( 'NONE',  ( 1.625280911687138508, -2.499999952742951059, 5.948598492313622366 ) ) ;
#272 = PERSON_AND_ORGANIZATION ( #128, #305 ) ;
#273 = CARTESIAN_POINT ( 'NONE',  ( -1.815809720641702985, -2.022747331115426928, 6.050732741476797294 ) ) ;
#274 = EDGE_LOOP ( 'NONE', ( #723, #291 ) ) ;
#275 = LINE ( 'NONE', #508, #92 ) ;
#276 = CYLINDRICAL_SURFACE ( 'NONE', #254, 0.4999999999999999445 ) ;
#277 = DIRECTION ( 'NONE',  ( 0.000000000000000000, 0.000000000000000000, -1.000000000000000000 ) ) ;
#278 = ORIENTED_EDGE ( 'NONE', *, *, #570, .F. ) ;
#279 = CC_DESIGN_PERSON_AND_ORGANIZATION_ASSIGNMENT ( #964, #101, ( #678 ) ) ;
#280 = CARTESIAN_POINT ( 'NONE',  ( -1.500000000000000000, -1.500000000000000444, 5.000000000000000000 ) ) ;
#281 = CARTESIAN_POINT ( 'NONE',  ( -1.500000000000000000, -2.500000000000000444, 0.000000000000000000 ) ) ;
#282 = CIRCLE ( 'NONE', #542, 0.5000000000000000000 ) ;
#283 = AXIS2_PLACEMENT_3D ( 'NONE', #64, #676, #218 ) ;
#284 = CARTESIAN_POINT ( 'NONE',  ( -1.500000000000000000, -2.500000000000000444, 5.542759944674822137 ) ) ;
#285 = ORIENTED_EDGE ( 'NONE', *, *, #225, .T. ) ;
#286 = EDGE_CURVE ( 'NONE', #615, #921, #332, .T. ) ;
#287 = PLANE ( 'NONE',  #957 ) ;
#288 = DIRECTION ( 'NONE',  ( 1.000000000000000000, 0.000000000000000000, 0.000000000000000000 ) ) ;
#289 = EDGE_CURVE ( 'NONE', #167, #307, #104, .T. ) ;
#290 = CARTESIAN_POINT ( 'NONE',  ( 2.500000000000000000, -3.207658993440726469, 11.56044807324367873 ) ) ;
#291 = ORIENTED_EDGE ( 'NONE', *, *, #650, .T. ) ;
#292 = ADVANCED_FACE ( 'NONE', ( #679 ), #376, .F. ) ;
#293 = CARTESIAN_POINT ( 'NONE',  ( 0.000000000000000000, -7.517866080806710372, 4.680236672606541859 ) ) ;
#294 = CARTESIAN_POINT ( 'NONE',  ( 2.085786437626904632, 2.500000000000000000, 8.517298893531787485 ) ) ;
#295 = EDGE_LOOP ( 'NONE', ( #991, #486, #803, #633 ) ) ;
#296 = DIRECTION ( 'NONE',  ( 0.000000000000000000, 0.000000000000000000, 1.000000000000000000 ) ) ;
#297 = EDGE_CURVE ( 'NONE', #447, #45, #797, .T. ) ;
#298 = DIRECTION ( 'NONE',  ( -1.000000000000000000, 0.000000000000000000, 0.000000000000000000 ) ) ;
#299 = DIRECTION ( 'NONE',  ( 0.000000000000000000, 0.000000000000000000, 1.000000000000000000 ) ) ;
#300 = CARTESIAN_POINT ( 'NONE',  ( -2.500000000000000000, 1.499999999999998668, 9.709052486126010351 ) ) ;
#301 = ORIENTED_EDGE ( 'NONE', *, *, #1, .T. ) ;
#302 = CARTESIAN_POINT ( 'NONE',  ( 2.500000000000000000, 2.500000000000000000, 5.000000000000000000 ) ) ;
#303 = ORIENTED_EDGE ( 'NONE', *, *, #726, .F. ) ;
#304 = AXIS2_PLACEMENT_3D ( 'NONE', #280, #886, #499 ) ;
#305 = ORGANIZATION ( 'æœª', 'æœª', '' ) ;
#306 = CARTESIAN_POINT ( 'NONE',  ( -1.619125869958091046, -2.102838272858010171, 6.032069958506117047 ) ) ;
#307 = VERTEX_POINT ( 'NONE', #168 ) ;
#308 = CARTESIAN_POINT ( 'NONE',  ( -2.376737816064333764, -1.998125348321474037, 5.611744132313511990 ) ) ;
#309 = ORIENTED_EDGE ( 'NONE', *, *, #640, .T. ) ;
#310 = PERSON_AND_ORGANIZATION ( #128, #305 ) ;
#311 = DIRECTION ( 'NONE',  ( 0.000000000000000000, 0.000000000000000000, 1.000000000000000000 ) ) ;
#312 = PLANE ( 'NONE',  #516 ) ;
#313 = EDGE_LOOP ( 'NONE', ( #79, #379, #139, #622 ) ) ;
#314 = ORIENTED_EDGE ( 'NONE', *, *, #861, .F. ) ;
#315 = CARTESIAN_POINT ( 'NONE',  ( 2.500000000000000000, -2.500000000000000000, 5.000000000000000000 ) ) ;
#316 = DIRECTION ( 'NONE',  ( 1.000000000000000000, 0.000000000000000000, 0.000000000000000000 ) ) ;
#317 = ORIENTED_EDGE ( 'NONE', *, *, #297, .T. ) ;
#318 = CIRCLE ( 'NONE', #878, 1.499999999999999556 ) ;
#319 = VECTOR ( 'NONE', #969, 1000.000000000000114 ) ;
#320 = LOCAL_TIME ( 17, 46, 1.000000000000000000, #801 ) ;
#321 = LINE ( 'NONE', #630, #383 ) ;
#322 = CARTESIAN_POINT ( 'NONE',  ( 0.000000000000000000, 0.000000000000000000, 0.000000000000000000 ) ) ;
#323 = CARTESIAN_POINT ( 'NONE',  ( 2.433497808974870225, -1.912167070498239418, 6.079353484907764837 ) ) ;
#324 = EDGE_CURVE ( 'NONE', #1002, #474, #235, .T. ) ;
#325 = PERSON_AND_ORGANIZATION ( #128, #305 ) ;
#326 = ORIENTED_EDGE ( 'NONE', *, *, #570, .T. ) ;
#327 = DIRECTION ( 'NONE',  ( -0.000000000000000000, -0.000000000000000000, 1.000000000000000000 ) ) ;
#328 = EDGE_CURVE ( 'NONE', #447, #83, #318, .T. ) ;
#329 = DIRECTION ( 'NONE',  ( 0.000000000000000000, 0.000000000000000000, 1.000000000000000000 ) ) ;
#330 = CARTESIAN_POINT ( 'NONE',  ( 1.749194120420260790, -2.476148486901993184, 5.950270937061055143 ) ) ;
#331 =( NAMED_UNIT ( * ) PLANE_ANGLE_UNIT ( ) SI_UNIT ( $, .RADIAN. ) );
#332 = CIRCLE ( 'NONE', #603, 0.5000000000000000000 ) ;
#333 = VECTOR ( 'NONE', #985, 1000.000000000000000 ) ;
#334 = CC_DESIGN_APPROVAL ( #714, ( #978 ) ) ;
#335 = LINE ( 'NONE', #943, #588 ) ;
#336 = CARTESIAN_POINT ( 'NONE',  ( 1.942597874799761426, -1.908759212081525547, 6.085892750778903348 ) ) ;
#337 = LINE ( 'NONE', #410, #880 ) ;
#338 = APPROVAL_ROLE ( '' ) ;
#339 = ORIENTED_EDGE ( 'NONE', *, *, #359, .F. ) ;
#340 = CARTESIAN_POINT ( 'NONE',  ( 1.500000000000000222, -2.500000000000000000, 5.948598488660684858 ) ) ;
#341 = CARTESIAN_POINT ( 'NONE',  ( 0.000000000000000000, 0.000000000000000000, 0.000000000000000000 ) ) ;
#342 = FACE_OUTER_BOUND ( 'NONE', #295, .T. ) ;
#343 = CIRCLE ( 'NONE', #702, 1.100000000000000533 ) ;
#344 = AXIS2_PLACEMENT_3D ( 'NONE', #361, #494, #973 ) ;
#345 = CARTESIAN_POINT ( 'NONE',  ( 2.500000000000000000, -1.262286426753566948, 8.464181414529802439 ) ) ;
#346 = CYLINDRICAL_SURFACE ( 'NONE', #606, 0.4999999999999998890 ) ;
#347 = CC_DESIGN_APPROVAL ( #890, ( #947 ) ) ;
#348 = FACE_OUTER_BOUND ( 'NONE', #313, .T. ) ;
#349 = VERTEX_POINT ( 'NONE', #535 ) ;
#350 = CYLINDRICAL_SURFACE ( 'NONE', #636, 0.5000000000000007772 ) ;
#351 = DIRECTION ( 'NONE',  ( -0.000000000000000000, 0.7660444431189817882, 0.6427876096865350330 ) ) ;
#352 = CARTESIAN_POINT ( 'NONE',  ( -2.000000000000000000, -1.727838272858010171, 6.164781855729292381 ) ) ;
#353 = ORIENTED_EDGE ( 'NONE', *, *, #360, .T. ) ;
#354 = DIRECTION ( 'NONE',  ( 1.000000000000000000, 1.734723475976807587E-16, 1.637556557497530922E-16 ) ) ;
#355 = CARTESIAN_POINT ( 'NONE',  ( 0.000000000000000000, -2.690778561439069350, 10.16659204803383965 ) ) ;
#356 = CARTESIAN_POINT ( 'NONE',  ( -2.500000000000000444, -1.727838272858010393, 6.164781855729291493 ) ) ;
#357 = ORIENTED_EDGE ( 'NONE', *, *, #680, .T. ) ;
#358 = EDGE_CURVE ( 'NONE', #149, #219, #438, .T. ) ;
#359 = EDGE_CURVE ( 'NONE', #809, #12, #343, .T. ) ;
#360 = EDGE_CURVE ( 'NONE', #677, #411, #739, .T. ) ;
#361 = CARTESIAN_POINT ( 'NONE',  ( -3.567919323113967412E-17, -2.000000000000000000, 5.542759944674822137 ) ) ;
#362 = CARTESIAN_POINT ( 'NONE',  ( -2.500000000000000000, -1.500000000000000444, 5.719709140972390138 ) ) ;
#363 = CIRCLE ( 'NONE', #425, 0.5000000000000004441 ) ;
#364 = FACE_OUTER_BOUND ( 'NONE', #40, .T. ) ;
#365 = EDGE_LOOP ( 'NONE', ( #172, #884, #986, #587 ) ) ;
#366 = EDGE_CURVE ( 'NONE', #483, #411, #916, .T. ) ;
#367 = CARTESIAN_POINT ( 'NONE',  ( -2.000000000000000000, -1.356725658119217526, 13.11356555224567977 ) ) ;
#368 = DIRECTION ( 'NONE',  ( -0.000000000000000000, -0.000000000000000000, 1.000000000000000000 ) ) ;
#369 = CARTESIAN_POINT ( 'NONE',  ( 2.500000000000000000, 2.085786437626905077, 9.010939394591174434 ) ) ;
#370 = EDGE_LOOP ( 'NONE', ( #919, #544 ) ) ;
#371 = CARTESIAN_POINT ( 'NONE',  ( -1.633231203344607252, -2.500000000000000888, 5.542759944674822137 ) ) ;
#372 = CARTESIAN_POINT ( 'NONE',  ( 0.000000000000000000, 0.000000000000000000, 0.000000000000000000 ) ) ;
#373 = DIRECTION ( 'NONE',  ( -0.000000000000000000, 0.8901454295138048201, 0.4556765457160200095 ) ) ;
#374 = CARTESIAN_POINT ( 'NONE',  ( 2.000000000000000000, -6.696343067895817569, 7.980390908408253381 ) ) ;
#375 = ORIENTED_EDGE ( 'NONE', *, *, #928, .T. ) ;
#376 = PLANE ( 'NONE',  #241 ) ;
#377 = FACE_OUTER_BOUND ( 'NONE', #251, .T. ) ;
#378 = CARTESIAN_POINT ( 'NONE',  ( 1.600000000000000089, 1.959434878635765230E-16, 5.000000000000000000 ) ) ;
#379 = ORIENTED_EDGE ( 'NONE', *, *, #493, .F. ) ;
#380 = CARTESIAN_POINT ( 'NONE',  ( 1.738863197463305754, -2.071335885596548021, 6.037477587151894198 ) ) ;
#381 = VECTOR ( 'NONE', #152, 1000.000000000000000 ) ;
#382 = VERTEX_POINT ( 'NONE', #230 ) ;
#383 = VECTOR ( 'NONE', #936, 1000.000000000000000 ) ;
#384 = AXIS2_PLACEMENT_3D ( 'NONE', #713, #257, #490 ) ;
#385 = ORIENTED_EDGE ( 'NONE', *, *, #212, .T. ) ;
#386 = CARTESIAN_POINT ( 'NONE',  ( 2.500000000000000000, -1.500000000000000000, 5.719709140972390138 ) ) ;
#387 = DIRECTION ( 'NONE',  ( 0.000000000000000000, -0.7660444431189793457, -0.6427876096865379196 ) ) ;
#388 = CC_DESIGN_PERSON_AND_ORGANIZATION_ASSIGNMENT ( #310, #158, ( #978 ) ) ;
#389 = PERSON_AND_ORGANIZATION ( #128, #305 ) ;
#390 = CARTESIAN_POINT ( 'NONE',  ( -2.000000000000000000, -1.727838272858010171, 6.164781855729292381 ) ) ;
#391 = VERTEX_POINT ( 'NONE', #1005 ) ;
#392 = LINE ( 'NONE', #700, #785 ) ;
#393 = VERTEX_POINT ( 'NONE', #160 ) ;
#394 = ADVANCED_FACE ( 'NONE', ( #625, #155 ), #312, .F. ) ;
#395 = CALENDAR_DATE ( 2026, 24, 5 ) ;
#396 = EDGE_CURVE ( 'NONE', #167, #773, #392, .T. ) ;
#397 = ORIENTED_EDGE ( 'NONE', *, *, #539, .T. ) ;
#398 = DIRECTION ( 'NONE',  ( 1.000000000000000000, 0.000000000000000000, 0.000000000000000000 ) ) ;
#399 = ORIENTED_EDGE ( 'NONE', *, *, #755, .F. ) ;
#400 = ADVANCED_FACE ( 'NONE', ( #632 ), #716, .F. ) ;
#401 = AXIS2_PLACEMENT_3D ( 'NONE', #315, #623, #548 ) ;
#402 = VECTOR ( 'NONE', #186, 1000.000000000000000 ) ;
#403 = AXIS2_PLACEMENT_3D ( 'NONE', #252, #866, #944 ) ;
#404 = DATE_TIME_ROLE ( 'classification_date' ) ;
#405 = APPROVAL_PERSON_ORGANIZATION ( #389, #890, #856 ) ;
#406 = ORIENTED_EDGE ( 'NONE', *, *, #110, .F. ) ;
#407 = CARTESIAN_POINT ( 'NONE',  ( -1.500000000000000000, 2.499999999999999112, 5.000000000000000000 ) ) ;
#408 = EDGE_CURVE ( 'NONE', #307, #583, #651, .T. ) ;
#409 = ORIENTED_EDGE ( 'NONE', *, *, #492, .F. ) ;
#410 = CARTESIAN_POINT ( 'NONE',  ( 1.499999999999999778, 2.500000000000000000, 5.000000000000000000 ) ) ;
#411 = VERTEX_POINT ( 'NONE', #13 ) ;
#412 = DIRECTION ( 'NONE',  ( 0.000000000000000000, 0.000000000000000000, -1.000000000000000000 ) ) ;
#413 = DIRECTION ( 'NONE',  ( 0.000000000000000000, 0.000000000000000000, 1.000000000000000000 ) ) ;
#414 = CIRCLE ( 'NONE', #175, 2.000000000000000000 ) ;
#415 = AXIS2_PLACEMENT_3D ( 'NONE', #971, #277, #816 ) ;
#416 = FACE_OUTER_BOUND ( 'NONE', #90, .T. ) ;
#417 = CARTESIAN_POINT ( 'NONE',  ( 1.568438153110205846, -2.102838251607730413, 6.032069962972286703 ) ) ;
#418 = DIRECTION ( 'NONE',  ( 0.000000000000000000, 0.000000000000000000, 1.000000000000000000 ) ) ;
#419 = DIRECTION ( 'NONE',  ( 0.000000000000000000, -0.6427876096865359212, 0.7660444431189807890 ) ) ;
#420 = CARTESIAN_POINT ( 'NONE',  ( -2.385077181749224451, -1.982467516740594737, 5.614535635939772007 ) ) ;
#421 = DIRECTION ( 'NONE',  ( 1.000000000000000000, 5.575293782951224128E-16, -6.644376395600352496E-16 ) ) ;
#422 = DATE_TIME_ROLE ( 'creation_date' ) ;
#423 = LINE ( 'NONE', #198, #977 ) ;
#424 = VECTOR ( 'NONE', #226, 1000.000000000000000 ) ;
#425 = AXIS2_PLACEMENT_3D ( 'NONE', #199, #421, #46 ) ;
#426 = CARTESIAN_POINT ( 'NONE',  ( -2.500000000000000000, -2.886265188597457509, 11.17742585168418934 ) ) ;
#427 = CARTESIAN_POINT ( 'NONE',  ( 1.347111479062088257E-16, 0.9573097367523119017, 10.35580555701734617 ) ) ;
#428 = EDGE_CURVE ( 'NONE', #754, #696, #103, .T. ) ;
#429 = CARTESIAN_POINT ( 'NONE',  ( -1.500000000000000000, 1.499999999999998668, 0.000000000000000000 ) ) ;
#430 = DIRECTION ( 'NONE',  ( -1.000000000000000000, 0.000000000000000000, 0.000000000000000000 ) ) ;
#431 =( BOUNDED_CURVE ( )  B_SPLINE_CURVE ( 3, ( #670, #369, #294, #607 ),
 .UNSPECIFIED., .F., .F. ) 
 B_SPLINE_CURVE_WITH_KNOTS ( ( 4, 4 ),
 ( 4.712388980384690562, 6.283185307179586232 ),
 .UNSPECIFIED. ) 
 CURVE ( )  GEOMETRIC_REPRESENTATION_ITEM ( )  RATIONAL_B_SPLINE_CURVE ( ( 1.000000000000000000, 0.8047378541243652705, 0.8047378541243652705, 1.000000000000000000 ) ) 
 REPRESENTATION_ITEM ( '' )  );
#432 = FACE_OUTER_BOUND ( 'NONE', #793, .T. ) ;
#433 = DIRECTION ( 'NONE',  ( 0.000000000000000000, 1.000000000000000000, -0.000000000000000000 ) ) ;
#434 = CARTESIAN_POINT ( 'NONE',  ( -2.250447132614666224, -2.178540109374431211, 5.997564523210082044 ) ) ;
#435 = ORIENTED_EDGE ( 'NONE', *, *, #579, .T. ) ;
#436 = DIRECTION ( 'NONE',  ( 0.000000000000000000, -0.7660444431189814551, -0.6427876096865355882 ) ) ;
#437 = LINE ( 'NONE', #974, #560 ) ;
#438 = CIRCLE ( 'NONE', #705, 1.600000000000000089 ) ;
#439 = CIRCLE ( 'NONE', #849, 1.000000000000000000 ) ;
#440 = DIRECTION ( 'NONE',  ( 0.000000000000000000, -0.7660444431189812331, -0.6427876096865355882 ) ) ;
#441 = EDGE_LOOP ( 'NONE', ( #527, #551, #611 ) ) ;
#442 = CARTESIAN_POINT ( 'NONE',  ( -2.000000000000000444, -0.8792642051940765535, 8.785575219373070510 ) ) ;
#443 = VECTOR ( 'NONE', #566, 1000.000000000000000 ) ;
#444 = LINE ( 'NONE', #217, #424 ) ;
#445 = CARTESIAN_POINT ( 'NONE',  ( -1.500000000000000000, -2.102838272858010171, 6.032069958506117047 ) ) ;
#446 = DIRECTION ( 'NONE',  ( 0.000000000000000000, 0.4556765457160200095, -0.8901454295138049311 ) ) ;
#447 = VERTEX_POINT ( 'NONE', #710 ) ;
#448 = DIRECTION ( 'NONE',  ( 1.393823445737813921E-16, 0.6427876096865355882, -0.7660444431189811221 ) ) ;
#449 = EDGE_LOOP ( 'NONE', ( #65, #353, #534, #406 ) ) ;
#450 = B_SPLINE_CURVE_WITH_KNOTS ( 'NONE', 3,
 ( #390, #776, #244, #540, #937, #605, #306, #445 ),
 .UNSPECIFIED., .F., .F.,
 ( 4, 2, 2, 4 ),
 ( 0.000000000000000000, 0.0001770824520368393122, 0.0003541649040736782449, 0.0007083298081473569235 ),
 .UNSPECIFIED. ) ;
#451 = DIRECTION ( 'NONE',  ( 1.000000000000000000, 0.000000000000000000, 0.000000000000000000 ) ) ;
#452 = DIRECTION ( 'NONE',  ( 0.000000000000000000, 1.000000000000000000, 0.000000000000000000 ) ) ;
#453 = ORIENTED_EDGE ( 'NONE', *, *, #109, .F. ) ;
#454 = CARTESIAN_POINT ( 'NONE',  ( -1.500000000000000000, -2.500000000000000444, 5.542759944674822137 ) ) ;
#455 = VERTEX_POINT ( 'NONE', #724 ) ;
#456 = ORIENTED_EDGE ( 'NONE', *, *, #297, .F. ) ;
#457 = APPROVAL_ROLE ( '' ) ;
#458 = SPHERICAL_SURFACE ( 'NONE', #733, 0.5000000000000000000 ) ;
#459 = DIRECTION ( 'NONE',  ( -1.000000000000000000, -0.000000000000000000, -0.000000000000000000 ) ) ;
#460 = VECTOR ( 'NONE', #918, 1000.000000000000114 ) ;
#461 = ORIENTED_EDGE ( 'NONE', *, *, #475, .F. ) ;
#462 = CIRCLE ( 'NONE', #720, 1.499999999999999556 ) ;
#463 = ORIENTED_EDGE ( 'NONE', *, *, #547, .F. ) ;
#464 = FACE_OUTER_BOUND ( 'NONE', #617, .T. ) ;
#465 = CARTESIAN_POINT ( 'NONE',  ( -2.474757678016165752, -1.758157955341651091, 5.658211187567656175 ) ) ;
#466 = EDGE_CURVE ( 'NONE', #608, #564, #55, .T. ) ;
#467 = ORIENTED_EDGE ( 'NONE', *, *, #543, .F. ) ;
#468 = EDGE_CURVE ( 'NONE', #738, #1002, #473, .T. ) ;
#469 = CALENDAR_DATE ( 2026, 24, 5 ) ;
#470 = ORIENTED_EDGE ( 'NONE', *, *, #1001, .F. ) ;
#471 = EDGE_CURVE ( 'NONE', #657, #27, #25, .T. ) ;
#472 = CARTESIAN_POINT ( 'NONE',  ( -1.500000000000000000, -1.500000000000000444, 0.000000000000000000 ) ) ;
#473 = LINE ( 'NONE', #97, #628 ) ;
#474 = VERTEX_POINT ( 'NONE', #873 ) ;
#475 = EDGE_CURVE ( 'NONE', #773, #869, #573, .T. ) ;
#476 = EDGE_LOOP ( 'NONE', ( #385, #549, #245, #467 ) ) ;
#477 = CARTESIAN_POINT ( 'NONE',  ( 2.000000000000000000, -2.886265188597458842, 11.17742585168418756 ) ) ;
#478 = AXIS2_PLACEMENT_3D ( 'NONE', #595, #436, #144 ) ;
#479 = VECTOR ( 'NONE', #368, 1000.000000000000000 ) ;
#480 = ORIENTED_EDGE ( 'NONE', *, *, #28, .F. ) ;
#481 = CARTESIAN_POINT ( 'NONE',  ( 2.019591390353921323, -2.364934794369991877, 5.557986577100486159 ) ) ;
#482 = PERSON_AND_ORGANIZATION ( #128, #305 ) ;
#483 = VERTEX_POINT ( 'NONE', #783 ) ;
#484 = CARTESIAN_POINT ( 'NONE',  ( 2.315097449254513773, -2.094307478062737982, 5.595988106538499096 ) ) ;
#485 = APPLICATION_PROTOCOL_DEFINITION ( 'international standard', 'config_control_design', 1994, #965 ) ;
#486 = ORIENTED_EDGE ( 'NONE', *, *, #935, .F. ) ;
#487 = CC_DESIGN_DATE_AND_TIME_ASSIGNMENT ( #75, #404, ( #947 ) ) ;
#488 = AXIS2_PLACEMENT_3D ( 'NONE', #233, #88, #759 ) ;
#489 = LINE ( 'NONE', #806, #194 ) ;
#490 = DIRECTION ( 'NONE',  ( 1.000000000000000000, 0.000000000000000000, 0.000000000000000000 ) ) ;
#491 = CARTESIAN_POINT ( 'NONE',  ( -2.019033785981139584, -2.365323988737662475, 5.557938513299970573 ) ) ;
#492 = EDGE_CURVE ( 'NONE', #1006, #657, #337, .T. ) ;
#493 = EDGE_CURVE ( 'NONE', #27, #754, #100, .T. ) ;
#494 = DIRECTION ( 'NONE',  ( -1.000000000000000000, 0.000000000000000000, 0.000000000000000000 ) ) ;
#495 = PERSON_AND_ORGANIZATION_ROLE ( 'creator' ) ;
#496 = ADVANCED_FACE ( 'NONE', ( #787 ), #641, .T. ) ;
#497 = CYLINDRICAL_SURFACE ( 'NONE', #545, 0.5000000000000004441 ) ;
#498 = EDGE_CURVE ( 'NONE', #556, #564, #363, .T. ) ;
#499 = DIRECTION ( 'NONE',  ( -1.000000000000000000, 0.000000000000000000, 0.000000000000000000 ) ) ;
#500 = FACE_OUTER_BOUND ( 'NONE', #774, .T. ) ;
#501 = CARTESIAN_POINT ( 'NONE',  ( -1.988797730587780421, -1.820033122554508109, 6.120648412699566165 ) ) ;
#502 = ORIENTED_EDGE ( 'NONE', *, *, #579, .F. ) ;
#503 = VECTOR ( 'NONE', #327, 1000.000000000000000 ) ;
#504 = DIRECTION ( 'NONE',  ( -0.000000000000000000, 0.7660444431189817882, 0.6427876096865350330 ) ) ;
#505 = DIRECTION ( 'NONE',  ( 0.000000000000000000, 0.000000000000000000, -1.000000000000000000 ) ) ;
#506 = CARTESIAN_POINT ( 'NONE',  ( 2.500000000000000000, -0.8792642051940768866, 8.785575219373070510 ) ) ;
#507 = ORIENTED_EDGE ( 'NONE', *, *, #867, .F. ) ;
#508 = CARTESIAN_POINT ( 'NONE',  ( 0.000000000000000000, -2.102838272858010171, 6.032069958506117047 ) ) ;
#509 = FACE_OUTER_BOUND ( 'NONE', #236, .T. ) ;
#510 = CARTESIAN_POINT ( 'NONE',  ( -2.077694922879127493, -2.326568643599006503, 5.968269775474237093 ) ) ;
#511 = ORIENTED_EDGE ( 'NONE', *, *, #109, .T. ) ;
#512 = DIRECTION ( 'NONE',  ( 0.000000000000000000, 0.000000000000000000, 1.000000000000000000 ) ) ;
#513 = FACE_BOUND ( 'NONE', #71, .T. ) ;
#514 = CARTESIAN_POINT ( 'NONE',  ( -1.500000000000000000, -2.500000000000000444, 5.542759944674822137 ) ) ;
#515 = ORIENTED_EDGE ( 'NONE', *, *, #366, .T. ) ;
#516 = AXIS2_PLACEMENT_3D ( 'NONE', #766, #925, #778 ) ;
#517 = DIRECTION ( 'NONE',  ( 0.000000000000000000, -0.000000000000000000, 1.000000000000000000 ) ) ;
#518 = AXIS2_PLACEMENT_3D ( 'NONE', #970, #505, #430 ) ;
#519 = CARTESIAN_POINT ( 'NONE',  ( -1.500000000000000000, 2.499999999999999112, 0.000000000000000000 ) ) ;
#520 = APPROVAL_PERSON_ORGANIZATION ( #272, #714, #457 ) ;
#521 = CYLINDRICAL_SURFACE ( 'NONE', #707, 1.600000000000000089 ) ;
#522 = ORIENTED_EDGE ( 'NONE', *, *, #28, .T. ) ;
#523 = CARTESIAN_POINT ( 'NONE',  ( -2.303054953149580530, -2.110095944892343311, 5.593500239155963172 ) ) ;
#524 = CARTESIAN_POINT ( 'NONE',  ( -1.500000000000000222, -2.000000000000000000, 5.542759944674822137 ) ) ;
#525 = CARTESIAN_POINT ( 'NONE',  ( 0.000000000000000000, -0.4568230045580660148, 12.04110333187910520 ) ) ;
#526 = LINE ( 'NONE', #7, #811 ) ;
#527 = ORIENTED_EDGE ( 'NONE', *, *, #289, .T. ) ;
#528 = CARTESIAN_POINT ( 'NONE',  ( 1.925372483418257286, -1.932023640701974188, 6.077701739765204003 ) ) ;
#529 = ORIENTED_EDGE ( 'NONE', *, *, #34, .F. ) ;
#530 = ORIENTED_EDGE ( 'NONE', *, *, #29, .T. ) ;
#531 = ADVANCED_BREP_SHAPE_REPRESENTATION ( '\X2\753578c1652f67b6\X0\2v1.0.0', ( #165, #42 ), #962 ) ;
#532 = EDGE_CURVE ( 'NONE', #85, #827, #647, .T. ) ;
#533 = FACE_OUTER_BOUND ( 'NONE', #441, .T. ) ;
#534 = ORIENTED_EDGE ( 'NONE', *, *, #366, .F. ) ;
#535 = CARTESIAN_POINT ( 'NONE',  ( 2.000000000000000444, -1.356725658119217526, 13.11356555224567977 ) ) ;
#536 = EDGE_LOOP ( 'NONE', ( #915, #687, #554, #94 ) ) ;
#537 = ORIENTED_EDGE ( 'NONE', *, *, #358, .F. ) ;
#538 = EDGE_CURVE ( 'NONE', #754, #1006, #814, .T. ) ;
#539 = EDGE_CURVE ( 'NONE', #447, #869, #35, .T. ) ;
#540 = CARTESIAN_POINT ( 'NONE',  ( -1.926026347136498229, -1.931055091884512853, 6.078054726859782875 ) ) ;
#541 = CARTESIAN_POINT ( 'NONE',  ( 1.999999999999999556, -1.781038135963556091, 6.137548182389261697 ) ) ;
#542 = AXIS2_PLACEMENT_3D ( 'NONE', #524, #901, #988 ) ;
#543 = EDGE_CURVE ( 'NONE', #455, #615, #275, .T. ) ;
#544 = ORIENTED_EDGE ( 'NONE', *, *, #359, .T. ) ;
#545 = AXIS2_PLACEMENT_3D ( 'NONE', #954, #208, #892 ) ;
#546 = LOCAL_TIME ( 17, 46, 1.000000000000000000, #1008 ) ;
#547 = EDGE_CURVE ( 'NONE', #661, #869, #462, .T. ) ;
#548 = DIRECTION ( 'NONE',  ( -1.000000000000000000, -8.673617379884035472E-17, 0.000000000000000000 ) ) ;
#549 = ORIENTED_EDGE ( 'NONE', *, *, #1007, .F. ) ;
#550 = DIRECTION ( 'NONE',  ( -0.000000000000000000, -0.000000000000000000, 1.000000000000000000 ) ) ;
#551 = ORIENTED_EDGE ( 'NONE', *, *, #408, .T. ) ;
#552 = COORDINATED_UNIVERSAL_TIME_OFFSET ( 8, 0, .AHEAD. ) ;
#553 = LINE ( 'NONE', #290, #333 ) ;
#554 = ORIENTED_EDGE ( 'NONE', *, *, #212, .F. ) ;
#555 = CARTESIAN_POINT ( 'NONE',  ( -1.499999999999999778, 2.499999999999999112, 8.517298893531785708 ) ) ;
#556 = VERTEX_POINT ( 'NONE', #963 ) ;
#557 = CARTESIAN_POINT ( 'NONE',  ( 2.500000000000000000, 2.500000000000000000, 0.000000000000000000 ) ) ;
#558 = AXIS2_PLACEMENT_3D ( 'NONE', #703, #145, #451 ) ;
#559 = AXIS2_PLACEMENT_3D ( 'NONE', #764, #760, #446 ) ;
#560 = VECTOR ( 'NONE', #752, 1000.000000000000000 ) ;
#561 = ORIENTED_EDGE ( 'NONE', *, *, #642, .T. ) ;
#562 = CARTESIAN_POINT ( 'NONE',  ( 2.322329053005923072, -2.091605748536055742, 6.019302612895116589 ) ) ;
#563 = DIRECTION ( 'NONE',  ( -1.000000000000000000, 0.000000000000000000, 0.000000000000000000 ) ) ;
#564 = VERTEX_POINT ( 'NONE', #668 ) ;
#565 = DIRECTION ( 'NONE',  ( 0.000000000000000000, 0.6427876096865349220, -0.7660444431189816772 ) ) ;
#566 = DIRECTION ( 'NONE',  ( -1.000000000000000000, -8.673617379884035472E-17, 0.000000000000000000 ) ) ;
#567 = ADVANCED_FACE ( 'NONE', ( #192 ), #662, .T. ) ;
#568 = DIRECTION ( 'NONE',  ( 0.000000000000000000, -0.6427876096865348110, 0.7660444431189817882 ) ) ;
#569 = FACE_OUTER_BOUND ( 'NONE', #789, .T. ) ;
#570 = EDGE_CURVE ( 'NONE', #904, #809, #804, .T. ) ;
#571 = FACE_OUTER_BOUND ( 'NONE', #536, .T. ) ;
#572 = CLOSED_SHELL ( 'NONE', ( #646, #749, #189, #400, #181, #11, #292, #719, #686, #113, #394, #864, #972, #253, #574, #851, #185, #819, #612, #895, #860, #939, #823, #672, #830, #143, #567, #959, #496, #792 ) ) ;
#573 = CIRCLE ( 'NONE', #734, 0.5000000000000001110 ) ;
#574 = ADVANCED_FACE ( 'NONE', ( #580 ), #50, .T. ) ;
#575 = LOCAL_TIME ( 17, 46, 1.000000000000000000, #552 ) ;
#576 = CARTESIAN_POINT ( 'NONE',  ( 2.000000000000000000, -2.411353091432040241, 7.500000000000000000 ) ) ;
#577 = DIRECTION ( 'NONE',  ( 0.000000000000000000, 0.7660444431189820103, 0.6427876096865345890 ) ) ;
#578 = CARTESIAN_POINT ( 'NONE',  ( 2.475184771795228666, -1.756858910460803891, 5.658475401991233333 ) ) ;
#579 = EDGE_CURVE ( 'NONE', #924, #12, #489, .T. ) ;
#580 = FACE_OUTER_BOUND ( 'NONE', #449, .T. ) ;
#581 = FACE_OUTER_BOUND ( 'NONE', #715, .T. ) ;
#582 = CARTESIAN_POINT ( 'NONE',  ( -2.131619456573681237, -2.286424160566181030, 5.567643639357870988 ) ) ;
#583 = VERTEX_POINT ( 'NONE', #590 ) ;
#584 = DIRECTION ( 'NONE',  ( 0.000000000000000000, 0.000000000000000000, -1.000000000000000000 ) ) ;
#585 = DIRECTION ( 'NONE',  ( 0.000000000000000000, 0.7660444431189821213, 0.6427876096865345890 ) ) ;
#586 = DIRECTION ( 'NONE',  ( -0.000000000000000000, -1.000000000000000000, -0.000000000000000000 ) ) ;
#587 = ORIENTED_EDGE ( 'NONE', *, *, #116, .F. ) ;
#588 = VECTOR ( 'NONE', #255, 1000.000000000000114 ) ;
#589 = AXIS2_PLACEMENT_3D ( 'NONE', #205, #134, #898 ) ;
#590 = CARTESIAN_POINT ( 'NONE',  ( 2.000000000000000000, -3.269287410156947349, 10.85603204684091949 ) ) ;
#591 = CARTESIAN_POINT ( 'NONE',  ( -2.000000000000000000, -2.886265188597457509, 11.17742585168418934 ) ) ;
#592 = CARTESIAN_POINT ( 'NONE',  ( -1.567618556413986841, -2.102838237931962340, 6.032069965846523552 ) ) ;
#593 = ORIENTED_EDGE ( 'NONE', *, *, #78, .T. ) ;
#594 = B_SPLINE_CURVE_WITH_KNOTS ( 'NONE', 3,
 ( #114, #960, #578, #664, #32, #52, #119, #883 ),
 .UNSPECIFIED., .F., .F.,
 ( 4, 2, 2, 4 ),
 ( 0.000000000000000000, 0.0003941166696822770996, 0.0007882333393645541992, 0.001576466678729106230 ),
 .UNSPECIFIED. ) ;
#595 = CARTESIAN_POINT ( 'NONE',  ( 0.000000000000000000, 0.2502433660971229434, 11.19845444444822391 ) ) ;
#596 = CARTESIAN_POINT ( 'NONE',  ( 1.347111479062088257E-16, -1.276645820128693209, 8.481294273172078846 ) ) ;
#597 = LINE ( 'NONE', #378, #124 ) ;
#598 = ORIENTED_EDGE ( 'NONE', *, *, #78, .F. ) ;
#599 = DIRECTION ( 'NONE',  ( -0.000000000000000000, 0.7660444431189813441, 0.6427876096865354771 ) ) ;
#600 = DIRECTION ( 'NONE',  ( -0.000000000000000000, -0.000000000000000000, -1.000000000000000000 ) ) ;
#601 = EDGE_LOOP ( 'NONE', ( #821, #961, #453, #709 ) ) ;
#602 = DIRECTION ( 'NONE',  ( 0.000000000000000000, -0.6427876096865359212, 0.7660444431189807890 ) ) ;
#603 = AXIS2_PLACEMENT_3D ( 'NONE', #140, #908, #621 ) ;
#604 = FACE_OUTER_BOUND ( 'NONE', #627, .T. ) ;
#605 = CARTESIAN_POINT ( 'NONE',  ( -1.738871526033373138, -2.071479384328018369, 6.037423373069977117 ) ) ;
#606 = AXIS2_PLACEMENT_3D ( 'NONE', #717, #107, #577 ) ;
#607 = CARTESIAN_POINT ( 'NONE',  ( 1.499999999999999334, 2.500000000000000000, 8.517298893531785708 ) ) ;
#608 = VERTEX_POINT ( 'NONE', #426 ) ;
#609 = CARTESIAN_POINT ( 'NONE',  ( 2.500000000000000000, 7.154117970315297725, 2.970737082051202016 ) ) ;
#610 = ORIENTED_EDGE ( 'NONE', *, *, #861, .T. ) ;
#611 = ORIENTED_EDGE ( 'NONE', *, *, #225, .F. ) ;
#612 = ADVANCED_FACE ( 'NONE', ( #129 ), #350, .T. ) ;
#613 = PRODUCT_RELATED_PRODUCT_CATEGORY ( 'detail', '', ( #678 ) ) ;
#614 = LINE ( 'NONE', #159, #460 ) ;
#615 = VERTEX_POINT ( 'NONE', #43 ) ;
#616 = DIRECTION ( 'NONE',  ( -0.000000000000000000, -0.000000000000000000, 1.000000000000000000 ) ) ;
#617 = EDGE_LOOP ( 'NONE', ( #711, #74, #530, #247 ) ) ;
#618 = EDGE_CURVE ( 'NONE', #608, #49, #203, .T. ) ;
#619 = LINE ( 'NONE', #858, #18 ) ;
#620 = ORIENTED_EDGE ( 'NONE', *, *, #900, .F. ) ;
#621 = DIRECTION ( 'NONE',  ( 4.336808689942017736E-16, 1.000000000000000000, 0.000000000000000000 ) ) ;
#622 = ORIENTED_EDGE ( 'NONE', *, *, #190, .F. ) ;
#623 = DIRECTION ( 'NONE',  ( -8.673617379884035472E-17, 1.000000000000000000, 0.000000000000000000 ) ) ;
#624 = ORIENTED_EDGE ( 'NONE', *, *, #532, .F. ) ;
#625 = FACE_BOUND ( 'NONE', #370, .T. ) ;
#626 = AXIS2_PLACEMENT_3D ( 'NONE', #442, #448, #756 ) ;
#627 = EDGE_LOOP ( 'NONE', ( #399, #917, #706, #309, #173, #610, #889, #234 ) ) ;
#628 = VECTOR ( 'NONE', #550, 1000.000000000000000 ) ;
#629 = AXIS2_PLACEMENT_3D ( 'NONE', #204, #984, #897 ) ;
#630 = CARTESIAN_POINT ( 'NONE',  ( 2.500000000000000000, -2.500000000000000000, 0.000000000000000000 ) ) ;
#631 = LINE ( 'NONE', #763, #927 ) ;
#632 = FACE_OUTER_BOUND ( 'NONE', #998, .T. ) ;
#633 = ORIENTED_EDGE ( 'NONE', *, *, #721, .F. ) ;
#634 = CARTESIAN_POINT ( 'NONE',  ( 2.500000000000000000, -1.727838272858009949, 6.164781855729291493 ) ) ;
#635 = ORIENTED_EDGE ( 'NONE', *, *, #258, .T. ) ;
#636 = AXIS2_PLACEMENT_3D ( 'NONE', #735, #896, #891 ) ;
#637 = LINE ( 'NONE', #795, #910 ) ;
#638 = CARTESIAN_POINT ( 'NONE',  ( 2.385195745666826017, -1.982455825956903617, 5.614523654385285667 ) ) ;
#639 = CARTESIAN_POINT ( 'NONE',  ( 2.500000000000000000, 1.500000000000000444, 9.709052486126008574 ) ) ;
#640 = EDGE_CURVE ( 'NONE', #382, #27, #439, .T. ) ;
#641 =( BOUNDED_SURFACE ( )  B_SPLINE_SURFACE ( 3, 2, ( 
 ( #95, #634, #941 ),
 ( #256, #643, #712 ),
 ( #20, #323, #171 ),
 ( #336, #562, #638 ),
 ( #949, #183, #484 ),
 ( #260, #870, #89 ),
 ( #180, #794, #481 ),
 ( #790, #330, #106 ),
 ( #417, #271, #731 ),
 ( #876, #340, #955 ) ),
 .UNSPECIFIED., .F., .F., .T. ) 
 B_SPLINE_SURFACE_WITH_KNOTS ( ( 4, 2, 2, 2, 4 ),
 ( 3, 3 ),
 ( -5.421010862427522170E-20, 0.0002022586939631023154, 0.0004045173879262046850, 0.0006067760818893070274, 0.0008090347758524093699 ),
 ( 0.000000000000000000, 1.000000000000000000 ),
 .UNSPECIFIED. ) 
 GEOMETRIC_REPRESENTATION_ITEM ( )  RATIONAL_B_SPLINE_SURFACE ( (
 ( 1.000000000000000000, 0.7071067811865474617, 1.000000000000000000),
 ( 1.000000000000000000, 0.7266093483694043842, 1.000000000000000000),
 ( 1.000000000000000000, 0.7416820712788729786, 1.000000000000000000),
 ( 1.000000000000000000, 0.7633585052468818688, 1.000000000000000000),
 ( 1.000000000000000000, 0.7696871930444469934, 1.000000000000000000),
 ( 1.000000000000000000, 0.7765472165077854649, 1.000000000000000000),
 ( 1.000000000000000000, 0.7771138504475919584, 1.000000000000000000),
 ( 1.000000000000000000, 0.7769964239124401706, 1.000000000000000000),
 ( 1.000000000000000000, 0.7763665182457383240, 1.000000000000000000),
 ( 1.000000000000000000, 0.7764266049395848190, 1.000000000000000000) ) ) 
 REPRESENTATION_ITEM ( '' )  SURFACE ( )  );
#642 = EDGE_CURVE ( 'NONE', #904, #924, #995, .T. ) ;
#643 = CARTESIAN_POINT ( 'NONE',  ( 2.473231512471012472, -1.818443404754785275, 6.118400007199451096 ) ) ;
#644 = COORDINATED_UNIVERSAL_TIME_OFFSET ( 8, 0, .AHEAD. ) ;
#645 = FACE_OUTER_BOUND ( 'NONE', #115, .T. ) ;
#646 = ADVANCED_FACE ( 'NONE', ( #432 ), #132, .F. ) ;
#647 = LINE ( 'NONE', #740, #164 ) ;
#648 = PERSON_AND_ORGANIZATION ( #128, #305 ) ;
#649 = CARTESIAN_POINT ( 'NONE',  ( -1.974379722743924592, -2.389961270460738252, 5.959914105554891428 ) ) ;
#650 = EDGE_CURVE ( 'NONE', #391, #161, #8, .T. ) ;
#651 = CIRCLE ( 'NONE', #946, 0.5000000000000004441 ) ;
#652 = AXIS2_PLACEMENT_3D ( 'NONE', #374, #440, #990 ) ;
#653 = AXIS2_PLACEMENT_3D ( 'NONE', #51, #663, #807 ) ;
#654 = DIRECTION ( 'NONE',  ( 1.000000000000000000, -0.000000000000000000, -0.000000000000000000 ) ) ;
#655 = CARTESIAN_POINT ( 'NONE',  ( 0.000000000000000000, -2.411353091432040241, 7.500000000000000000 ) ) ;
#656 = CARTESIAN_POINT ( 'NONE',  ( -1.635652241256046580, -2.092298051303651096, 6.034181238132998004 ) ) ;
#657 = VERTEX_POINT ( 'NONE', #826 ) ;
#658 = CARTESIAN_POINT ( 'NONE',  ( -2.500000000000000000, -1.035331853275945901, 12.73054333068618682 ) ) ;
#659 = DIRECTION ( 'NONE',  ( 0.000000000000000000, 0.000000000000000000, 1.000000000000000000 ) ) ;
#660 = CARTESIAN_POINT ( 'NONE',  ( -1.759516899123306333, -2.052334777243434605, 6.043453875996434910 ) ) ;
#661 = VERTEX_POINT ( 'NONE', #146 ) ;
#662 = CYLINDRICAL_SURFACE ( 'NONE', #344, 0.5000000000000004441 ) ;
#663 = DIRECTION ( 'NONE',  ( -0.000000000000000000, 0.7660444431189817882, 0.6427876096865350330 ) ) ;
#664 = CARTESIAN_POINT ( 'NONE',  ( 2.376865209120833544, -1.998065501774514141, 5.611743123487909379 ) ) ;
#665 = ORIENTED_EDGE ( 'NONE', *, *, #188, .T. ) ;
#666 = CC_DESIGN_PERSON_AND_ORGANIZATION_ASSIGNMENT ( #325, #775, ( #978 ) ) ;
#667 = AXIS2_PLACEMENT_3D ( 'NONE', #999, #387, #854 ) ;
#668 = CARTESIAN_POINT ( 'NONE',  ( -2.000000000000000444, -3.269287410156946905, 10.85603204684091949 ) ) ;
#669 = CARTESIAN_POINT ( 'NONE',  ( 2.500000000000000000, 0.8054072893322783422, 5.999999999999994671 ) ) ;
#670 = CARTESIAN_POINT ( 'NONE',  ( 2.500000000000000000, 1.500000000000000444, 9.709052486126008574 ) ) ;
#671 = ORIENTED_EDGE ( 'NONE', *, *, #324, .T. ) ;
#672 = ADVANCED_FACE ( 'NONE', ( #753 ), #138, .T. ) ;
#673 = CARTESIAN_POINT ( 'NONE',  ( 1.600000000000000089, 1.959434878635765230E-16, 5.000000000000000000 ) ) ;
#674 = FACE_OUTER_BOUND ( 'NONE', #781, .T. ) ;
#675 = EDGE_CURVE ( 'NONE', #83, #411, #223, .T. ) ;
#676 = DIRECTION ( 'NONE',  ( -0.000000000000000000, 0.000000000000000000, 1.000000000000000000 ) ) ;
#677 = VERTEX_POINT ( 'NONE', #514 ) ;
#678 = PRODUCT ( '\X2\753578c1652f67b6\X0\2v1.0.0', '\X2\753578c1652f67b6\X0\2v1.0.0', '', ( #26 ) ) ;
#679 = FACE_OUTER_BOUND ( 'NONE', #239, .T. ) ;
#680 = EDGE_CURVE ( 'NONE', #1002, #1006, #431, .T. ) ;
#681 = DIRECTION ( 'NONE',  ( 4.887868071420653132E-15, 0.6427876096865355882, -0.7660444431189813441 ) ) ;
#682 = DIRECTION ( 'NONE',  ( -0.000000000000000000, 0.000000000000000000, -1.000000000000000000 ) ) ;
#683 = CYLINDRICAL_SURFACE ( 'NONE', #911, 1.600000000000000089 ) ;
#684 = ORIENTED_EDGE ( 'NONE', *, *, #1001, .T. ) ;
#685 = CARTESIAN_POINT ( 'NONE',  ( -2.500000000000000000, -1.500000000000000444, 5.000000000000000000 ) ) ;
#686 = ADVANCED_FACE ( 'NONE', ( #914 ), #981, .F. ) ;
#687 = ORIENTED_EDGE ( 'NONE', *, *, #360, .F. ) ;
#688 = AXIS2_PLACEMENT_3D ( 'NONE', #150, #681, #210 ) ;
#689 = AXIS2_PLACEMENT_3D ( 'NONE', #745, #111, #419 ) ;
#690 = PLANE ( 'NONE',  #718 ) ;
#691 = DIRECTION ( 'NONE',  ( -1.000000000000000000, 0.000000000000000000, 0.000000000000000000 ) ) ;
#692 = ORIENTED_EDGE ( 'NONE', *, *, #466, .F. ) ;
#693 = DIRECTION ( 'NONE',  ( 0.000000000000000000, -0.7660444431189814551, -0.6427876096865355882 ) ) ;
#694 = ORIENTED_EDGE ( 'NONE', *, *, #538, .F. ) ;
#695 = DIRECTION ( 'NONE',  ( 1.000000000000000000, 0.000000000000000000, 0.000000000000000000 ) ) ;
#696 = VERTEX_POINT ( 'NONE', #300 ) ;
#697 = CARTESIAN_POINT ( 'NONE',  ( -2.500000000000000444, -1.629018788193699052, 5.686685977685083770 ) ) ;
#698 = ORIENTED_EDGE ( 'NONE', *, *, #547, .T. ) ;
#699 = CARTESIAN_POINT ( 'NONE',  ( -2.500000000000000000, -0.8792642051940764425, 8.785575219373070510 ) ) ;
#700 = CARTESIAN_POINT ( 'NONE',  ( 2.500000000000000000, 0.3151187188515178761, 7.362165078708538424 ) ) ;
#701 = APPROVAL_DATE_TIME ( #237, #890 ) ;
#702 = AXIS2_PLACEMENT_3D ( 'NONE', #72, #693, #932 ) ;
#703 = CARTESIAN_POINT ( 'NONE',  ( 0.000000000000000000, 0.000000000000000000, 5.000000000000000000 ) ) ;
#704 = CARTESIAN_POINT ( 'NONE',  ( -2.085786437626905077, 2.499999999999998224, 8.517298893531787485 ) ) ;
#705 = AXIS2_PLACEMENT_3D ( 'NONE', #772, #296, #316 ) ;
#706 = ORIENTED_EDGE ( 'NONE', *, *, #822, .F. ) ;
#707 = AXIS2_PLACEMENT_3D ( 'NONE', #228, #903, #691 ) ;
#708 = COORDINATED_UNIVERSAL_TIME_OFFSET ( 8, 0, .AHEAD. ) ;
#709 = ORIENTED_EDGE ( 'NONE', *, *, #261, .F. ) ;
#710 = CARTESIAN_POINT ( 'NONE',  ( -2.000000000000000444, -1.262286426753566948, 8.464181414529802439 ) ) ;
#711 = ORIENTED_EDGE ( 'NONE', *, *, #900, .T. ) ;
#712 = CARTESIAN_POINT ( 'NONE',  ( 2.500000000000000000, -1.620762029973781049, 5.688799356753555081 ) ) ;
#713 = CARTESIAN_POINT ( 'NONE',  ( 1.500000000000000000, -1.500000000000000000, 0.000000000000000000 ) ) ;
#714 = APPROVAL ( #98, 'æœª' ) ;
#715 = EDGE_LOOP ( 'NONE', ( #285, #857, #461, #19 ) ) ;
#716 = PLANE ( 'NONE',  #91 ) ;
#717 = CARTESIAN_POINT ( 'NONE',  ( 2.000000000000000000, 0.3151187188515178761, 7.362165078708538424 ) ) ;
#718 = AXIS2_PLACEMENT_3D ( 'NONE', #9, #82, #997 ) ;
#719 = ADVANCED_FACE ( 'NONE', ( #840 ), #683, .F. ) ;
#720 = AXIS2_PLACEMENT_3D ( 'NONE', #576, #881, #196 ) ;
#721 = EDGE_CURVE ( 'NONE', #556, #307, #553, .T. ) ;
#722 = CC_DESIGN_APPROVAL ( #69, ( #102 ) ) ;
#723 = ORIENTED_EDGE ( 'NONE', *, *, #41, .T. ) ;
#724 = CARTESIAN_POINT ( 'NONE',  ( -1.500000000000000000, -2.102838272858010171, 6.032069958506117047 ) ) ;
#725 = APPROVAL_STATUS ( 'not_yet_approved' ) ;
#726 = EDGE_CURVE ( 'NONE', #219, #391, #597, .T. ) ;
#727 = CARTESIAN_POINT ( 'NONE',  ( 0.000000000000000000, 0.000000000000000000, 0.000000000000000000 ) ) ;
#728 = CARTESIAN_POINT ( 'NONE',  ( -2.500000000000000000, 7.154117970315297725, 2.970737082051202016 ) ) ;
#729 = CARTESIAN_POINT ( 'NONE',  ( -1.500000000000000000, -2.102838272858010615, 6.032069958506117047 ) ) ;
#730 = ORIENTED_EDGE ( 'NONE', *, *, #721, .T. ) ;
#731 = CARTESIAN_POINT ( 'NONE',  ( 1.636876307829221000, -2.500000000000000000, 5.542759950524931867 ) ) ;
#732 = CARTESIAN_POINT ( 'NONE',  ( -1.500000000000000000, -2.500000000000000444, 5.948598488660684858 ) ) ;
#733 = AXIS2_PLACEMENT_3D ( 'NONE', #771, #695, #1004 ) ;
#734 = AXIS2_PLACEMENT_3D ( 'NONE', #859, #796, #10 ) ;
#735 = CARTESIAN_POINT ( 'NONE',  ( -2.000000000000000000, -6.696343067895817569, 7.980390908408253381 ) ) ;
#736 = CARTESIAN_POINT ( 'NONE',  ( 1.500000000000000000, -2.500000000000000000, 5.542759944674822137 ) ) ;
#737 = CYLINDRICAL_SURFACE ( 'NONE', #415, 1.000000000000000000 ) ;
#738 = VERTEX_POINT ( 'NONE', #153 ) ;
#739 = B_SPLINE_CURVE_WITH_KNOTS ( 'NONE', 3,
 ( #454, #371, #987, #220, #837, #523, #308, #465, #697, #762 ),
 .UNSPECIFIED., .F., .F.,
 ( 4, 2, 2, 2, 4 ),
 ( 0.000000000000000000, 0.0003942113050018630641, 0.0007884226100037261282, 0.001182633915005589084, 0.001576845220007452907 ),
 .UNSPECIFIED. ) ;
#740 = CARTESIAN_POINT ( 'NONE',  ( 2.500000000000000000, -1.500000000000000000, 5.000000000000000000 ) ) ;
#741 = PLANE ( 'NONE',  #931 ) ;
#742 = CARTESIAN_POINT ( 'NONE',  ( -1.942538583429223698, -1.908763592654821428, 6.085901735132803303 ) ) ;
#743 = EDGE_LOOP ( 'NONE', ( #993, #99, #314, #409 ) ) ;
#744 = CC_DESIGN_DATE_AND_TIME_ASSIGNMENT ( #197, #422, ( #102 ) ) ;
#745 = CARTESIAN_POINT ( 'NONE',  ( 0.000000000000000000, -7.517866080806710372, 4.680236672606541859 ) ) ;
#746 = CARTESIAN_POINT ( 'NONE',  ( 1.500000000000000000, -2.500000000000000000, 5.000000000000000000 ) ) ;
#747 = CARTESIAN_POINT ( 'NONE',  ( -2.477595446284479141, -1.745852935241446913, 5.660864561170058096 ) ) ;
#748 = ORIENTED_EDGE ( 'NONE', *, *, #532, .T. ) ;
#749 = ADVANCED_FACE ( 'NONE', ( #364 ), #521, .F. ) ;
#750 = EDGE_CURVE ( 'NONE', #827, #738, #526, .T. ) ;
#751 = FACE_BOUND ( 'NONE', #274, .T. ) ;
#752 = DIRECTION ( 'NONE',  ( -1.000000000000000000, 0.000000000000000000, 0.000000000000000000 ) ) ;
#753 = FACE_OUTER_BOUND ( 'NONE', #365, .T. ) ;
#754 = VERTEX_POINT ( 'NONE', #70 ) ;
#755 = EDGE_CURVE ( 'NONE', #948, #393, #321, .T. ) ;
#756 = DIRECTION ( 'NONE',  ( 0.000000000000000000, 0.7660444431189809000, 0.6427876096865358102 ) ) ;
#757 = FACE_OUTER_BOUND ( 'NONE', #982, .T. ) ;
#758 = EDGE_CURVE ( 'NONE', #49, #202, #788, .T. ) ;
#759 = DIRECTION ( 'NONE',  ( 0.000000000000000000, 0.6427876096865341449, -0.7660444431189825654 ) ) ;
#760 = DIRECTION ( 'NONE',  ( 3.860390434027641687E-16, -0.8901454295138048201, -0.4556765457160199539 ) ) ;
#761 = ORIENTED_EDGE ( 'NONE', *, *, #968, .F. ) ;
#762 = CARTESIAN_POINT ( 'NONE',  ( -2.500000000000000000, -1.500000000000000444, 5.719709140972390138 ) ) ;
#763 = CARTESIAN_POINT ( 'NONE',  ( -2.000000000000000000, -3.590681215000215865, 11.23905426840041244 ) ) ;
#764 = CARTESIAN_POINT ( 'NONE',  ( -2.000000000000000444, -1.500000000000000222, 5.719709140972390138 ) ) ;
#765 = ORIENTED_EDGE ( 'NONE', *, *, #813, .T. ) ;
#766 = CARTESIAN_POINT ( 'NONE',  ( -2.500000000000000000, 7.154117970315297725, 2.970737082051202016 ) ) ;
#767 = EDGE_LOOP ( 'NONE', ( #397, #87, #60, #301 ) ) ;
#768 = PERSON_AND_ORGANIZATION_ROLE ( 'classification_officer' ) ;
#769 = AXIS2_PLACEMENT_3D ( 'NONE', #322, #299, #68 ) ;
#770 = AXIS2_PLACEMENT_3D ( 'NONE', #727, #329, #835 ) ;
#771 = CARTESIAN_POINT ( 'NONE',  ( 2.000000000000000000, -2.886265188597457065, 11.17742585168418934 ) ) ;
#772 = CARTESIAN_POINT ( 'NONE',  ( 0.000000000000000000, 0.000000000000000000, 5.000000000000000000 ) ) ;
#773 = VERTEX_POINT ( 'NONE', #506 ) ;
#774 = EDGE_LOOP ( 'NONE', ( #317, #507, #841, #967 ) ) ;
#775 = PERSON_AND_ORGANIZATION_ROLE ( 'design_supplier' ) ;
#776 = CARTESIAN_POINT ( 'NONE',  ( -2.000000000000000888, -1.781149805904347350, 6.137491017154020234 ) ) ;
#777 = ORIENTED_EDGE ( 'NONE', *, *, #428, .T. ) ;
#778 = DIRECTION ( 'NONE',  ( 0.000000000000000000, 0.6427876096865354771, -0.7660444431189812331 ) ) ;
#779 = ORIENTED_EDGE ( 'NONE', *, *, #618, .F. ) ;
#780 = APPROVAL_STATUS ( 'not_yet_approved' ) ;
#781 = EDGE_LOOP ( 'NONE', ( #593, #15, #53 ) ) ;
#782 = FACE_OUTER_BOUND ( 'NONE', #743, .T. ) ;
#783 = CARTESIAN_POINT ( 'NONE',  ( -2.500000000000000000, -1.500000000000000444, 0.000000000000000000 ) ) ;
#784 = EDGE_CURVE ( 'NONE', #85, #921, #594, .T. ) ;
#785 = VECTOR ( 'NONE', #565, 1000.000000000000114 ) ;
#786 = ORIENTED_EDGE ( 'NONE', *, *, #539, .F. ) ;
#787 = FACE_OUTER_BOUND ( 'NONE', #601, .T. ) ;
#788 = CIRCLE ( 'NONE', #268, 0.5000000000000006661 ) ;
#789 = EDGE_LOOP ( 'NONE', ( #855, #698, #786, #209, #222, #232 ) ) ;
#790 = CARTESIAN_POINT ( 'NONE',  ( 1.636306628085805848, -2.092142511580325603, 6.034215164004552712 ) ) ;
#791 = DIRECTION ( 'NONE',  ( 1.000000000000000000, 0.000000000000000000, 0.000000000000000000 ) ) ;
#792 = ADVANCED_FACE ( 'NONE', ( #645 ), #21, .T. ) ;
#793 = EDGE_LOOP ( 'NONE', ( #836, #326, #214, #502 ) ) ;
#794 = CARTESIAN_POINT ( 'NONE',  ( 1.974891055727528100, -2.389649300935060339, 5.959955362570034332 ) ) ;
#795 = CARTESIAN_POINT ( 'NONE',  ( 2.000000000000000000, 0.8054072893322783422, 5.999999999999994671 ) ) ;
#796 = DIRECTION ( 'NONE',  ( 0.000000000000000000, 0.6427876096865360322, -0.7660444431189810111 ) ) ;
#797 = CIRCLE ( 'NONE', #626, 0.5000000000000002220 ) ;
#798 = AXIS2_PLACEMENT_3D ( 'NONE', #591, #433, #659 ) ;
#799 = APPROVAL_PERSON_ORGANIZATION ( #482, #69, #338 ) ;
#800 = DIRECTION ( 'NONE',  ( -0.000000000000000000, 0.000000000000000000, -1.000000000000000000 ) ) ;
#801 = COORDINATED_UNIVERSAL_TIME_OFFSET ( 8, 0, .AHEAD. ) ;
#802 = CARTESIAN_POINT ( 'NONE',  ( -2.322234930094884575, -2.091634497885579425, 6.019323500503005242 ) ) ;
#803 = ORIENTED_EDGE ( 'NONE', *, *, #408, .F. ) ;
#804 = LINE ( 'NONE', #262, #871 ) ;
#805 = CARTESIAN_POINT ( 'NONE',  ( 2.500000000000000000, -1.500000000000000000, 0.000000000000000000 ) ) ;
#806 = CARTESIAN_POINT ( 'NONE',  ( 0.000000000000000000, -8.224932451461899774, 5.522885560037420483 ) ) ;
#807 = DIRECTION ( 'NONE',  ( 0.000000000000000000, -0.6427876096865348110, 0.7660444431189817882 ) ) ;
#808 = CARTESIAN_POINT ( 'NONE',  ( -2.473311933257941853, -1.818171220903830099, 6.118539336775020487 ) ) ;
#809 = VERTEX_POINT ( 'NONE', #427 ) ;
#810 = AXIS2_PLACEMENT_3D ( 'NONE', #850, #170, #311 ) ;
#811 = VECTOR ( 'NONE', #452, 1000.000000000000000 ) ;
#812 = AXIS2_PLACEMENT_3D ( 'NONE', #122, #877, #112 ) ;
#813 = EDGE_CURVE ( 'NONE', #349, #474, #831, .T. ) ;
#814 = LINE ( 'NONE', #30, #176 ) ;
#815 = FACE_OUTER_BOUND ( 'NONE', #767, .T. ) ;
#816 = DIRECTION ( 'NONE',  ( -1.000000000000000000, 0.000000000000000000, 0.000000000000000000 ) ) ;
#817 = CARTESIAN_POINT ( 'NONE',  ( 0.000000000000000000, -1.983712190783880391, 9.323943160602958358 ) ) ;
#818 = LINE ( 'NONE', #746, #479 ) ;
#819 = ADVANCED_FACE ( 'NONE', ( #348 ), #737, .T. ) ;
#820 = DIRECTION ( 'NONE',  ( 3.469446951953609456E-15, 0.6427876096865347000, -0.7660444431189818992 ) ) ;
#821 = ORIENTED_EDGE ( 'NONE', *, *, #286, .T. ) ;
#822 = EDGE_CURVE ( 'NONE', #382, #483, #423, .T. ) ;
#823 = ADVANCED_FACE ( 'NONE', ( #342 ), #497, .T. ) ;
#824 = DIRECTION ( 'NONE',  ( 1.000000000000000000, 0.000000000000000000, -0.000000000000000000 ) ) ;
#825 = DIRECTION ( 'NONE',  ( 0.000000000000000000, 0.6427876096865350330, -0.7660444431189817882 ) ) ;
#826 = CARTESIAN_POINT ( 'NONE',  ( 1.499999999999999778, 2.500000000000000000, 0.000000000000000000 ) ) ;
#827 = VERTEX_POINT ( 'NONE', #805 ) ;
#828 = LINE ( 'NONE', #246, #942 ) ;
#829 = VECTOR ( 'NONE', #616, 1000.000000000000000 ) ;
#830 = ADVANCED_FACE ( 'NONE', ( #571 ), #953, .T. ) ;
#831 = CIRCLE ( 'NONE', #589, 0.5000000000000006661 ) ;
#832 = DIRECTION ( 'NONE',  ( 0.000000000000000000, 0.000000000000000000, -1.000000000000000000 ) ) ;
#833 = AXIS2_PLACEMENT_3D ( 'NONE', #655, #563, #413 ) ;
#834 = DIRECTION ( 'NONE',  ( 0.000000000000000000, -0.7660444431189811221, -0.6427876096865354771 ) ) ;
#835 = DIRECTION ( 'NONE',  ( 1.000000000000000000, 0.000000000000000000, 0.000000000000000000 ) ) ;
#836 = ORIENTED_EDGE ( 'NONE', *, *, #642, .F. ) ;
#837 = CARTESIAN_POINT ( 'NONE',  ( -2.119088348656594789, -2.296143163199814818, 5.566379218390719252 ) ) ;
#838 = CARTESIAN_POINT ( 'NONE',  ( -2.500000000000000000, 1.499999999999998668, 5.000000000000000000 ) ) ;
#839 = CARTESIAN_POINT ( 'NONE',  ( -1.500000000000000000, -2.500000000000000444, 5.000000000000000000 ) ) ;
#840 = FACE_OUTER_BOUND ( 'NONE', #178, .T. ) ;
#841 = ORIENTED_EDGE ( 'NONE', *, *, #675, .F. ) ;
#842 = DIRECTION ( 'NONE',  ( 1.734723475976807094E-16, -1.000000000000000000, 0.000000000000000000 ) ) ;
#843 = ORIENTED_EDGE ( 'NONE', *, *, #1, .F. ) ;
#844 = CARTESIAN_POINT ( 'NONE',  ( -1.600000000000000089, 0.000000000000000000, 5.000000000000000000 ) ) ;
#845 = CARTESIAN_POINT ( 'NONE',  ( 1.500000000000000000, -2.102838272858010171, 6.032069958506117047 ) ) ;
#846 = ORIENTED_EDGE ( 'NONE', *, *, #867, .T. ) ;
#847 = APPROVAL_DATE_TIME ( #6, #714 ) ;
#848 = CIRCLE ( 'NONE', #37, 1.000000000000000000 ) ;
#849 = AXIS2_PLACEMENT_3D ( 'NONE', #429, #800, #206 ) ;
#850 = CARTESIAN_POINT ( 'NONE',  ( 2.500000000000000000, -2.500000000000000000, 5.000000000000000000 ) ) ;
#851 = ADVANCED_FACE ( 'NONE', ( #44 ), #207, .T. ) ;
#852 = CIRCLE ( 'NONE', #653, 1.100000000000000311 ) ;
#853 = ORIENTED_EDGE ( 'NONE', *, *, #758, .T. ) ;
#854 = DIRECTION ( 'NONE',  ( 0.000000000000000000, 0.6427876096865378086, -0.7660444431189792347 ) ) ;
#855 = ORIENTED_EDGE ( 'NONE', *, *, #261, .T. ) ;
#856 = APPROVAL_ROLE ( '' ) ;
#857 = ORIENTED_EDGE ( 'NONE', *, *, #5, .F. ) ;
#858 = CARTESIAN_POINT ( 'NONE',  ( 2.000000000000000000, -1.356725658119213529, 13.11356555224567799 ) ) ;
#859 = CARTESIAN_POINT ( 'NONE',  ( 2.000000000000000000, -0.8792642051940768866, 8.785575219373070510 ) ) ;
#860 = ADVANCED_FACE ( 'NONE', ( #674 ), #130, .T. ) ;
#861 = EDGE_CURVE ( 'NONE', #657, #738, #38, .T. ) ;
#862 = SHAPE_DEFINITION_REPRESENTATION ( #22, #531 ) ;
#863 = CARTESIAN_POINT ( 'NONE',  ( -2.000000000000000000, -1.035331853275947678, 12.73054333068618504 ) ) ;
#864 = ADVANCED_FACE ( 'NONE', ( #513, #815 ), #741, .F. ) ;
#865 = ORIENTED_EDGE ( 'NONE', *, *, #726, .T. ) ;
#866 = DIRECTION ( 'NONE',  ( 0.000000000000000000, -0.6427876096865388078, 0.7660444431189784575 ) ) ;
#867 = EDGE_CURVE ( 'NONE', #411, #45, #93, .T. ) ;
#868 = CIRCLE ( 'NONE', #488, 0.5000000000000002220 ) ;
#869 = VERTEX_POINT ( 'NONE', #58 ) ;
#870 = CARTESIAN_POINT ( 'NONE',  ( 2.078065589126802504, -2.326387890543967440, 5.968282192253600016 ) ) ;
#871 = VECTOR ( 'NONE', #117, 1000.000000000000114 ) ;
#872 = ORIENTED_EDGE ( 'NONE', *, *, #750, .T. ) ;
#873 = CARTESIAN_POINT ( 'NONE',  ( 2.500000000000000000, -1.035331853275945901, 12.73054333068618504 ) ) ;
#874 = ORIENTED_EDGE ( 'NONE', *, *, #215, .F. ) ;
#875 = DIRECTION ( 'NONE',  ( 1.000000000000000000, 0.000000000000000000, 0.000000000000000000 ) ) ;
#876 = CARTESIAN_POINT ( 'NONE',  ( 1.500000000000000000, -2.102838272858010171, 6.032069958506117047 ) ) ;
#877 = DIRECTION ( 'NONE',  ( 1.000000000000000000, 0.000000000000000000, 0.000000000000000000 ) ) ;
#878 = AXIS2_PLACEMENT_3D ( 'NONE', #84, #459, #77 ) ;
#879 = CARTESIAN_POINT ( 'NONE',  ( -1.747998857254673855, -2.476489681084331984, 5.950239115414823310 ) ) ;
#880 = VECTOR ( 'NONE', #174, 1000.000000000000000 ) ;
#881 = DIRECTION ( 'NONE',  ( 1.000000000000000000, -0.000000000000000000, -0.000000000000000000 ) ) ;
#882 = LINE ( 'NONE', #36, #443 ) ;
#883 = CARTESIAN_POINT ( 'NONE',  ( 1.500000000000000000, -2.500000000000000000, 5.542759944674822137 ) ) ;
#884 = ORIENTED_EDGE ( 'NONE', *, *, #151, .F. ) ;
#885 = DESIGN_CONTEXT ( 'detailed design', #179, 'design' ) ;
#886 = DIRECTION ( 'NONE',  ( 0.000000000000000000, 0.000000000000000000, -1.000000000000000000 ) ) ;
#887 = APPLICATION_PROTOCOL_DEFINITION ( 'international standard', 'config_control_design', 1994, #179 ) ;
#888 = CARTESIAN_POINT ( 'NONE',  ( -2.432846013211508396, -1.913345059021175576, 6.078928072248172221 ) ) ;
#889 = ORIENTED_EDGE ( 'NONE', *, *, #750, .F. ) ;
#890 = APPROVAL ( #780, 'æœª' ) ;
#891 = DIRECTION ( 'NONE',  ( 0.000000000000000000, -0.6427876096865351441, 0.7660444431189816772 ) ) ;
#892 = DIRECTION ( 'NONE',  ( 0.000000000000000000, 0.000000000000000000, -1.000000000000000000 ) ) ;
#893 = ORIENTED_EDGE ( 'NONE', *, *, #618, .T. ) ;
#894 = UNCERTAINTY_MEASURE_WITH_UNIT (LENGTH_MEASURE( 1.000000000000000082E-05 ), #187, 'distance_accuracy_value', 'NONE');
#895 = ADVANCED_FACE ( 'NONE', ( #509 ), #276, .T. ) ;
#896 = DIRECTION ( 'NONE',  ( -0.000000000000000000, 0.7660444431189812331, 0.6427876096865355882 ) ) ;
#897 = DIRECTION ( 'NONE',  ( 1.000000000000000000, 0.000000000000000000, 0.000000000000000000 ) ) ;
#898 = DIRECTION ( 'NONE',  ( 4.336808689942012214E-15, 0.6427876096865347000, -0.7660444431189818992 ) ) ;
#899 = ORIENTED_EDGE ( 'NONE', *, *, #358, .T. ) ;
#900 = EDGE_CURVE ( 'NONE', #393, #921, #818, .T. ) ;
#901 = DIRECTION ( 'NONE',  ( 1.000000000000000000, 4.336808689942014285E-16, -3.520088248542612898E-16 ) ) ;
#902 = LINE ( 'NONE', #211, #224 ) ;
#903 = DIRECTION ( 'NONE',  ( -0.000000000000000000, -0.000000000000000000, -1.000000000000000000 ) ) ;
#904 = VERTEX_POINT ( 'NONE', #596 ) ;
#905 = CARTESIAN_POINT ( 'NONE',  ( 2.500000000000000000, -2.411353091432040241, 7.500000000000000000 ) ) ;
#906 = DIRECTION ( 'NONE',  ( -0.000000000000000000, -0.000000000000000000, -1.000000000000000000 ) ) ;
#907 = ORIENTED_EDGE ( 'NONE', *, *, #190, .T. ) ;
#908 = DIRECTION ( 'NONE',  ( 1.000000000000000000, -4.336808689942017736E-16, 3.520088248542611912E-16 ) ) ;
#909 = EDGE_LOOP ( 'NONE', ( #624, #940, #620, #761 ) ) ;
#910 = VECTOR ( 'NONE', #105, 1000.000000000000114 ) ;
#911 = AXIS2_PLACEMENT_3D ( 'NONE', #248, #600, #59 ) ;
#912 = LINE ( 'NONE', #838, #976 ) ;
#913 = DIRECTION ( 'NONE',  ( 1.000000000000000000, 0.000000000000000000, 0.000000000000000000 ) ) ;
#914 = FACE_OUTER_BOUND ( 'NONE', #249, .T. ) ;
#915 = ORIENTED_EDGE ( 'NONE', *, *, #675, .T. ) ;
#916 = LINE ( 'NONE', #685, #829 ) ;
#917 = ORIENTED_EDGE ( 'NONE', *, *, #110, .T. ) ;
#918 = DIRECTION ( 'NONE',  ( -0.000000000000000000, -0.7660444431189811221, -0.6427876096865354771 ) ) ;
#919 = ORIENTED_EDGE ( 'NONE', *, *, #216, .T. ) ;
#920 = CARTESIAN_POINT ( 'NONE',  ( 1.618940704619547866, -2.102838272858010171, 6.032069958506117935 ) ) ;
#921 = VERTEX_POINT ( 'NONE', #736 ) ;
#922 = CC_DESIGN_PERSON_AND_ORGANIZATION_ASSIGNMENT ( #648, #495, ( #102 ) ) ;
#923 = DIRECTION ( 'NONE',  ( 0.000000000000000000, 0.7660444431189811221, 0.6427876096865354771 ) ) ;
#924 = VERTEX_POINT ( 'NONE', #355 ) ;
#925 = DIRECTION ( 'NONE',  ( 0.000000000000000000, -0.7660444431189813441, -0.6427876096865355882 ) ) ;
#926 = ORIENTED_EDGE ( 'NONE', *, *, #822, .T. ) ;
#927 = VECTOR ( 'NONE', #834, 1000.000000000000114 ) ;
#928 = EDGE_CURVE ( 'NONE', #924, #904, #852, .T. ) ;
#929 = VECTOR ( 'NONE', #654, 1000.000000000000000 ) ;
#930 = DIRECTION ( 'NONE',  ( 0.000000000000000000, -0.4556765457160200095, 0.8901454295138049311 ) ) ;
#931 = AXIS2_PLACEMENT_3D ( 'NONE', #669, #351, #980 ) ;
#932 = DIRECTION ( 'NONE',  ( 0.000000000000000000, 0.6427876096865352551, -0.7660444431189815662 ) ) ;
#933 = EDGE_CURVE ( 'NONE', #149, #161, #902, .T. ) ;
#934 = ORIENTED_EDGE ( 'NONE', *, *, #258, .F. ) ;
#935 = EDGE_CURVE ( 'NONE', #583, #564, #437, .T. ) ;
#936 = DIRECTION ( 'NONE',  ( 1.000000000000000000, 8.673617379884035472E-17, -0.000000000000000000 ) ) ;
#937 = CARTESIAN_POINT ( 'NONE',  ( -1.883855889769405989, -1.973059202628378195, 6.065057632291870782 ) ) ;
#938 = DIRECTION ( 'NONE',  ( 0.000000000000000000, 0.000000000000000000, -1.000000000000000000 ) ) ;
#939 = ADVANCED_FACE ( 'NONE', ( #500 ), #56, .T. ) ;
#940 = ORIENTED_EDGE ( 'NONE', *, *, #784, .T. ) ;
#941 = CARTESIAN_POINT ( 'NONE',  ( 2.500000000000000000, -1.500000000000000000, 5.719709140972390138 ) ) ;
#942 = VECTOR ( 'NONE', #3, 1000.000000000000114 ) ;
#943 = CARTESIAN_POINT ( 'NONE',  ( -2.000000000000000444, 0.8054072893322783422, 5.999999999999994671 ) ) ;
#944 = DIRECTION ( 'NONE',  ( 0.000000000000000000, -0.7660444431189780135, -0.6427876096865392519 ) ) ;
#945 = CYLINDRICAL_SURFACE ( 'NONE', #833, 1.499999999999999556 ) ;
#946 = AXIS2_PLACEMENT_3D ( 'NONE', #477, #875, #938 ) ;
#947 = SECURITY_CLASSIFICATION ( '', '', #1003 ) ;
#948 = VERTEX_POINT ( 'NONE', #281 ) ;
#949 = CARTESIAN_POINT ( 'NONE',  ( 1.907548720742827664, -1.950703570321342673, 6.071991066248422442 ) ) ;
#950 = CARTESIAN_POINT ( 'NONE',  ( 1.499999999999999334, 2.500000000000000000, 8.517298893531785708 ) ) ;
#951 = CARTESIAN_POINT ( 'NONE',  ( -2.500000000000000000, -2.500000000000000444, 5.000000000000000000 ) ) ;
#952 = CALENDAR_DATE ( 2026, 24, 5 ) ;
#953 =( BOUNDED_SURFACE ( )  B_SPLINE_SURFACE ( 3, 2, ( 
 ( #729, #732, #284 ),
 ( #592, #48, #195 ),
 ( #656, #879, #966 ),
 ( #660, #649, #491 ),
 ( #273, #510, #582 ),
 ( #269, #434, #131 ),
 ( #742, #802, #420 ),
 ( #501, #888, #747 ),
 ( #201, #808, #125 ),
 ( #352, #356, #362 ) ),
 .UNSPECIFIED., .F., .F., .T. ) 
 B_SPLINE_SURFACE_WITH_KNOTS ( ( 4, 2, 2, 2, 4 ),
 ( 3, 3 ),
 ( -2.710505431213761085E-20, 0.0002022830045433108106, 0.0004045660090866216754, 0.0006068490136299324860, 0.0008091320181732433508 ),
 ( 0.000000000000000000, 1.000000000000000000 ),
 .UNSPECIFIED. ) 
 GEOMETRIC_REPRESENTATION_ITEM ( )  RATIONAL_B_SPLINE_SURFACE ( (
 ( 1.000000000000000000, 0.7764266049395848190, 1.000000000000000000),
 ( 1.000000000000000000, 0.7763635247468284595, 1.000000000000000000),
 ( 1.000000000000000000, 0.7769925069537153561, 1.000000000000000000),
 ( 1.000000000000000000, 0.7771168550430167521, 1.000000000000000000),
 ( 1.000000000000000000, 0.7765422718137525715, 1.000000000000000000),
 ( 1.000000000000000000, 0.7697496463394087884, 1.000000000000000000),
 ( 1.000000000000000000, 0.7633432479864863396, 1.000000000000000000),
 ( 1.000000000000000000, 0.7418385392526960498, 1.000000000000000000),
 ( 1.000000000000000000, 0.7265924681385456108, 1.000000000000000000),
 ( 1.000000000000000000, 0.7071067811865475727, 1.000000000000000000) ) ) 
 REPRESENTATION_ITEM ( '' )  SURFACE ( )  );
#954 = CARTESIAN_POINT ( 'NONE',  ( 2.500000000000000000, -2.886265188597457065, 11.17742585168418756 ) ) ;
#955 = CARTESIAN_POINT ( 'NONE',  ( 1.500000000000000444, -2.500000000000000000, 5.542759944674822137 ) ) ;
#956 = DIRECTION ( 'NONE',  ( -0.000000000000000000, -0.6427876096865354771, 0.7660444431189812331 ) ) ;
#957 = AXIS2_PLACEMENT_3D ( 'NONE', #372, #517, #824 ) ;
#958 = AXIS2_PLACEMENT_3D ( 'NONE', #817, #504, #568 ) ;
#959 = ADVANCED_FACE ( 'NONE', ( #581 ), #346, .T. ) ;
#960 = CARTESIAN_POINT ( 'NONE',  ( 2.500000000000000000, -1.629090678754694377, 5.686667576847747263 ) ) ;
#961 = ORIENTED_EDGE ( 'NONE', *, *, #784, .F. ) ;
#962 =( GEOMETRIC_REPRESENTATION_CONTEXT ( 3 ) GLOBAL_UNCERTAINTY_ASSIGNED_CONTEXT ( ( #894 ) ) GLOBAL_UNIT_ASSIGNED_CONTEXT ( ( #187, #331, #31 ) ) REPRESENTATION_CONTEXT ( 'NONE', 'WORKASPACE' ) );
#963 = CARTESIAN_POINT ( 'NONE',  ( -2.000000000000000000, -3.207658993440726469, 11.56044807324367873 ) ) ;
#964 = PERSON_AND_ORGANIZATION ( #128, #305 ) ;
#965 = APPLICATION_CONTEXT ( 'configuration controlled 3d designs of mechanical parts and assemblies' ) ;
#966 = CARTESIAN_POINT ( 'NONE',  ( -1.771304494777289573, -2.471892765477968545, 5.545574972206156694 ) ) ;
#967 = ORIENTED_EDGE ( 'NONE', *, *, #328, .F. ) ;
#968 = EDGE_CURVE ( 'NONE', #827, #393, #243, .T. ) ;
#969 = DIRECTION ( 'NONE',  ( -0.000000000000000000, 0.7660444431189811221, 0.6427876096865354771 ) ) ;
#970 = CARTESIAN_POINT ( 'NONE',  ( 1.500000000000000000, -1.500000000000000000, 5.000000000000000000 ) ) ;
#971 = CARTESIAN_POINT ( 'NONE',  ( -1.500000000000000000, 1.499999999999998668, 5.000000000000000000 ) ) ;
#972 = ADVANCED_FACE ( 'NONE', ( #569 ), #945, .F. ) ;
#973 = DIRECTION ( 'NONE',  ( 0.000000000000000000, 0.000000000000000000, 1.000000000000000000 ) ) ;
#974 = CARTESIAN_POINT ( 'NONE',  ( -2.500000000000000000, -3.269287410156946905, 10.85603204684091949 ) ) ;
#975 = CARTESIAN_POINT ( 'NONE',  ( 2.000000000000000000, -2.411353091432040241, 7.500000000000000000 ) ) ;
#976 = VECTOR ( 'NONE', #57, 1000.000000000000000 ) ;
#977 = VECTOR ( 'NONE', #586, 1000.000000000000000 ) ;
#978 = PRODUCT_DEFINITION_FORMATION_WITH_SPECIFIED_SOURCE ( 'ä»', '', #678, .NOT_KNOWN. ) ;
#979 = DIRECTION ( 'NONE',  ( -1.000000000000000000, 0.000000000000000000, 0.000000000000000000 ) ) ;
#980 = DIRECTION ( 'NONE',  ( 0.000000000000000000, -0.6427876096865349220, 0.7660444431189816772 ) ) ;
#981 = PLANE ( 'NONE',  #283 ) ;
#982 = EDGE_LOOP ( 'NONE', ( #278, #67, #435, #339 ) ) ;
#983 = CYLINDRICAL_SURFACE ( 'NONE', #265, 1.000000000000000000 ) ;
#984 = DIRECTION ( 'NONE',  ( -0.000000000000000000, 0.000000000000000000, -1.000000000000000000 ) ) ;
#985 = DIRECTION ( 'NONE',  ( 1.000000000000000000, -0.000000000000000000, -0.000000000000000000 ) ) ;
#986 = ORIENTED_EDGE ( 'NONE', *, *, #289, .F. ) ;
#987 = CARTESIAN_POINT ( 'NONE',  ( -1.764202595111463934, -2.473448102346079924, 5.545422621856840983 ) ) ;
#988 = DIRECTION ( 'NONE',  ( -4.336808689942017736E-16, 1.000000000000000000, 0.000000000000000000 ) ) ;
#989 = LINE ( 'NONE', #839, #381 ) ;
#990 = DIRECTION ( 'NONE',  ( 0.000000000000000000, 0.6427876096865358102, -0.7660444431189809000 ) ) ;
#991 = ORIENTED_EDGE ( 'NONE', *, *, #498, .T. ) ;
#992 = DIRECTION ( 'NONE',  ( 1.000000000000000000, 1.734723475976807094E-16, 0.000000000000000000 ) ) ;
#993 = ORIENTED_EDGE ( 'NONE', *, *, #680, .F. ) ;
#994 = CIRCLE ( 'NONE', #478, 1.100000000000000533 ) ;
#995 = CIRCLE ( 'NONE', #958, 1.100000000000000311 ) ;
#996 = VECTOR ( 'NONE', #956, 1000.000000000000227 ) ;
#997 = DIRECTION ( 'NONE',  ( 0.000000000000000000, -0.7660444431189811221, -0.6427876096865354771 ) ) ;
#998 = EDGE_LOOP ( 'NONE', ( #515, #846, #635, #893, #470, #907, #926 ) ) ;
#999 = CARTESIAN_POINT ( 'NONE',  ( 2.000000000000000000, -2.886265188597457954, 11.17742585168418934 ) ) ;
#1000 = ORIENTED_EDGE ( 'NONE', *, *, #151, .T. ) ;
#1001 = EDGE_CURVE ( 'NONE', #696, #49, #17, .T. ) ;
#1002 = VERTEX_POINT ( 'NONE', #639 ) ;
#1003 = SECURITY_CLASSIFICATION_LEVEL ( 'unclassified' ) ;
#1004 = DIRECTION ( 'NONE',  ( 0.000000000000000000, -0.7660444431189781245, -0.6427876096865392519 ) ) ;
#1005 = CARTESIAN_POINT ( 'NONE',  ( 1.600000000000000089, 1.959434878635765230E-16, 0.000000000000000000 ) ) ;
#1006 = VERTEX_POINT ( 'NONE', #950 ) ;
#1007 = EDGE_CURVE ( 'NONE', #921, #677, #882, .T. ) ;
#1008 = COORDINATED_UNIVERSAL_TIME_OFFSET ( 8, 0, .AHEAD. ) ;
ENDSEC;
END-ISO-10303-21;
