ISO-10303-21;
HEADER;
FILE_DESCRIPTION (( 'STEP AP203' ),
    '1' );
FILE_NAME ('µç´ÅÖ§¼Üv1.0.0.STEP',
    '2026-05-24T09:46:16',
    ( '' ),
    ( '' ),
    'SwSTEP 2.0',
    'SolidWorks 2025',
    '' );
FILE_SCHEMA (( 'CONFIG_CONTROL_DESIGN' ));
ENDSEC;

DATA;
#1 = VERTEX_POINT ( 'NONE', #933 ) ;
#2 = CARTESIAN_POINT ( 'NONE',  ( -1.500000000000000888, 4.499999999999998224, 0.000000000000000000 ) ) ;
#3 = DIRECTION ( 'NONE',  ( -0.000000000000000000, -0.000000000000000000, -1.000000000000000000 ) ) ;
#4 = CIRCLE ( 'NONE', #835, 1.500000000000000000 ) ;
#5 = CIRCLE ( 'NONE', #911, 1.000000000000000444 ) ;
#6 = APPROVAL_ROLE ( '' ) ;
#7 = EDGE_CURVE ( 'NONE', #238, #1000, #752, .T. ) ;
#8 = VECTOR ( 'NONE', #747, 1000.000000000000000 ) ;
#9 = EDGE_CURVE ( 'NONE', #710, #235, #4, .T. ) ;
#10 = ORIENTED_EDGE ( 'NONE', *, *, #681, .F. ) ;
#11 = CARTESIAN_POINT ( 'NONE',  ( -1.500000000000000222, -11.68743460590834360, 4.604721713769055924 ) ) ;
#12 = CARTESIAN_POINT ( 'NONE',  ( 1.499999999999999556, -9.330222215594877966, 7.413938048432705763 ) ) ;
#13 = CARTESIAN_POINT ( 'NONE',  ( -1.500000000000000444, -5.499999999999992006, 4.200000000000000178 ) ) ;
#14 = CARTESIAN_POINT ( 'NONE',  ( 1.500000000000001776, -12.33022221559488507, 3.838677270650079354 ) ) ;
#15 = DIRECTION ( 'NONE',  ( 0.000000000000000000, 0.000000000000000000, 1.000000000000000000 ) ) ;
#16 = EDGE_CURVE ( 'NONE', #402, #963, #149, .T. ) ;
#17 = DIRECTION ( 'NONE',  ( 1.000000000000000000, 7.885106708985489034E-17, -0.000000000000000000 ) ) ;
#18 = DIRECTION ( 'NONE',  ( -1.000000000000000000, -3.942553354492744517E-17, 0.000000000000000000 ) ) ;
#19 = CARTESIAN_POINT ( 'NONE',  ( 1.959434878635765723E-16, -9.780173542375456108, 6.877706938249423807 ) ) ;
#20 = AXIS2_PLACEMENT_3D ( 'NONE', #882, #143, #464 ) ;
#21 = VECTOR ( 'NONE', #973, 1000.000000000000000 ) ;
#22 = CYLINDRICAL_SURFACE ( 'NONE', #458, 1.000000000000000000 ) ;
#23 = EDGE_LOOP ( 'NONE', ( #600, #772, #276, #49, #596, #81, #465, #319 ) ) ;
#24 = CYLINDRICAL_SURFACE ( 'NONE', #870, 1.600000000000000533 ) ;
#25 = EDGE_CURVE ( 'NONE', #238, #185, #38, .T. ) ;
#26 = ORIENTED_EDGE ( 'NONE', *, *, #984, .F. ) ;
#27 = CARTESIAN_POINT ( 'NONE',  ( 0.000000000000000000, -8.500000000000000000, 0.1584315640623777111 ) ) ;
#28 = CYLINDRICAL_SURFACE ( 'NONE', #329, 1.500000000000000000 ) ;
#29 = ORIENTED_EDGE ( 'NONE', *, *, #588, .T. ) ;
#30 = CARTESIAN_POINT ( 'NONE',  ( 0.000000000000000000, -6.595389280719547997, 2.116703975983084796 ) ) ;
#31 = AXIS2_PLACEMENT_3D ( 'NONE', #435, #351, #103 ) ;
#32 = DIRECTION ( 'NONE',  ( 0.000000000000000000, 0.000000000000000000, -1.000000000000000000 ) ) ;
#33 = AXIS2_PLACEMENT_3D ( 'NONE', #295, #948, #873 ) ;
#34 = EDGE_CURVE ( 'NONE', #1048, #710, #288, .T. ) ;
#35 = ORIENTED_EDGE ( 'NONE', *, *, #124, .T. ) ;
#36 = ORIENTED_EDGE ( 'NONE', *, *, #769, .F. ) ;
#37 = DIRECTION ( 'NONE',  ( -3.020171088909249006E-17, 0.7660444431189769032, -0.6427876096865406952 ) ) ;
#38 = LINE ( 'NONE', #1021, #182 ) ;
#39 = LINE ( 'NONE', #535, #755 ) ;
#40 = ADVANCED_FACE ( 'NONE', ( #854 ), #121, .T. ) ;
#41 = VERTEX_POINT ( 'NONE', #1025 ) ;
#42 = DIRECTION ( 'NONE',  ( 1.000000000000000000, 0.000000000000000000, 0.000000000000000000 ) ) ;
#43 = LINE ( 'NONE', #874, #654 ) ;
#44 = AXIS2_PLACEMENT_3D ( 'NONE', #829, #245, #18 ) ;
#45 = DIRECTION ( 'NONE',  ( 0.000000000000000000, 0.000000000000000000, 1.000000000000000000 ) ) ;
#46 = ORIENTED_EDGE ( 'NONE', *, *, #418, .F. ) ;
#47 = FACE_OUTER_BOUND ( 'NONE', #557, .T. ) ;
#48 = CARTESIAN_POINT ( 'NONE',  ( 2.135843016174550080, -5.830441338586228817, 4.200000000000001066 ) ) ;
#49 = ORIENTED_EDGE ( 'NONE', *, *, #471, .T. ) ;
#50 = CARTESIAN_POINT ( 'NONE',  ( 2.500000000000001332, -6.459847030563297565, 3.700000000000000622 ) ) ;
#51 = EDGE_CURVE ( 'NONE', #400, #1040, #611, .T. ) ;
#52 = ADVANCED_FACE ( 'NONE', ( #866 ), #284, .T. ) ;
#53 = FACE_BOUND ( 'NONE', #728, .T. ) ;
#54 = ORIENTED_EDGE ( 'NONE', *, *, #1013, .T. ) ;
#55 = PLANE ( 'NONE',  #33 ) ;
#56 = DIRECTION ( 'NONE',  ( -0.000000000000000000, -0.000000000000000000, -1.000000000000000000 ) ) ;
#57 = ORIENTED_EDGE ( 'NONE', *, *, #471, .F. ) ;
#58 = CARTESIAN_POINT ( 'NONE',  ( 2.500000000000001332, -5.500000000000000888, 4.200000000000000178 ) ) ;
#59 = PERSON_AND_ORGANIZATION ( #340, #199 ) ;
#60 = ORIENTED_EDGE ( 'NONE', *, *, #332, .F. ) ;
#61 = CARTESIAN_POINT ( 'NONE',  ( 1.959434878635765723E-16, -5.566929105221082530, 3.342375084973448374 ) ) ;
#62 = DIRECTION ( 'NONE',  ( 1.734723475976806848E-16, -1.000000000000000000, 0.000000000000000000 ) ) ;
#63 = EDGE_LOOP ( 'NONE', ( #106, #800, #696, #1014 ) ) ;
#64 = AXIS2_PLACEMENT_3D ( 'NONE', #749, #415, #174 ) ;
#65 = ORIENTED_EDGE ( 'NONE', *, *, #624, .F. ) ;
#66 = EDGE_CURVE ( 'NONE', #233, #491, #903, .T. ) ;
#67 = VECTOR ( 'NONE', #312, 1000.000000000000000 ) ;
#68 = CARTESIAN_POINT ( 'NONE',  ( 0.000000000000000000, 0.000000000000000000, 0.000000000000000000 ) ) ;
#69 = ORIENTED_EDGE ( 'NONE', *, *, #522, .F. ) ;
#70 = CARTESIAN_POINT ( 'NONE',  ( -2.500000000000000444, -5.500000000000000888, 4.200000000000000178 ) ) ;
#71 = ORIENTED_EDGE ( 'NONE', *, *, #187, .F. ) ;
#72 = FACE_OUTER_BOUND ( 'NONE', #1012, .T. ) ;
#73 = VERTEX_POINT ( 'NONE', #126 ) ;
#74 = CARTESIAN_POINT ( 'NONE',  ( -1.500000000000000444, -6.142787609686537920, 3.433955556881028048 ) ) ;
#75 = VERTEX_POINT ( 'NONE', #785 ) ;
#76 = ORIENTED_EDGE ( 'NONE', *, *, #864, .T. ) ;
#77 = DIRECTION ( 'NONE',  ( 0.000000000000000000, 0.6427876096865410283, 0.7660444431189765702 ) ) ;
#78 = PLANE ( 'NONE',  #355 ) ;
#79 = EDGE_CURVE ( 'NONE', #997, #192, #43, .T. ) ;
#80 = CALENDAR_DATE ( 2026, 24, 5 ) ;
#81 = ORIENTED_EDGE ( 'NONE', *, *, #1046, .T. ) ;
#82 = CARTESIAN_POINT ( 'NONE',  ( -2.500000000000000888, 4.499999999999998224, 4.200000000000000178 ) ) ;
#83 = DIRECTION ( 'NONE',  ( 0.000000000000000000, 0.000000000000000000, 1.000000000000000000 ) ) ;
#84 = AXIS2_PLACEMENT_3D ( 'NONE', #929, #858, #361 ) ;
#85 = CIRCLE ( 'NONE', #718, 1.600000000000000533 ) ;
#86 = CARTESIAN_POINT ( 'NONE',  ( 1.500000000000000666, 2.750000000000000000, 4.200000000000000178 ) ) ;
#87 = LINE ( 'NONE', #586, #391 ) ;
#88 = DIRECTION ( 'NONE',  ( -1.000000000000000000, -3.942553354492744517E-17, 0.000000000000000000 ) ) ;
#89 = EDGE_CURVE ( 'NONE', #365, #1000, #303, .T. ) ;
#90 = CARTESIAN_POINT ( 'NONE',  ( -2.000000000000000888, -5.708427471526543506, 4.200000000000000178 ) ) ;
#91 = DIRECTION ( 'NONE',  ( 3.942553354492743901E-17, -1.000000000000000000, -0.000000000000000000 ) ) ;
#92 = CARTESIAN_POINT ( 'NONE',  ( 0.000000000000000000, -10.80863371787392069, 5.652035829259058453 ) ) ;
#93 =( NAMED_UNIT ( * ) PLANE_ANGLE_UNIT ( ) SI_UNIT ( $, .RADIAN. ) );
#94 = CLOSED_SHELL ( 'NONE', ( #682, #357, #807, #926, #116, #856, #259, #125, #768, #637, #822, #195, #508, #296, #867, #714, #40, #934, #278, #216, #204, #900, #653, #285, #544, #139, #666, #393, #831, #297, #52, #743 ) ) ;
#95 = CIRCLE ( 'NONE', #255, 1.500000000000000000 ) ;
#96 = B_SPLINE_CURVE_WITH_KNOTS ( 'NONE', 3,
 ( #869, #801, #715, #817, #1038, #636, #488, #644 ),
 .UNSPECIFIED., .F., .F.,
 ( 4, 2, 2, 4 ),
 ( 4.336808689942017736E-19, 0.0005424922690226665527, 0.0008137384035340008591, 0.001084984538045336141 ),
 .UNSPECIFIED. ) ;
#97 = AXIS2_PLACEMENT_3D ( 'NONE', #30, #806, #558 ) ;
#98 = VERTEX_POINT ( 'NONE', #879 ) ;
#99 = FACE_OUTER_BOUND ( 'NONE', #189, .T. ) ;
#100 = DESIGN_CONTEXT ( 'detailed design', #532, 'design' ) ;
#101 = CARTESIAN_POINT ( 'NONE',  ( 7.921059878812816201E-16, -2.750000000000000000, 0.000000000000000000 ) ) ;
#102 = VERTEX_POINT ( 'NONE', #375 ) ;
#103 = DIRECTION ( 'NONE',  ( 1.000000000000000000, 0.000000000000000000, 0.000000000000000000 ) ) ;
#104 = EDGE_CURVE ( 'NONE', #723, #474, #298, .T. ) ;
#105 = EDGE_CURVE ( 'NONE', #75, #554, #670, .T. ) ;
#106 = ORIENTED_EDGE ( 'NONE', *, *, #516, .T. ) ;
#107 = FACE_OUTER_BOUND ( 'NONE', #111, .T. ) ;
#108 = DIRECTION ( 'NONE',  ( 0.000000000000000000, 0.000000000000000000, -1.000000000000000000 ) ) ;
#109 = AXIS2_PLACEMENT_3D ( 'NONE', #793, #56, #712 ) ;
#110 = AXIS2_PLACEMENT_3D ( 'NONE', #570, #403, #985 ) ;
#111 = EDGE_LOOP ( 'NONE', ( #756, #983, #819, #605 ) ) ;
#112 = DIRECTION ( 'NONE',  ( 1.000000000000000000, 0.000000000000000000, 0.000000000000000000 ) ) ;
#113 = AXIS2_PLACEMENT_3D ( 'NONE', #847, #834, #452 ) ;
#114 = VECTOR ( 'NONE', #720, 1000.000000000000000 ) ;
#115 = EDGE_LOOP ( 'NONE', ( #517, #799, #161, #620 ) ) ;
#116 = ADVANCED_FACE ( 'NONE', ( #701, #1042, #619 ), #304, .F. ) ;
#117 = CYLINDRICAL_SURFACE ( 'NONE', #599, 1.500000000000000000 ) ;
#118 = ORIENTED_EDGE ( 'NONE', *, *, #487, .F. ) ;
#119 = DIRECTION ( 'NONE',  ( -0.000000000000000000, -0.000000000000000000, -1.000000000000000000 ) ) ;
#120 = DIRECTION ( 'NONE',  ( 0.000000000000000000, 0.000000000000000000, 1.000000000000000000 ) ) ;
#121 = CYLINDRICAL_SURFACE ( 'NONE', #566, 1.000000000000000000 ) ;
#122 = ORIENTED_EDGE ( 'NONE', *, *, #790, .F. ) ;
#123 = DIRECTION ( 'NONE',  ( 0.000000000000000000, -0.7660444431189769032, 0.6427876096865406952 ) ) ;
#124 = EDGE_CURVE ( 'NONE', #280, #238, #777, .T. ) ;
#125 = ADVANCED_FACE ( 'NONE', ( #313 ), #147, .F. ) ;
#126 = CARTESIAN_POINT ( 'NONE',  ( -2.500000000000000444, -9.973009825281419438, 6.647893605313727861 ) ) ;
#127 = AXIS2_PLACEMENT_3D ( 'NONE', #658, #832, #244 ) ;
#128 = VERTEX_POINT ( 'NONE', #1029 ) ;
#129 = AXIS2_PLACEMENT_3D ( 'NONE', #1010, #123, #852 ) ;
#130 = DIRECTION ( 'NONE',  ( 0.000000000000000000, 0.000000000000000000, 1.000000000000000000 ) ) ;
#131 = DIRECTION ( 'NONE',  ( -0.000000000000000000, 0.6427876096865406952, 0.7660444431189769032 ) ) ;
#132 = VERTEX_POINT ( 'NONE', #220 ) ;
#133 = CARTESIAN_POINT ( 'NONE',  ( 2.500000000000001332, -7.500000000000000888, 0.000000000000000000 ) ) ;
#134 = LINE ( 'NONE', #721, #512 ) ;
#135 = APPROVAL ( #638, 'æœª' ) ;
#136 = ORIENTED_EDGE ( 'NONE', *, *, #247, .T. ) ;
#137 = CARTESIAN_POINT ( 'NONE',  ( 2.500000000000001332, -6.459847030563297565, 3.700000000000000622 ) ) ;
#138 = FACE_OUTER_BOUND ( 'NONE', #23, .T. ) ;
#139 = ADVANCED_FACE ( 'NONE', ( #453 ), #551, .T. ) ;
#140 = CARTESIAN_POINT ( 'NONE',  ( 1.847097401503989378, -5.571090729076707326, 4.200000000000000178 ) ) ;
#141 = ORIENTED_EDGE ( 'NONE', *, *, #864, .F. ) ;
#142 = ORIENTED_EDGE ( 'NONE', *, *, #840, .F. ) ;
#143 = DIRECTION ( 'NONE',  ( 1.000000000000000000, 3.942553354492744517E-17, -0.000000000000000000 ) ) ;
#144 = DATE_TIME_ROLE ( 'classification_date' ) ;
#145 = ORIENTED_EDGE ( 'NONE', *, *, #16, .F. ) ;
#146 = LINE ( 'NONE', #971, #114 ) ;
#147 = PLANE ( 'NONE',  #1018 ) ;
#148 = EDGE_LOOP ( 'NONE', ( #311, #791, #574, #65 ) ) ;
#149 = CIRCLE ( 'NONE', #779, 1.500000000000000000 ) ;
#150 = ORIENTED_EDGE ( 'NONE', *, *, #499, .F. ) ;
#151 = VECTOR ( 'NONE', #237, 1000.000000000000000 ) ;
#152 = CARTESIAN_POINT ( 'NONE',  ( 1.500000000000000666, 2.750000000000000000, 0.000000000000000000 ) ) ;
#153 = CIRCLE ( 'NONE', #129, 1.000000000000000444 ) ;
#154 = PERSON_AND_ORGANIZATION ( #340, #199 ) ;
#155 = EDGE_LOOP ( 'NONE', ( #384, #431, #539, #519 ) ) ;
#156 = ORIENTED_EDGE ( 'NONE', *, *, #1022, .T. ) ;
#157 = DIRECTION ( 'NONE',  ( 0.000000000000000000, 0.000000000000000000, -1.000000000000000000 ) ) ;
#158 = EDGE_LOOP ( 'NONE', ( #958, #610, #901, #60 ) ) ;
#159 = DIRECTION ( 'NONE',  ( 7.885106708985489034E-17, -1.000000000000000000, 0.000000000000000000 ) ) ;
#160 = APPROVAL_STATUS ( 'not_yet_approved' ) ;
#161 = ORIENTED_EDGE ( 'NONE', *, *, #1003, .F. ) ;
#162 = DIRECTION ( 'NONE',  ( 0.000000000000000000, 0.7660444431189762371, -0.6427876096865415834 ) ) ;
#163 = DIRECTION ( 'NONE',  ( -6.040342177818498011E-17, 0.7660444431189769032, -0.6427876096865406952 ) ) ;
#164 = PERSON_AND_ORGANIZATION_ROLE ( 'creator' ) ;
#165 = CARTESIAN_POINT ( 'NONE',  ( -1.676556712802933280, -5.499999999999992006, 4.200000000000000178 ) ) ;
#166 = EDGE_CURVE ( 'NONE', #406, #491, #369, .T. ) ;
#167 = EDGE_CURVE ( 'NONE', #128, #280, #134, .T. ) ;
#168 = CARTESIAN_POINT ( 'NONE',  ( 1.500000000000000444, 4.499999999999999112, 0.000000000000000000 ) ) ;
#169 = AXIS2_PLACEMENT_3D ( 'NONE', #363, #860, #787 ) ;
#170 = AXIS2_PLACEMENT_3D ( 'NONE', #594, #108, #518 ) ;
#171 = DIRECTION ( 'NONE',  ( 0.000000000000000000, 0.000000000000000000, 1.000000000000000000 ) ) ;
#172 = LOCAL_TIME ( 17, 46, 16.00000000000000000, #877 ) ;
#173 = CARTESIAN_POINT ( 'NONE',  ( -1.847097401503987824, -5.571090729076707326, 4.200000000000000178 ) ) ;
#174 = DIRECTION ( 'NONE',  ( -1.000000000000000000, 0.000000000000000000, 0.000000000000000000 ) ) ;
#175 = EDGE_CURVE ( 'NONE', #326, #554, #427, .T. ) ;
#176 = DIRECTION ( 'NONE',  ( 0.000000000000000000, -0.6427876096865410283, -0.7660444431189765702 ) ) ;
#177 = DIRECTION ( 'NONE',  ( 1.000000000000000000, 0.000000000000000000, 0.000000000000000000 ) ) ;
#178 = CARTESIAN_POINT ( 'NONE',  ( -2.500000000000000444, -9.500000000000001776, 0.1584315640623777111 ) ) ;
#179 = ORIENTED_EDGE ( 'NONE', *, *, #676, .T. ) ;
#180 = DIRECTION ( 'NONE',  ( 7.885106708985489034E-17, -1.000000000000000000, -0.000000000000000000 ) ) ;
#181 = LINE ( 'NONE', #433, #853 ) ;
#182 = VECTOR ( 'NONE', #525, 1000.000000000000000 ) ;
#183 = AXIS2_PLACEMENT_3D ( 'NONE', #432, #440, #176 ) ;
#184 = APPROVAL_PERSON_ORGANIZATION ( #154, #135, #6 ) ;
#185 = VERTEX_POINT ( 'NONE', #467 ) ;
#186 = DIRECTION ( 'NONE',  ( -1.000000000000000000, 0.000000000000000000, 0.000000000000000000 ) ) ;
#187 = EDGE_CURVE ( 'NONE', #836, #474, #891, .T. ) ;
#188 = EDGE_CURVE ( 'NONE', #872, #102, #269, .T. ) ;
#189 = EDGE_LOOP ( 'NONE', ( #404, #762, #378, #730 ) ) ;
#190 = DIRECTION ( 'NONE',  ( -1.734723475976807094E-15, -1.000000000000000000, -1.734723475976807094E-15 ) ) ;
#191 = CARTESIAN_POINT ( 'NONE',  ( 1.500000000000000888, -2.750000000000000000, 4.200000000000000178 ) ) ;
#192 = VERTEX_POINT ( 'NONE', #240 ) ;
#193 = CARTESIAN_POINT ( 'NONE',  ( 0.000000000000000000, -8.500000000000000000, 0.000000000000000000 ) ) ;
#194 = DIRECTION ( 'NONE',  ( 0.000000000000000000, 0.000000000000000000, 1.000000000000000000 ) ) ;
#195 = ADVANCED_FACE ( 'NONE', ( #300 ), #223, .F. ) ;
#196 = AXIS2_PLACEMENT_3D ( 'NONE', #58, #788, #159 ) ;
#197 = AXIS2_PLACEMENT_3D ( 'NONE', #774, #190, #529 ) ;
#198 = DIRECTION ( 'NONE',  ( -1.000000000000000000, 0.000000000000000000, 0.000000000000000000 ) ) ;
#199 = ORGANIZATION ( 'æœª', 'æœª', '' ) ;
#200 = DIRECTION ( 'NONE',  ( 1.000000000000000000, 0.000000000000000000, 0.000000000000000000 ) ) ;
#201 = LINE ( 'NONE', #531, #271 ) ;
#202 = ORIENTED_EDGE ( 'NONE', *, *, #909, .F. ) ;
#203 = ORIENTED_EDGE ( 'NONE', *, *, #89, .F. ) ;
#204 = ADVANCED_FACE ( 'NONE', ( #1031 ), #951, .T. ) ;
#205 = LINE ( 'NONE', #27, #429 ) ;
#206 = DIRECTION ( 'NONE',  ( 0.000000000000000000, 1.000000000000000000, -0.000000000000000000 ) ) ;
#207 = CARTESIAN_POINT ( 'NONE',  ( 0.000000000000000000, -10.80863371787392069, 5.652035829259058453 ) ) ;
#208 = FACE_OUTER_BOUND ( 'NONE', #381, .T. ) ;
#209 = EDGE_LOOP ( 'NONE', ( #294, #786, #972, #634 ) ) ;
#210 = LINE ( 'NONE', #792, #67 ) ;
#211 = AXIS2_PLACEMENT_3D ( 'NONE', #383, #708, #890 ) ;
#212 = CARTESIAN_POINT ( 'NONE',  ( 1.500000000000001110, -5.499999999999992006, 4.200000000000000178 ) ) ;
#213 = VECTOR ( 'NONE', #450, 1000.000000000000000 ) ;
#214 = EDGE_LOOP ( 'NONE', ( #54, #396, #622, #315 ) ) ;
#215 = LOCAL_TIME ( 17, 46, 16.00000000000000000, #224 ) ;
#216 = ADVANCED_FACE ( 'NONE', ( #628 ), #324, .F. ) ;
#217 = CARTESIAN_POINT ( 'NONE',  ( 1.500000000000001554, -9.500000000000001776, 0.1584315640623777111 ) ) ;
#218 = DATE_AND_TIME ( #80, #241 ) ;
#219 = DIRECTION ( 'NONE',  ( -3.020171088909249006E-17, 0.7660444431189769032, -0.6427876096865406952 ) ) ;
#220 = CARTESIAN_POINT ( 'NONE',  ( 2.500000000000000444, 4.499999999999998224, 3.700000000000000622 ) ) ;
#221 = ORIENTED_EDGE ( 'NONE', *, *, #840, .T. ) ;
#222 = VERTEX_POINT ( 'NONE', #975 ) ;
#223 = PLANE ( 'NONE',  #372 ) ;
#224 = COORDINATED_UNIVERSAL_TIME_OFFSET ( 8, 0, .AHEAD. ) ;
#225 = ORIENTED_EDGE ( 'NONE', *, *, #266, .T. ) ;
#226 = DIRECTION ( 'NONE',  ( -3.942553354492744517E-17, 1.000000000000000000, 0.000000000000000000 ) ) ;
#227 = DIRECTION ( 'NONE',  ( 1.000000000000000000, 0.000000000000000000, -0.000000000000000000 ) ) ;
#228 = ORIENTED_EDGE ( 'NONE', *, *, #927, .F. ) ;
#229 = EDGE_LOOP ( 'NONE', ( #947, #683 ) ) ;
#230 = DIRECTION ( 'NONE',  ( -3.020171088909249006E-17, 0.7660444431189769032, -0.6427876096865406952 ) ) ;
#231 = EDGE_CURVE ( 'NONE', #809, #642, #686, .T. ) ;
#232 = CALENDAR_DATE ( 2026, 24, 5 ) ;
#233 = VERTEX_POINT ( 'NONE', #137 ) ;
#234 = CYLINDRICAL_SURFACE ( 'NONE', #359, 1.600000000000000533 ) ;
#235 = VERTEX_POINT ( 'NONE', #152 ) ;
#236 = VECTOR ( 'NONE', #293, 1000.000000000000000 ) ;
#237 = DIRECTION ( 'NONE',  ( 3.020171088909249006E-17, -0.7660444431189769032, 0.6427876096865406952 ) ) ;
#238 = VERTEX_POINT ( 'NONE', #795 ) ;
#239 = AXIS2_PLACEMENT_3D ( 'NONE', #498, #83, #742 ) ;
#240 = CARTESIAN_POINT ( 'NONE',  ( -1.500000000000000666, -9.330222215594877966, 7.413938048432705763 ) ) ;
#241 = LOCAL_TIME ( 17, 46, 16.00000000000000000, #818 ) ;
#242 = COORDINATED_UNIVERSAL_TIME_OFFSET ( 8, 0, .AHEAD. ) ;
#243 = VERTEX_POINT ( 'NONE', #470 ) ;
#244 = DIRECTION ( 'NONE',  ( 4.336808689942017736E-16, 0.000000000000000000, -1.000000000000000000 ) ) ;
#245 = DIRECTION ( 'NONE',  ( -3.942553354492744517E-17, 1.000000000000000000, 0.000000000000000000 ) ) ;
#246 = APPROVAL_STATUS ( 'not_yet_approved' ) ;
#247 = EDGE_CURVE ( 'NONE', #326, #280, #697, .T. ) ;
#248 = ORIENTED_EDGE ( 'NONE', *, *, #623, .F. ) ;
#249 = DIRECTION ( 'NONE',  ( 0.000000000000000000, -0.6427876096865410283, -0.7660444431189765702 ) ) ;
#250 = LINE ( 'NONE', #580, #631 ) ;
#251 = DIRECTION ( 'NONE',  ( 0.000000000000000000, -0.000000000000000000, -1.000000000000000000 ) ) ;
#252 = CARTESIAN_POINT ( 'NONE',  ( 1.499999999999999556, -8.500000000000000000, 0.000000000000000000 ) ) ;
#253 = AXIS2_PLACEMENT_3D ( 'NONE', #577, #592, #663 ) ;
#254 = LINE ( 'NONE', #261, #950 ) ;
#255 = AXIS2_PLACEMENT_3D ( 'NONE', #810, #667, #1051 ) ;
#256 = AXIS2_PLACEMENT_3D ( 'NONE', #70, #401, #226 ) ;
#257 = CARTESIAN_POINT ( 'NONE',  ( -2.000000000000000444, -7.055723826860400116, 4.200000000000000178 ) ) ;
#258 = TOROIDAL_SURFACE ( 'NONE', #308, 0.5000000000000000000, 0.5000000000000000000 ) ;
#259 = ADVANCED_FACE ( 'NONE', ( #548 ), #405, .F. ) ;
#260 = LINE ( 'NONE', #897, #306 ) ;
#261 = CARTESIAN_POINT ( 'NONE',  ( 1.500000000000001332, -9.330222215594877966, 7.413938048432705763 ) ) ;
#262 = CARTESIAN_POINT ( 'NONE',  ( -1.499999999999999112, -2.750000000000000000, 0.000000000000000000 ) ) ;
#263 = ORIENTED_EDGE ( 'NONE', *, *, #789, .T. ) ;
#264 = CYLINDRICAL_SURFACE ( 'NONE', #170, 1.000000000000000000 ) ;
#265 = CARTESIAN_POINT ( 'NONE',  ( 2.500000000000001332, -11.68743460590834538, 4.604721713769055924 ) ) ;
#266 = EDGE_CURVE ( 'NONE', #707, #931, #1026, .T. ) ;
#267 = EDGE_LOOP ( 'NONE', ( #323, #778 ) ) ;
#268 = FACE_OUTER_BOUND ( 'NONE', #490, .T. ) ;
#269 = CIRCLE ( 'NONE', #211, 1.000000000000000222 ) ;
#270 = AXIS2_PLACEMENT_3D ( 'NONE', #576, #162, #729 ) ;
#271 = VECTOR ( 'NONE', #37, 1000.000000000000000 ) ;
#272 = EDGE_LOOP ( 'NONE', ( #928, #970 ) ) ;
#273 = FACE_OUTER_BOUND ( 'NONE', #794, .T. ) ;
#274 = CARTESIAN_POINT ( 'NONE',  ( 0.000000000000000000, -6.595389280719547997, 2.116703975983084796 ) ) ;
#275 = EDGE_CURVE ( 'NONE', #243, #98, #96, .T. ) ;
#276 = ORIENTED_EDGE ( 'NONE', *, *, #89, .T. ) ;
#277 = CARTESIAN_POINT ( 'NONE',  ( 2.500000000000001332, -9.973009825281419438, 6.647893605313727861 ) ) ;
#278 = ADVANCED_FACE ( 'NONE', ( #309 ), #443, .T. ) ;
#279 = ORIENTED_EDGE ( 'NONE', *, *, #124, .F. ) ;
#280 = VERTEX_POINT ( 'NONE', #812 ) ;
#281 = LINE ( 'NONE', #776, #871 ) ;
#282 = CC_DESIGN_PERSON_AND_ORGANIZATION_ASSIGNMENT ( #732, #549, ( #978 ) ) ;
#283 = ORIENTED_EDGE ( 'NONE', *, *, #51, .T. ) ;
#284 = TOROIDAL_SURFACE ( 'NONE', #921, 0.5000000000000000000, 0.5000000000000000000 ) ;
#285 = ADVANCED_FACE ( 'NONE', ( #1045 ), #968, .T. ) ;
#286 = VECTOR ( 'NONE', #521, 1000.000000000000000 ) ;
#287 = CARTESIAN_POINT ( 'NONE',  ( 1.500000000000001554, -8.857212390313460304, 0.9244760071813545865 ) ) ;
#288 = LINE ( 'NONE', #530, #327 ) ;
#289 = DIRECTION ( 'NONE',  ( -1.000000000000000000, 0.000000000000000000, 0.000000000000000000 ) ) ;
#290 = DIRECTION ( 'NONE',  ( 1.000000000000000000, 0.000000000000000000, 0.000000000000000000 ) ) ;
#291 = ORIENTED_EDGE ( 'NONE', *, *, #66, .F. ) ;
#292 = PRODUCT_DEFINITION_SHAPE ( 'NONE', 'NONE',  #848 ) ;
#293 = DIRECTION ( 'NONE',  ( -0.000000000000000000, -0.000000000000000000, 1.000000000000000000 ) ) ;
#294 = ORIENTED_EDGE ( 'NONE', *, *, #104, .T. ) ;
#295 = CARTESIAN_POINT ( 'NONE',  ( 0.000000000000000000, 0.000000000000000000, 4.200000000000000178 ) ) ;
#296 = ADVANCED_FACE ( 'NONE', ( #53, #731 ), #78, .T. ) ;
#297 = ADVANCED_FACE ( 'NONE', ( #208 ), #914, .T. ) ;
#298 = LINE ( 'NONE', #386, #457 ) ;
#299 = ORIENTED_EDGE ( 'NONE', *, *, #750, .T. ) ;
#300 = FACE_OUTER_BOUND ( 'NONE', #949, .T. ) ;
#301 = ORIENTED_EDGE ( 'NONE', *, *, #104, .F. ) ;
#302 = CARTESIAN_POINT ( 'NONE',  ( -1.500000000000000222, -11.68743460590834360, 4.604721713769055924 ) ) ;
#303 = CIRCLE ( 'NONE', #737, 0.5000000000000000000 ) ;
#304 = PLANE ( 'NONE',  #868 ) ;
#305 = ORIENTED_EDGE ( 'NONE', *, *, #417, .F. ) ;
#306 = VECTOR ( 'NONE', #157, 1000.000000000000000 ) ;
#307 = VERTEX_POINT ( 'NONE', #12 ) ;
#308 = AXIS2_PLACEMENT_3D ( 'NONE', #862, #353, #112 ) ;
#309 = FACE_OUTER_BOUND ( 'NONE', #214, .T. ) ;
#310 = APPLICATION_PROTOCOL_DEFINITION ( 'international standard', 'config_control_design', 1994, #532 ) ;
#311 = ORIENTED_EDGE ( 'NONE', *, *, #588, .F. ) ;
#312 = DIRECTION ( 'NONE',  ( 9.292156304918800557E-17, -0.6427876096865406952, -0.7660444431189769032 ) ) ;
#313 = FACE_OUTER_BOUND ( 'NONE', #493, .T. ) ;
#314 = EDGE_LOOP ( 'NONE', ( #814, #203, #561, #895 ) ) ;
#315 = ORIENTED_EDGE ( 'NONE', *, *, #188, .T. ) ;
#316 = EDGE_CURVE ( 'NONE', #307, #406, #254, .T. ) ;
#317 = DIRECTION ( 'NONE',  ( -6.040342177818498011E-17, 0.7660444431189769032, -0.6427876096865406952 ) ) ;
#318 = SHAPE_DEFINITION_REPRESENTATION ( #292, #828 ) ;
#319 = ORIENTED_EDGE ( 'NONE', *, *, #339, .T. ) ;
#320 = DIRECTION ( 'NONE',  ( -1.000000000000000000, -7.885106708985489034E-17, 0.000000000000000000 ) ) ;
#321 = EDGE_LOOP ( 'NONE', ( #1037, #136, #334, #150 ) ) ;
#322 = PLANE ( 'NONE',  #110 ) ;
#323 = ORIENTED_EDGE ( 'NONE', *, *, #850, .T. ) ;
#324 = CYLINDRICAL_SURFACE ( 'NONE', #910, 1.000000000000000000 ) ;
#325 = PERSON_AND_ORGANIZATION ( #340, #199 ) ;
#326 = VERTEX_POINT ( 'NONE', #674 ) ;
#327 = VECTOR ( 'NONE', #617, 1000.000000000000000 ) ;
#328 = CARTESIAN_POINT ( 'NONE',  ( -2.000000000000000888, 4.499999999999998224, 4.200000000000000178 ) ) ;
#329 = AXIS2_PLACEMENT_3D ( 'NONE', #362, #838, #186 ) ;
#330 = DIRECTION ( 'NONE',  ( -0.000000000000000000, -0.000000000000000000, -1.000000000000000000 ) ) ;
#331 = CC_DESIGN_APPROVAL ( #664, ( #848 ) ) ;
#332 = EDGE_CURVE ( 'NONE', #98, #326, #87, .T. ) ;
#333 = CALENDAR_DATE ( 2026, 24, 5 ) ;
#334 = ORIENTED_EDGE ( 'NONE', *, *, #167, .F. ) ;
#335 = CARTESIAN_POINT ( 'NONE',  ( -2.500000000000000444, -7.857212390313464745, 1.390783665336355446 ) ) ;
#336 = CARTESIAN_POINT ( 'NONE',  ( 0.000000000000000000, -11.83709389337238704, 4.426364720268695763 ) ) ;
#337 = CARTESIAN_POINT ( 'NONE',  ( 2.500000000000001332, -9.500000000000001776, 0.1584315640623777111 ) ) ;
#338 = DIRECTION ( 'NONE',  ( 6.040342177818498011E-17, -0.7660444431189769032, 0.6427876096865406952 ) ) ;
#339 = EDGE_CURVE ( 'NONE', #997, #406, #916, .T. ) ;
#340 = PERSON ( 'æœª', 'æœª', 'æœª', ('æœª'), ('æœª'), ('æœª') ) ;
#341 = CARTESIAN_POINT ( 'NONE',  ( 2.500000000000000444, 4.499999999999998224, 4.200000000000000178 ) ) ;
#342 = CARTESIAN_POINT ( 'NONE',  ( 2.500000000000001332, -9.330222215594877966, 7.413938048432705763 ) ) ;
#343 = CIRCLE ( 'NONE', #394, 1.000000000000000000 ) ;
#344 = LINE ( 'NONE', #342, #837 ) ;
#345 = CIRCLE ( 'NONE', #825, 1.000000000000000444 ) ;
#346 = CIRCLE ( 'NONE', #543, 1.000000000000000888 ) ;
#347 = DIRECTION ( 'NONE',  ( 1.000000000000000000, 0.000000000000000000, 0.000000000000000000 ) ) ;
#348 = FACE_OUTER_BOUND ( 'NONE', #562, .T. ) ;
#349 = CARTESIAN_POINT ( 'NONE',  ( 1.500000000000000444, 5.000000000000000000, 4.200000000000000178 ) ) ;
#350 = ORIENTED_EDGE ( 'NONE', *, *, #927, .T. ) ;
#351 = DIRECTION ( 'NONE',  ( 0.000000000000000000, 0.000000000000000000, 1.000000000000000000 ) ) ;
#352 = ORIENTED_EDGE ( 'NONE', *, *, #316, .F. ) ;
#353 = DIRECTION ( 'NONE',  ( 0.000000000000000000, 0.000000000000000000, 1.000000000000000000 ) ) ;
#354 = CARTESIAN_POINT ( 'NONE',  ( -1.500000000000000444, -7.500000000000000888, 0.000000000000000000 ) ) ;
#355 = AXIS2_PLACEMENT_3D ( 'NONE', #704, #621, #946 ) ;
#356 = CC_DESIGN_PERSON_AND_ORGANIZATION_ASSIGNMENT ( #717, #893, ( #780 ) ) ;
#357 = ADVANCED_FACE ( 'NONE', ( #907 ), #823, .F. ) ;
#358 = VECTOR ( 'NONE', #423, 1000.000000000000000 ) ;
#359 = AXIS2_PLACEMENT_3D ( 'NONE', #1041, #886, #955 ) ;
#360 = ORIENTED_EDGE ( 'NONE', *, *, #603, .F. ) ;
#361 = DIRECTION ( 'NONE',  ( 1.000000000000000000, 7.885106708985489034E-17, 0.000000000000000000 ) ) ;
#362 = CARTESIAN_POINT ( 'NONE',  ( 7.921059878812816201E-16, -2.750000000000000000, 4.200000000000000178 ) ) ;
#363 = CARTESIAN_POINT ( 'NONE',  ( 1.500000000000000222, 4.999999999999999112, 3.700000000000000622 ) ) ;
#364 = PRODUCT_RELATED_PRODUCT_CATEGORY ( 'detail', '', ( #780 ) ) ;
#365 = VERTEX_POINT ( 'NONE', #746 ) ;
#366 = FACE_OUTER_BOUND ( 'NONE', #267, .T. ) ;
#367 = VERTEX_POINT ( 'NONE', #735 ) ;
#368 = EDGE_CURVE ( 'NONE', #238, #132, #526, .T. ) ;
#369 =( BOUNDED_CURVE ( )  B_SPLINE_CURVE ( 3, ( #212, #546, #140, #965 ),
 .UNSPECIFIED., .F., .T. ) 
 B_SPLINE_CURVE_WITH_KNOTS ( ( 4, 4 ),
 ( 0.000000000000000000, 0.5235987755983004810 ),
 .UNSPECIFIED. ) 
 CURVE ( )  GEOMETRIC_REPRESENTATION_ITEM ( )  RATIONAL_B_SPLINE_CURVE ( ( 1.000000000000000000, 0.9772838841927120601, 0.9772838841927120601, 1.000000000000000000 ) ) 
 REPRESENTATION_ITEM ( '' )  );
#370 = FACE_OUTER_BOUND ( 'NONE', #209, .T. ) ;
#371 = ORIENTED_EDGE ( 'NONE', *, *, #694, .F. ) ;
#372 = AXIS2_PLACEMENT_3D ( 'NONE', #476, #131, #1053 ) ;
#373 = VECTOR ( 'NONE', #815, 1000.000000000000000 ) ;
#374 = CYLINDRICAL_SURFACE ( 'NONE', #782, 1.500000000000000000 ) ;
#375 = CARTESIAN_POINT ( 'NONE',  ( -2.500000000000000444, -8.214424780626918832, 1.690520450300331934 ) ) ;
#376 = CARTESIAN_POINT ( 'NONE',  ( 6.846743925732087952E-16, 2.750000000000000000, 0.000000000000000000 ) ) ;
#377 = EDGE_CURVE ( 'NONE', #185, #547, #343, .T. ) ;
#378 = ORIENTED_EDGE ( 'NONE', *, *, #665, .T. ) ;
#379 = CARTESIAN_POINT ( 'NONE',  ( -1.500000000000000444, -8.857212390313460304, 0.9244760071813550306 ) ) ;
#380 = DIRECTION ( 'NONE',  ( 1.000000000000000000, 0.000000000000000000, 0.000000000000000000 ) ) ;
#381 = EDGE_LOOP ( 'NONE', ( #571, #57, #691, #279 ) ) ;
#382 = CARTESIAN_POINT ( 'NONE',  ( 2.500000000000001332, -6.330952010837042288, 3.827822278888089791 ) ) ;
#383 = CARTESIAN_POINT ( 'NONE',  ( -1.500000000000000444, -8.214424780626918832, 1.690520450300331934 ) ) ;
#384 = ORIENTED_EDGE ( 'NONE', *, *, #175, .T. ) ;
#385 = CARTESIAN_POINT ( 'NONE',  ( -2.500000000000000444, -7.500000000000000888, 0.1584315640623777111 ) ) ;
#386 = CARTESIAN_POINT ( 'NONE',  ( -2.500000000000000444, -8.500000000000000000, 0.000000000000000000 ) ) ;
#387 = ORIENTED_EDGE ( 'NONE', *, *, #417, .T. ) ;
#388 = DIRECTION ( 'NONE',  ( 0.000000000000000000, -1.000000000000000000, 0.000000000000000000 ) ) ;
#389 = MECHANICAL_CONTEXT ( 'NONE', #844, 'mechanical' ) ;
#390 = ORIENTED_EDGE ( 'NONE', *, *, #612, .F. ) ;
#391 = VECTOR ( 'NONE', #409, 1000.000000000000000 ) ;
#392 = FACE_OUTER_BOUND ( 'NONE', #63, .T. ) ;
#393 = ADVANCED_FACE ( 'NONE', ( #668 ), #981, .T. ) ;
#394 = AXIS2_PLACEMENT_3D ( 'NONE', #168, #3, #659 ) ;
#395 = DIRECTION ( 'NONE',  ( 0.000000000000000000, 0.000000000000000000, 1.000000000000000000 ) ) ;
#396 = ORIENTED_EDGE ( 'NONE', *, *, #995, .T. ) ;
#397 = VECTOR ( 'NONE', #581, 1000.000000000000000 ) ;
#398 = ORIENTED_EDGE ( 'NONE', *, *, #1002, .F. ) ;
#399 = CARTESIAN_POINT ( 'NONE',  ( 0.000000000000000000, -9.500000000000001776, 0.1584315640623777111 ) ) ;
#400 = VERTEX_POINT ( 'NONE', #336 ) ;
#401 = DIRECTION ( 'NONE',  ( 1.000000000000000000, 3.942553354492744517E-17, -0.000000000000000000 ) ) ;
#402 = VERTEX_POINT ( 'NONE', #904 ) ;
#403 = DIRECTION ( 'NONE',  ( 0.000000000000000000, -0.6427876096865406952, -0.7660444431189769032 ) ) ;
#404 = ORIENTED_EDGE ( 'NONE', *, *, #849, .F. ) ;
#405 = PLANE ( 'NONE',  #196 ) ;
#406 = VERTEX_POINT ( 'NONE', #986 ) ;
#407 = DIRECTION ( 'NONE',  ( -0.000000000000000000, -0.000000000000000000, -1.000000000000000000 ) ) ;
#408 = EDGE_CURVE ( 'NONE', #235, #710, #992, .T. ) ;
#409 = DIRECTION ( 'NONE',  ( -3.942553354492744517E-17, 1.000000000000000000, -0.000000000000000000 ) ) ;
#410 = UNCERTAINTY_MEASURE_WITH_UNIT (LENGTH_MEASURE( 1.000000000000000082E-05 ), #751, 'distance_accuracy_value', 'NONE');
#411 = PERSON_AND_ORGANIZATION_ROLE ( 'creator' ) ;
#412 = EDGE_LOOP ( 'NONE', ( #10, #496, #608, #842 ) ) ;
#413 = AXIS2_PLACEMENT_3D ( 'NONE', #217, #555, #388 ) ;
#414 = LINE ( 'NONE', #741, #21 ) ;
#415 = DIRECTION ( 'NONE',  ( -0.000000000000000000, -0.000000000000000000, -1.000000000000000000 ) ) ;
#416 = AXIS2_PLACEMENT_3D ( 'NONE', #302, #219, #878 ) ;
#417 = EDGE_CURVE ( 'NONE', #367, #707, #250, .T. ) ;
#418 = EDGE_CURVE ( 'NONE', #809, #885, #503, .T. ) ;
#419 = LINE ( 'NONE', #335, #151 ) ;
#420 = CARTESIAN_POINT ( 'NONE',  ( 1.500000000000000444, 4.499999999999999112, 3.700000000000000622 ) ) ;
#421 = CARTESIAN_POINT ( 'NONE',  ( -1.500000000000000444, -5.499999999999992006, 4.200000000000000178 ) ) ;
#422 = CARTESIAN_POINT ( 'NONE',  ( 1.500000000000001776, -11.68743460590834360, 4.604721713769055036 ) ) ;
#423 = DIRECTION ( 'NONE',  ( -7.885106708985489034E-17, 1.000000000000000000, 0.000000000000000000 ) ) ;
#424 = DIRECTION ( 'NONE',  ( 1.000000000000000000, 0.000000000000000000, 0.000000000000000000 ) ) ;
#425 = EDGE_CURVE ( 'NONE', #491, #365, #507, .T. ) ;
#426 = LINE ( 'NONE', #930, #286 ) ;
#427 = CIRCLE ( 'NONE', #1036, 0.5000000000000000000 ) ;
#428 = CIRCLE ( 'NONE', #613, 2.000000000000000000 ) ;
#429 = VECTOR ( 'NONE', #936, 1000.000000000000000 ) ;
#430 =( NAMED_UNIT ( * ) SI_UNIT ( $, .STERADIAN. ) SOLID_ANGLE_UNIT ( ) );
#431 = ORIENTED_EDGE ( 'NONE', *, *, #105, .F. ) ;
#432 = CARTESIAN_POINT ( 'NONE',  ( -1.500000000000000222, -9.973009825281417662, 6.647893605313727861 ) ) ;
#433 = CARTESIAN_POINT ( 'NONE',  ( 2.500000000000001332, -5.500000000000000888, 0.000000000000000000 ) ) ;
#434 = EDGE_LOOP ( 'NONE', ( #221, #510, #1030, #387, #225, #627, #770, #228 ) ) ;
#435 = CARTESIAN_POINT ( 'NONE',  ( 6.846743925732087952E-16, 2.750000000000000000, 4.200000000000000178 ) ) ;
#436 = EDGE_CURVE ( 'NONE', #1027, #713, #344, .T. ) ;
#437 = EDGE_CURVE ( 'NONE', #102, #783, #419, .T. ) ;
#438 = VERTEX_POINT ( 'NONE', #86 ) ;
#439 = PLANE ( 'NONE',  #514 ) ;
#440 = DIRECTION ( 'NONE',  ( 0.000000000000000000, -0.7660444431189769032, 0.6427876096865406952 ) ) ;
#441 = ORIENTED_EDGE ( 'NONE', *, *, #79, .T. ) ;
#442 = AXIS2_PLACEMENT_3D ( 'NONE', #207, #537, #766 ) ;
#443 = TOROIDAL_SURFACE ( 'NONE', #20, 2.000000000000000000, 1.000000000000000000 ) ;
#444 = CIRCLE ( 'NONE', #952, 1.500000000000000000 ) ;
#445 = CC_DESIGN_APPROVAL ( #477, ( #504 ) ) ;
#446 = ORIENTED_EDGE ( 'NONE', *, *, #1002, .T. ) ;
#447 = FACE_OUTER_BOUND ( 'NONE', #155, .T. ) ;
#448 = EDGE_CURVE ( 'NONE', #885, #1027, #5, .T. ) ;
#449 = CARTESIAN_POINT ( 'NONE',  ( 2.449713530879865875, -6.203018330062448626, 3.954912827669144537 ) ) ;
#450 = DIRECTION ( 'NONE',  ( 1.000000000000000000, -0.000000000000000000, -0.000000000000000000 ) ) ;
#451 = ORIENTED_EDGE ( 'NONE', *, *, #821, .F. ) ;
#452 = DIRECTION ( 'NONE',  ( 1.000000000000000000, 0.000000000000000000, 0.000000000000000000 ) ) ;
#453 = FACE_OUTER_BOUND ( 'NONE', #115, .T. ) ;
#454 = DIRECTION ( 'NONE',  ( 0.000000000000000000, 0.000000000000000000, 1.000000000000000000 ) ) ;
#455 = EDGE_CURVE ( 'NONE', #593, #723, #260, .T. ) ;
#456 = EDGE_LOOP ( 'NONE', ( #650, #122, #468, #648 ) ) ;
#457 = VECTOR ( 'NONE', #706, 1000.000000000000000 ) ;
#458 = AXIS2_PLACEMENT_3D ( 'NONE', #757, #32, #509 ) ;
#459 = CARTESIAN_POINT ( 'NONE',  ( -2.500000000000000000, -11.68743460590834360, 4.604721713769056812 ) ) ;
#460 = AXIS2_PLACEMENT_3D ( 'NONE', #542, #320, #784 ) ;
#461 = CARTESIAN_POINT ( 'NONE',  ( 2.000000000000001776, -5.708427471526543506, 4.200000000000000178 ) ) ;
#462 = EDGE_LOOP ( 'NONE', ( #533, #179, #726, #974 ) ) ;
#463 = DIRECTION ( 'NONE',  ( 1.000000000000000000, 0.000000000000000000, 0.000000000000000000 ) ) ;
#464 = DIRECTION ( 'NONE',  ( -3.942553354492744517E-17, 1.000000000000000000, 0.000000000000000000 ) ) ;
#465 = ORIENTED_EDGE ( 'NONE', *, *, #522, .T. ) ;
#466 = CARTESIAN_POINT ( 'NONE',  ( 1.500000000000001776, -12.33022221559488507, 3.838677270650079354 ) ) ;
#467 = CARTESIAN_POINT ( 'NONE',  ( 1.500000000000000222, 5.499999999999999112, 0.000000000000000000 ) ) ;
#468 = ORIENTED_EDGE ( 'NONE', *, *, #231, .F. ) ;
#469 = CC_DESIGN_PERSON_AND_ORGANIZATION_ASSIGNMENT ( #325, #411, ( #848 ) ) ;
#470 = CARTESIAN_POINT ( 'NONE',  ( -2.000000000000000888, -5.708427471526543506, 4.200000000000000178 ) ) ;
#471 = EDGE_CURVE ( 'NONE', #1000, #75, #906, .T. ) ;
#472 = LINE ( 'NONE', #133, #569 ) ;
#473 = CARTESIAN_POINT ( 'NONE',  ( 1.500000000000000444, 4.499999999999999112, 4.200000000000000178 ) ) ;
#474 = VERTEX_POINT ( 'NONE', #252 ) ;
#475 = ORIENTED_EDGE ( 'NONE', *, *, #516, .F. ) ;
#476 = CARTESIAN_POINT ( 'NONE',  ( -2.500000000000000000, -12.33022221559488507, 3.838677270650079354 ) ) ;
#477 = APPROVAL ( #246, 'æœª' ) ;
#478 = ORIENTED_EDGE ( 'NONE', *, *, #984, .T. ) ;
#479 = AXIS2_PLACEMENT_3D ( 'NONE', #961, #899, #724 ) ;
#480 = FACE_OUTER_BOUND ( 'NONE', #434, .T. ) ;
#481 = VECTOR ( 'NONE', #919, 1000.000000000000000 ) ;
#482 = CARTESIAN_POINT ( 'NONE',  ( 2.266554297370246829, -5.950813847125054679, 4.142912650666207952 ) ) ;
#483 = ORIENTED_EDGE ( 'NONE', *, *, #744, .T. ) ;
#484 = AXIS2_PLACEMENT_3D ( 'NONE', #920, #251, #908 ) ;
#485 = DIRECTION ( 'NONE',  ( -6.040342177818498011E-17, 0.7660444431189769032, -0.6427876096865406952 ) ) ;
#486 = ORIENTED_EDGE ( 'NONE', *, *, #681, .T. ) ;
#487 = EDGE_CURVE ( 'NONE', #865, #719, #428, .T. ) ;
#488 = CARTESIAN_POINT ( 'NONE',  ( -2.500000000000000444, -6.395646519443128675, 3.763666196371073802 ) ) ;
#489 = DATE_TIME_ROLE ( 'creation_date' ) ;
#490 = EDGE_LOOP ( 'NONE', ( #71, #202, #607, #451 ) ) ;
#491 = VERTEX_POINT ( 'NONE', #579 ) ;
#492 = CARTESIAN_POINT ( 'NONE',  ( -1.499999999999999112, -2.750000000000000000, 4.200000000000000178 ) ) ;
#493 = EDGE_LOOP ( 'NONE', ( #1050, #35, #861, #478 ) ) ;
#494 = CARTESIAN_POINT ( 'NONE',  ( -2.500000000000000444, -7.500000000000000888, 0.6247392222173738796 ) ) ;
#495 = APPROVAL_ROLE ( '' ) ;
#496 = ORIENTED_EDGE ( 'NONE', *, *, #455, .F. ) ;
#497 = EDGE_CURVE ( 'NONE', #280, #75, #923, .T. ) ;
#498 = CARTESIAN_POINT ( 'NONE',  ( 6.846743925732087952E-16, 2.750000000000000000, 0.000000000000000000 ) ) ;
#499 = EDGE_CURVE ( 'NONE', #367, #128, #738, .T. ) ;
#500 = AXIS2_PLACEMENT_3D ( 'NONE', #876, #317, #538 ) ;
#501 = CARTESIAN_POINT ( 'NONE',  ( 1.500000000000001332, -9.973009825281419438, 6.647893605313728749 ) ) ;
#502 = CIRCLE ( 'NONE', #197, 0.5000000000000000000 ) ;
#503 = LINE ( 'NONE', #14, #781 ) ;
#504 = SECURITY_CLASSIFICATION ( '', '', #652 ) ;
#505 = LINE ( 'NONE', #341, #925 ) ;
#506 = LINE ( 'NONE', #492, #373 ) ;
#507 = LINE ( 'NONE', #989, #358 ) ;
#508 = ADVANCED_FACE ( 'NONE', ( #72 ), #322, .F. ) ;
#509 = DIRECTION ( 'NONE',  ( -1.000000000000000000, 0.000000000000000000, 0.000000000000000000 ) ) ;
#510 = ORIENTED_EDGE ( 'NONE', *, *, #332, .T. ) ;
#511 = LINE ( 'NONE', #754, #513 ) ;
#512 = VECTOR ( 'NONE', #560, 1000.000000000000000 ) ;
#513 = VECTOR ( 'NONE', #677, 1000.000000000000000 ) ;
#514 = AXIS2_PLACEMENT_3D ( 'NONE', #193, #524, #695 ) ;
#515 = DIRECTION ( 'NONE',  ( 0.000000000000000000, 1.000000000000000000, -1.775381057445013511E-15 ) ) ;
#516 = EDGE_CURVE ( 'NONE', #719, #809, #698, .T. ) ;
#517 = ORIENTED_EDGE ( 'NONE', *, *, #25, .F. ) ;
#518 = DIRECTION ( 'NONE',  ( -1.000000000000000000, 0.000000000000000000, 0.000000000000000000 ) ) ;
#519 = ORIENTED_EDGE ( 'NONE', *, *, #247, .F. ) ;
#520 = CARTESIAN_POINT ( 'NONE',  ( -1.499999999999999334, 2.750000000000000000, 0.000000000000000000 ) ) ;
#521 = DIRECTION ( 'NONE',  ( -1.000000000000000000, -0.000000000000000000, -0.000000000000000000 ) ) ;
#522 = EDGE_CURVE ( 'NONE', #243, #997, #615, .T. ) ;
#523 = EDGE_LOOP ( 'NONE', ( #390, #1052 ) ) ;
#524 = DIRECTION ( 'NONE',  ( 0.000000000000000000, -1.000000000000000000, 0.000000000000000000 ) ) ;
#525 = DIRECTION ( 'NONE',  ( 0.000000000000000000, 0.000000000000000000, -1.000000000000000000 ) ) ;
#526 = CIRCLE ( 'NONE', #802, 1.000000000000000000 ) ;
#527 = VECTOR ( 'NONE', #748, 1000.000000000000000 ) ;
#528 = AXIS2_PLACEMENT_3D ( 'NONE', #68, #1054, #1047 ) ;
#529 = DIRECTION ( 'NONE',  ( 0.000000000000000000, 1.734723475976807094E-15, -1.000000000000000000 ) ) ;
#530 = CARTESIAN_POINT ( 'NONE',  ( -1.499999999999999334, 2.750000000000000000, 4.200000000000000178 ) ) ;
#531 = CARTESIAN_POINT ( 'NONE',  ( -2.500000000000000444, -6.142787609686537920, 3.433955556881028048 ) ) ;
#532 = APPLICATION_CONTEXT ( 'configuration controlled 3d designs of mechanical parts and assemblies' ) ;
#533 = ORIENTED_EDGE ( 'NONE', *, *, #623, .T. ) ;
#534 = ORIENTED_EDGE ( 'NONE', *, *, #676, .F. ) ;
#535 = CARTESIAN_POINT ( 'NONE',  ( 1.500000000000001554, -8.500000000000000000, 0.6247392222173752119 ) ) ;
#536 = DIRECTION ( 'NONE',  ( 0.000000000000000000, 0.000000000000000000, 1.000000000000000000 ) ) ;
#537 = DIRECTION ( 'NONE',  ( 0.000000000000000000, -0.7660444431189769032, 0.6427876096865406952 ) ) ;
#538 = DIRECTION ( 'NONE',  ( 0.000000000000000000, 0.6427876096865405842, 0.7660444431189769032 ) ) ;
#539 = ORIENTED_EDGE ( 'NONE', *, *, #497, .F. ) ;
#540 = AXIS2_PLACEMENT_3D ( 'NONE', #887, #798, #290 ) ;
#541 = CIRCLE ( 'NONE', #113, 1.500000000000000000 ) ;
#542 = CARTESIAN_POINT ( 'NONE',  ( 1.500000000000001554, -9.500000000000001776, 0.1584315640623777111 ) ) ;
#543 = AXIS2_PLACEMENT_3D ( 'NONE', #830, #996, #917 ) ;
#544 = ADVANCED_FACE ( 'NONE', ( #915 ), #734, .T. ) ;
#545 = EDGE_CURVE ( 'NONE', #438, #1048, #95, .T. ) ;
#546 = CARTESIAN_POINT ( 'NONE',  ( 1.676556712802934168, -5.499999999999992006, 4.200000000000000178 ) ) ;
#547 = VERTEX_POINT ( 'NONE', #649 ) ;
#548 = FACE_OUTER_BOUND ( 'NONE', #851, .T. ) ;
#549 = PERSON_AND_ORGANIZATION_ROLE ( 'design_supplier' ) ;
#550 = DIRECTION ( 'NONE',  ( 0.000000000000000000, -0.6427876096865408062, -0.7660444431189767922 ) ) ;
#551 = CYLINDRICAL_SURFACE ( 'NONE', #598, 1.000000000000000000 ) ;
#552 = ORIENTED_EDGE ( 'NONE', *, *, #1022, .F. ) ;
#553 = CC_DESIGN_DATE_AND_TIME_ASSIGNMENT ( #796, #144, ( #504 ) ) ;
#554 = VERTEX_POINT ( 'NONE', #328 ) ;
#555 = DIRECTION ( 'NONE',  ( -1.000000000000000000, -7.885106708985489034E-17, 0.000000000000000000 ) ) ;
#556 = PERSON_AND_ORGANIZATION ( #340, #199 ) ;
#557 = EDGE_LOOP ( 'NONE', ( #639, #1043, #888, #283 ) ) ;
#558 = DIRECTION ( 'NONE',  ( 0.000000000000000000, -0.6427876096865408062, -0.7660444431189767922 ) ) ;
#559 = EDGE_CURVE ( 'NONE', #326, #367, #820, .T. ) ;
#560 = DIRECTION ( 'NONE',  ( -0.000000000000000000, -0.000000000000000000, 1.000000000000000000 ) ) ;
#561 = ORIENTED_EDGE ( 'NONE', *, *, #759, .F. ) ;
#562 = EDGE_LOOP ( 'NONE', ( #534, #875, #760, #145 ) ) ;
#563 = DIRECTION ( 'NONE',  ( 0.000000000000000000, 0.6427876096865405842, 0.7660444431189769032 ) ) ;
#564 = DATE_AND_TIME ( #232, #215 ) ;
#565 = ORIENTED_EDGE ( 'NONE', *, *, #612, .T. ) ;
#566 = AXIS2_PLACEMENT_3D ( 'NONE', #941, #454, #702 ) ;
#567 = LINE ( 'NONE', #61, #894 ) ;
#568 = ORIENTED_EDGE ( 'NONE', *, *, #316, .T. ) ;
#569 = VECTOR ( 'NONE', #640, 1000.000000000000000 ) ;
#570 = CARTESIAN_POINT ( 'NONE',  ( -2.500000000000000444, -9.330222215594877966, 7.413938048432705763 ) ) ;
#571 = ORIENTED_EDGE ( 'NONE', *, *, #497, .T. ) ;
#572 = DIRECTION ( 'NONE',  ( 0.000000000000000000, 0.000000000000000000, 1.000000000000000000 ) ) ;
#573 = APPLICATION_PROTOCOL_DEFINITION ( 'international standard', 'config_control_design', 1994, #844 ) ;
#574 = ORIENTED_EDGE ( 'NONE', *, *, #188, .F. ) ;
#575 = EDGE_CURVE ( 'NONE', #881, #400, #414, .T. ) ;
#576 = CARTESIAN_POINT ( 'NONE',  ( 1.500000000000001332, -8.214424780626918832, 1.690520450300330602 ) ) ;
#577 = CARTESIAN_POINT ( 'NONE',  ( -8.673617379884032514E-16, 4.999999999999999112, 3.700000000000000622 ) ) ;
#578 = APPROVAL_DATE_TIME ( #218, #664 ) ;
#579 = CARTESIAN_POINT ( 'NONE',  ( 2.000000000000001776, -5.708427471526543506, 4.200000000000000178 ) ) ;
#580 = CARTESIAN_POINT ( 'NONE',  ( -2.500000000000000444, -5.500000000000000888, 0.000000000000000000 ) ) ;
#581 = DIRECTION ( 'NONE',  ( 6.040342177818498011E-17, -0.7660444431189769032, 0.6427876096865406952 ) ) ;
#582 = AXIS2_PLACEMENT_3D ( 'NONE', #855, #606, #689 ) ;
#583 = LINE ( 'NONE', #913, #937 ) ;
#584 = EDGE_CURVE ( 'NONE', #1, #963, #506, .T. ) ;
#585 = AXIS2_PLACEMENT_3D ( 'NONE', #2, #407, #590 ) ;
#586 = CARTESIAN_POINT ( 'NONE',  ( -2.500000000000000888, 4.499999999999998224, 3.700000000000000622 ) ) ;
#587 = AXIS2_PLACEMENT_3D ( 'NONE', #178, #88, #515 ) ;
#588 = EDGE_CURVE ( 'NONE', #783, #41, #345, .T. ) ;
#589 = DIRECTION ( 'NONE',  ( 3.942553354492744517E-17, -1.000000000000000000, 0.000000000000000000 ) ) ;
#590 = DIRECTION ( 'NONE',  ( 1.000000000000000000, -8.673617379884035472E-16, 0.000000000000000000 ) ) ;
#591 = CC_DESIGN_PERSON_AND_ORGANIZATION_ASSIGNMENT ( #962, #982, ( #504 ) ) ;
#592 = DIRECTION ( 'NONE',  ( 1.000000000000000000, 1.734723475976806848E-16, -0.000000000000000000 ) ) ;
#593 = VERTEX_POINT ( 'NONE', #827 ) ;
#594 = CARTESIAN_POINT ( 'NONE',  ( -1.500000000000000888, 4.499999999999998224, 4.200000000000000178 ) ) ;
#595 = CARTESIAN_POINT ( 'NONE',  ( 2.500000000000000444, 5.499999999999999112, 0.000000000000000000 ) ) ;
#596 = ORIENTED_EDGE ( 'NONE', *, *, #105, .T. ) ;
#597 = DIRECTION ( 'NONE',  ( 0.000000000000000000, -0.7660444431189769032, 0.6427876096865406952 ) ) ;
#598 = AXIS2_PLACEMENT_3D ( 'NONE', #626, #633, #641 ) ;
#599 = AXIS2_PLACEMENT_3D ( 'NONE', #609, #119, #289 ) ;
#600 = ORIENTED_EDGE ( 'NONE', *, *, #166, .T. ) ;
#601 = CARTESIAN_POINT ( 'NONE',  ( 2.500000000000001332, -8.214424780626918832, 1.690520450300330602 ) ) ;
#602 = DIRECTION ( 'NONE',  ( 0.000000000000000000, -0.6427876096865408062, -0.7660444431189767922 ) ) ;
#603 = EDGE_CURVE ( 'NONE', #132, #233, #583, .T. ) ;
#604 = EDGE_CURVE ( 'NONE', #192, #73, #671, .T. ) ;
#605 = ORIENTED_EDGE ( 'NONE', *, *, #408, .F. ) ;
#606 = DIRECTION ( 'NONE',  ( 0.000000000000000000, -0.7660444431189769032, 0.6427876096865406952 ) ) ;
#607 = ORIENTED_EDGE ( 'NONE', *, *, #1033, .T. ) ;
#608 = ORIENTED_EDGE ( 'NONE', *, *, #995, .F. ) ;
#609 = CARTESIAN_POINT ( 'NONE',  ( 6.846743925732087952E-16, 2.750000000000000000, 4.200000000000000178 ) ) ;
#610 = ORIENTED_EDGE ( 'NONE', *, *, #1046, .F. ) ;
#611 = CIRCLE ( 'NONE', #442, 1.599999999999999645 ) ;
#612 = EDGE_CURVE ( 'NONE', #1048, #438, #892, .T. ) ;
#613 = AXIS2_PLACEMENT_3D ( 'NONE', #337, #17, #902 ) ;
#614 = CIRCLE ( 'NONE', #587, 2.000000000000000000 ) ;
#615 =( BOUNDED_CURVE ( )  B_SPLINE_CURVE ( 3, ( #90, #173, #165, #13 ),
 .UNSPECIFIED., .F., .T. ) 
 B_SPLINE_CURVE_WITH_KNOTS ( ( 4, 4 ),
 ( 5.759586531581287083, 6.283185307179586232 ),
 .UNSPECIFIED. ) 
 CURVE ( )  GEOMETRIC_REPRESENTATION_ITEM ( )  RATIONAL_B_SPLINE_CURVE ( ( 1.000000000000000000, 0.9772838841927120601, 0.9772838841927120601, 1.000000000000000000 ) ) 
 REPRESENTATION_ITEM ( '' )  );
#616 = DIRECTION ( 'NONE',  ( -0.000000000000000000, -0.000000000000000000, -1.000000000000000000 ) ) ;
#617 = DIRECTION ( 'NONE',  ( -0.000000000000000000, -0.000000000000000000, -1.000000000000000000 ) ) ;
#618 = CARTESIAN_POINT ( 'NONE',  ( 6.846743925732087952E-16, 2.750000000000000000, 4.200000000000000178 ) ) ;
#619 = FACE_BOUND ( 'NONE', #272, .T. ) ;
#620 = ORIENTED_EDGE ( 'NONE', *, *, #377, .F. ) ;
#621 = DIRECTION ( 'NONE',  ( 0.000000000000000000, -0.7660444431189769032, 0.6427876096865406952 ) ) ;
#622 = ORIENTED_EDGE ( 'NONE', *, *, #943, .F. ) ;
#623 = EDGE_CURVE ( 'NONE', #1, #629, #444, .T. ) ;
#624 = EDGE_CURVE ( 'NONE', #41, #872, #511, .T. ) ;
#625 = DIRECTION ( 'NONE',  ( 0.000000000000000000, -0.7660444431189769032, 0.6427876096865406952 ) ) ;
#626 = CARTESIAN_POINT ( 'NONE',  ( 1.500000000000000444, 4.499999999999999112, 4.200000000000000178 ) ) ;
#627 = ORIENTED_EDGE ( 'NONE', *, *, #1013, .F. ) ;
#628 = FACE_OUTER_BOUND ( 'NONE', #456, .T. ) ;
#629 = VERTEX_POINT ( 'NONE', #191 ) ;
#630 = VECTOR ( 'NONE', #1024, 1000.000000000000000 ) ;
#631 = VECTOR ( 'NONE', #91, 1000.000000000000000 ) ;
#632 = CARTESIAN_POINT ( 'NONE',  ( 2.500000000000001332, -7.500000000000000888, 0.1584315640623777111 ) ) ;
#633 = DIRECTION ( 'NONE',  ( 0.000000000000000000, 0.000000000000000000, -1.000000000000000000 ) ) ;
#634 = ORIENTED_EDGE ( 'NONE', *, *, #455, .T. ) ;
#635 = ORIENTED_EDGE ( 'NONE', *, *, #418, .T. ) ;
#636 = CARTESIAN_POINT ( 'NONE',  ( -2.487509434534297625, -6.330513512409915222, 3.828247685286629842 ) ) ;
#637 = ADVANCED_FACE ( 'NONE', ( #348 ), #28, .F. ) ;
#638 = APPROVAL_STATUS ( 'not_yet_approved' ) ;
#639 = ORIENTED_EDGE ( 'NONE', *, *, #883, .F. ) ;
#640 = DIRECTION ( 'NONE',  ( -0.000000000000000000, -0.000000000000000000, -1.000000000000000000 ) ) ;
#641 = DIRECTION ( 'NONE',  ( -1.000000000000000000, 0.000000000000000000, 0.000000000000000000 ) ) ;
#642 = VERTEX_POINT ( 'NONE', #764 ) ;
#643 = ORIENTED_EDGE ( 'NONE', *, *, #436, .T. ) ;
#644 = CARTESIAN_POINT ( 'NONE',  ( -2.500000000000000444, -6.459847030563297565, 3.700000000000000622 ) ) ;
#645 = DATE_AND_TIME ( #333, #740 ) ;
#646 = ORIENTED_EDGE ( 'NONE', *, *, #448, .F. ) ;
#647 = FACE_BOUND ( 'NONE', #523, .T. ) ;
#648 = ORIENTED_EDGE ( 'NONE', *, *, #750, .F. ) ;
#649 = CARTESIAN_POINT ( 'NONE',  ( 2.500000000000000444, 4.499999999999998224, 0.000000000000000000 ) ) ;
#650 = ORIENTED_EDGE ( 'NONE', *, *, #943, .T. ) ;
#651 = DIRECTION ( 'NONE',  ( -1.000000000000000000, 0.000000000000000000, 0.000000000000000000 ) ) ;
#652 = SECURITY_CLASSIFICATION_LEVEL ( 'unclassified' ) ;
#653 = ADVANCED_FACE ( 'NONE', ( #268 ), #22, .T. ) ;
#654 = VECTOR ( 'NONE', #859, 1000.000000000000000 ) ;
#655 = CIRCLE ( 'NONE', #765, 1.000000000000000000 ) ;
#656 = ORIENTED_EDGE ( 'NONE', *, *, #665, .F. ) ;
#657 = CIRCLE ( 'NONE', #839, 1.500000000000000000 ) ;
#658 = CARTESIAN_POINT ( 'NONE',  ( -1.500000000000001110, 4.999999999999997335, 3.700000000000000622 ) ) ;
#659 = DIRECTION ( 'NONE',  ( 1.000000000000000000, 3.469446951953614189E-15, 0.000000000000000000 ) ) ;
#660 = COORDINATED_UNIVERSAL_TIME_OFFSET ( 8, 0, .AHEAD. ) ;
#661 = ORIENTED_EDGE ( 'NONE', *, *, #425, .F. ) ;
#662 = DIRECTION ( 'NONE',  ( 0.000000000000000000, -0.7660444431189769032, 0.6427876096865406952 ) ) ;
#663 = DIRECTION ( 'NONE',  ( -1.734723475976805122E-16, 1.000000000000000000, 0.000000000000000000 ) ) ;
#664 = APPROVAL ( #160, 'æœª' ) ;
#665 = EDGE_CURVE ( 'NONE', #1040, #400, #1019, .T. ) ;
#666 = ADVANCED_FACE ( 'NONE', ( #924 ), #264, .T. ) ;
#667 = DIRECTION ( 'NONE',  ( 0.000000000000000000, 0.000000000000000000, 1.000000000000000000 ) ) ;
#668 = FACE_OUTER_BOUND ( 'NONE', #158, .T. ) ;
#669 = LINE ( 'NONE', #595, #8 ) ;
#670 = CIRCLE ( 'NONE', #540, 0.5000000000000000000 ) ;
#671 = CIRCLE ( 'NONE', #183, 1.000000000000000444 ) ;
#672 = DIRECTION ( 'NONE',  ( 0.000000000000000000, -0.7660444431189769032, 0.6427876096865406952 ) ) ;
#673 = CIRCLE ( 'NONE', #97, 1.600000000000000533 ) ;
#674 = CARTESIAN_POINT ( 'NONE',  ( -2.500000000000000888, 4.499999999999998224, 3.700000000000000622 ) ) ;
#675 = CARTESIAN_POINT ( 'NONE',  ( -1.499999999999999334, 2.750000000000000000, 4.200000000000000178 ) ) ;
#676 = EDGE_CURVE ( 'NONE', #629, #402, #843, .T. ) ;
#677 = DIRECTION ( 'NONE',  ( -3.020171088909249006E-17, 0.7660444431189769032, -0.6427876096865406952 ) ) ;
#678 = CARTESIAN_POINT ( 'NONE',  ( -1.500000000000000444, -7.500000000000000888, 0.1584315640623777111 ) ) ;
#679 = ORIENTED_EDGE ( 'NONE', *, *, #703, .F. ) ;
#680 = CARTESIAN_POINT ( 'NONE',  ( 7.921059878812816201E-16, -2.750000000000000000, 4.200000000000000178 ) ) ;
#681 = EDGE_CURVE ( 'NONE', #723, #707, #655, .T. ) ;
#682 = ADVANCED_FACE ( 'NONE', ( #99 ), #24, .F. ) ;
#683 = ORIENTED_EDGE ( 'NONE', *, *, #408, .T. ) ;
#684 = CARTESIAN_POINT ( 'NONE',  ( -1.500000000000000888, -8.500000000000000000, 0.000000000000000000 ) ) ;
#685 = DIRECTION ( 'NONE',  ( -0.000000000000000000, -0.000000000000000000, -1.000000000000000000 ) ) ;
#686 = CIRCLE ( 'NONE', #413, 1.000000000000000888 ) ;
#687 =( GEOMETRIC_REPRESENTATION_CONTEXT ( 3 ) GLOBAL_UNCERTAINTY_ASSIGNED_CONTEXT ( ( #410 ) ) GLOBAL_UNIT_ASSIGNED_CONTEXT ( ( #751, #93, #430 ) ) REPRESENTATION_CONTEXT ( 'NONE', 'WORKASPACE' ) );
#688 = EDGE_LOOP ( 'NONE', ( #646, #46, #475, #141 ) ) ;
#689 = DIRECTION ( 'NONE',  ( 0.000000000000000000, -0.6427876096865406952, -0.7660444431189769032 ) ) ;
#690 = DIRECTION ( 'NONE',  ( -0.000000000000000000, -0.7660444431189769032, 0.6427876096865406952 ) ) ;
#691 = ORIENTED_EDGE ( 'NONE', *, *, #7, .F. ) ;
#692 = ORIENTED_EDGE ( 'NONE', *, *, #166, .F. ) ;
#693 = CYLINDRICAL_SURFACE ( 'NONE', #84, 0.5000000000000000000 ) ;
#694 = EDGE_CURVE ( 'NONE', #307, #192, #426, .T. ) ;
#695 = DIRECTION ( 'NONE',  ( 0.000000000000000000, -0.000000000000000000, -1.000000000000000000 ) ) ;
#696 = ORIENTED_EDGE ( 'NONE', *, *, #1033, .F. ) ;
#697 = CIRCLE ( 'NONE', #479, 1.000000000000000000 ) ;
#698 = CIRCLE ( 'NONE', #270, 0.9999999999999998890 ) ;
#699 = CIRCLE ( 'NONE', #938, 1.000000000000000000 ) ;
#700 = FACE_OUTER_BOUND ( 'NONE', #959, .T. ) ;
#701 = FACE_OUTER_BOUND ( 'NONE', #954, .T. ) ;
#702 = DIRECTION ( 'NONE',  ( 1.000000000000000000, 0.000000000000000000, 0.000000000000000000 ) ) ;
#703 = EDGE_CURVE ( 'NONE', #629, #1, #541, .T. ) ;
#704 = CARTESIAN_POINT ( 'NONE',  ( 0.000000000000000000, -9.125850985504568413, 7.657498196115728462 ) ) ;
#705 = ORIENTED_EDGE ( 'NONE', *, *, #499, .T. ) ;
#706 = DIRECTION ( 'NONE',  ( 1.000000000000000000, 0.000000000000000000, 0.000000000000000000 ) ) ;
#707 = VERTEX_POINT ( 'NONE', #1017 ) ;
#708 = DIRECTION ( 'NONE',  ( 0.000000000000000000, 0.7660444431189765702, -0.6427876096865410283 ) ) ;
#709 = MANIFOLD_SOLID_BREP ( '\X2\570689d2\X0\2', #94 ) ;
#710 = VERTEX_POINT ( 'NONE', #520 ) ;
#711 = FACE_OUTER_BOUND ( 'NONE', #148, .T. ) ;
#712 = DIRECTION ( 'NONE',  ( 1.000000000000000000, 0.000000000000000000, 0.000000000000000000 ) ) ;
#713 = VERTEX_POINT ( 'NONE', #277 ) ;
#714 = ADVANCED_FACE ( 'NONE', ( #366 ), #771, .T. ) ;
#715 = CARTESIAN_POINT ( 'NONE',  ( -2.266562081665965511, -5.950821102966761700, 4.142909209372191981 ) ) ;
#716 = AXIS2_PLACEMENT_3D ( 'NONE', #501, #485, #77 ) ;
#717 = PERSON_AND_ORGANIZATION ( #340, #199 ) ;
#718 = AXIS2_PLACEMENT_3D ( 'NONE', #1049, #625, #550 ) ;
#719 = VERTEX_POINT ( 'NONE', #601 ) ;
#720 = DIRECTION ( 'NONE',  ( -6.040342177818498011E-17, 0.7660444431189769032, -0.6427876096865406952 ) ) ;
#721 = CARTESIAN_POINT ( 'NONE',  ( -1.500000000000001332, 5.499999999999998224, 4.200000000000000178 ) ) ;
#722 = ORIENTED_EDGE ( 'NONE', *, *, #603, .T. ) ;
#723 = VERTEX_POINT ( 'NONE', #684 ) ;
#724 = DIRECTION ( 'NONE',  ( 1.000000000000000000, -8.673617379884035472E-16, 0.000000000000000000 ) ) ;
#725 = CALENDAR_DATE ( 2026, 24, 5 ) ;
#726 = ORIENTED_EDGE ( 'NONE', *, *, #960, .F. ) ;
#727 = CARTESIAN_POINT ( 'NONE',  ( 0.000000000000000000, -7.623849456218014353, 0.8910328669927212175 ) ) ;
#728 = EDGE_LOOP ( 'NONE', ( #1009, #656 ) ) ;
#729 = DIRECTION ( 'NONE',  ( 0.000000000000000000, 0.6427876096865414723, 0.7660444431189763481 ) ) ;
#730 = ORIENTED_EDGE ( 'NONE', *, *, #575, .F. ) ;
#731 = FACE_OUTER_BOUND ( 'NONE', #880, .T. ) ;
#732 = PERSON_AND_ORGANIZATION ( #340, #199 ) ;
#733 = ORIENTED_EDGE ( 'NONE', *, *, #604, .F. ) ;
#734 = CYLINDRICAL_SURFACE ( 'NONE', #716, 1.000000000000000444 ) ;
#735 = CARTESIAN_POINT ( 'NONE',  ( -2.500000000000000888, 4.499999999999998224, 0.000000000000000000 ) ) ;
#736 = DATE_AND_TIME ( #725, #912 ) ;
#737 = AXIS2_PLACEMENT_3D ( 'NONE', #473, #395, #380 ) ;
#738 = CIRCLE ( 'NONE', #585, 1.000000000000000000 ) ;
#739 = ORIENTED_EDGE ( 'NONE', *, *, #9, .F. ) ;
#740 = LOCAL_TIME ( 17, 46, 16.00000000000000000, #660 ) ;
#741 = CARTESIAN_POINT ( 'NONE',  ( 0.000000000000000000, -7.623849456218014353, 0.8910328669927214396 ) ) ;
#742 = DIRECTION ( 'NONE',  ( 1.000000000000000000, 0.000000000000000000, 0.000000000000000000 ) ) ;
#743 = ADVANCED_FACE ( 'NONE', ( #700 ), #693, .T. ) ;
#744 = EDGE_CURVE ( 'NONE', #438, #235, #1005, .T. ) ;
#745 = DIRECTION ( 'NONE',  ( 0.000000000000000000, -0.6427876096865410283, -0.7660444431189765702 ) ) ;
#746 = CARTESIAN_POINT ( 'NONE',  ( 2.000000000000000444, 4.499999999999998224, 4.200000000000000178 ) ) ;
#747 = DIRECTION ( 'NONE',  ( -1.000000000000000000, -1.734723475976806848E-16, 0.000000000000000000 ) ) ;
#748 = DIRECTION ( 'NONE',  ( -1.000000000000000000, -1.734723475976806848E-16, 0.000000000000000000 ) ) ;
#749 = CARTESIAN_POINT ( 'NONE',  ( 7.921059878812816201E-16, -2.750000000000000000, 4.200000000000000178 ) ) ;
#750 = EDGE_CURVE ( 'NONE', #872, #809, #1015, .T. ) ;
#751 =( LENGTH_UNIT ( ) NAMED_UNIT ( * ) SI_UNIT ( .MILLI., .METRE. ) );
#752 = CIRCLE ( 'NONE', #169, 0.5000000000000000000 ) ;
#753 = AXIS2_PLACEMENT_3D ( 'NONE', #92, #597, #998 ) ;
#754 = CARTESIAN_POINT ( 'NONE',  ( -1.500000000000000444, -12.33022221559488507, 3.838677270650079354 ) ) ;
#755 = VECTOR ( 'NONE', #932, 1000.000000000000000 ) ;
#756 = ORIENTED_EDGE ( 'NONE', *, *, #744, .F. ) ;
#757 = CARTESIAN_POINT ( 'NONE',  ( 1.500000000000001554, -7.500000000000000888, 0.000000000000000000 ) ) ;
#758 = DIRECTION ( 'NONE',  ( -7.885106708985487801E-17, 1.000000000000000000, 0.000000000000000000 ) ) ;
#759 = EDGE_CURVE ( 'NONE', #132, #365, #502, .T. ) ;
#760 = ORIENTED_EDGE ( 'NONE', *, *, #584, .T. ) ;
#761 = DIRECTION ( 'NONE',  ( 1.000000000000000000, 0.000000000000000000, 0.000000000000000000 ) ) ;
#762 = ORIENTED_EDGE ( 'NONE', *, *, #883, .T. ) ;
#763 = CARTESIAN_POINT ( 'NONE',  ( 2.500000000000001332, -7.500000000000000888, 0.000000000000000000 ) ) ;
#764 = CARTESIAN_POINT ( 'NONE',  ( 1.500000000000001554, -8.500000000000000000, 0.1584315640623777111 ) ) ;
#765 = AXIS2_PLACEMENT_3D ( 'NONE', #354, #685, #1007 ) ;
#766 = DIRECTION ( 'NONE',  ( 0.000000000000000000, -0.6427876096865406952, -0.7660444431189770143 ) ) ;
#767 = APPROVAL_PERSON_ORGANIZATION ( #556, #477, #969 ) ;
#768 = ADVANCED_FACE ( 'NONE', ( #107 ), #117, .F. ) ;
#769 = EDGE_CURVE ( 'NONE', #713, #307, #153, .T. ) ;
#770 = ORIENTED_EDGE ( 'NONE', *, *, #437, .T. ) ;
#771 = PLANE ( 'NONE',  #582 ) ;
#772 = ORIENTED_EDGE ( 'NONE', *, *, #425, .T. ) ;
#773 = CC_DESIGN_PERSON_AND_ORGANIZATION_ASSIGNMENT ( #824, #164, ( #978 ) ) ;
#774 = CARTESIAN_POINT ( 'NONE',  ( 2.000000000000000444, 4.499999999999999112, 3.700000000000000622 ) ) ;
#775 = ORIENTED_EDGE ( 'NONE', *, *, #339, .F. ) ;
#776 = CARTESIAN_POINT ( 'NONE',  ( -2.500000000000000000, -12.33022221559488507, 3.838677270650079354 ) ) ;
#777 = LINE ( 'NONE', #1035, #630 ) ;
#778 = ORIENTED_EDGE ( 'NONE', *, *, #849, .T. ) ;
#779 = AXIS2_PLACEMENT_3D ( 'NONE', #945, #45, #200 ) ;
#780 = PRODUCT ( '\X2\753578c1652f67b6\X0\v1.0.0', '\X2\753578c1652f67b6\X0\v1.0.0', '', ( #389 ) ) ;
#781 = VECTOR ( 'NONE', #338, 1000.000000000000000 ) ;
#782 = AXIS2_PLACEMENT_3D ( 'NONE', #618, #616, #198 ) ;
#783 = VERTEX_POINT ( 'NONE', #459 ) ;
#784 = DIRECTION ( 'NONE',  ( 7.885106708985487801E-17, -1.000000000000000000, 0.000000000000000000 ) ) ;
#785 = CARTESIAN_POINT ( 'NONE',  ( -1.500000000000001332, 4.999999999999997335, 4.200000000000000178 ) ) ;
#786 = ORIENTED_EDGE ( 'NONE', *, *, #821, .T. ) ;
#787 = DIRECTION ( 'NONE',  ( -4.336808689942017736E-16, 0.000000000000000000, -1.000000000000000000 ) ) ;
#788 = DIRECTION ( 'NONE',  ( -1.000000000000000000, -7.885106708985489034E-17, 0.000000000000000000 ) ) ;
#789 = EDGE_CURVE ( 'NONE', #41, #885, #281, .T. ) ;
#790 = EDGE_CURVE ( 'NONE', #642, #593, #205, .T. ) ;
#791 = ORIENTED_EDGE ( 'NONE', *, *, #437, .F. ) ;
#792 = CARTESIAN_POINT ( 'NONE',  ( -2.500000000000000444, -9.330222215594877966, 7.413938048432705763 ) ) ;
#793 = CARTESIAN_POINT ( 'NONE',  ( 1.500000000000001554, -7.500000000000000888, 0.000000000000000000 ) ) ;
#794 = EDGE_LOOP ( 'NONE', ( #565, #483, #739, #845 ) ) ;
#795 = CARTESIAN_POINT ( 'NONE',  ( 1.500000000000000222, 5.499999999999999112, 3.700000000000000622 ) ) ;
#796 = DATE_AND_TIME ( #803, #172 ) ;
#797 = DIRECTION ( 'NONE',  ( -0.000000000000000000, -0.7660444431189769032, 0.6427876096865406952 ) ) ;
#798 = DIRECTION ( 'NONE',  ( 0.000000000000000000, 0.000000000000000000, 1.000000000000000000 ) ) ;
#799 = ORIENTED_EDGE ( 'NONE', *, *, #368, .T. ) ;
#800 = ORIENTED_EDGE ( 'NONE', *, *, #231, .T. ) ;
#801 = CARTESIAN_POINT ( 'NONE',  ( -2.135847188946558894, -5.830445086559909562, 4.200000000000001066 ) ) ;
#802 = AXIS2_PLACEMENT_3D ( 'NONE', #420, #330, #994 ) ;
#803 = CALENDAR_DATE ( 2026, 24, 5 ) ;
#804 = APPROVAL_PERSON_ORGANIZATION ( #59, #664, #495 ) ;
#805 = EDGE_LOOP ( 'NONE', ( #733, #1044, #69, #979, #142 ) ) ;
#806 = DIRECTION ( 'NONE',  ( 0.000000000000000000, -0.7660444431189769032, 0.6427876096865406952 ) ) ;
#807 = ADVANCED_FACE ( 'NONE', ( #273 ), #374, .F. ) ;
#808 = DIRECTION ( 'NONE',  ( 1.000000000000000000, 1.734723475976806848E-16, 0.000000000000000000 ) ) ;
#809 = VERTEX_POINT ( 'NONE', #287 ) ;
#810 = CARTESIAN_POINT ( 'NONE',  ( 6.846743925732087952E-16, 2.750000000000000000, 4.200000000000000178 ) ) ;
#811 = ORIENTED_EDGE ( 'NONE', *, *, #66, .T. ) ;
#812 = CARTESIAN_POINT ( 'NONE',  ( -1.500000000000001332, 5.499999999999998224, 3.700000000000000622 ) ) ;
#813 = ORIENTED_EDGE ( 'NONE', *, *, #694, .T. ) ;
#814 = ORIENTED_EDGE ( 'NONE', *, *, #7, .T. ) ;
#815 = DIRECTION ( 'NONE',  ( -0.000000000000000000, -0.000000000000000000, -1.000000000000000000 ) ) ;
#816 = ORIENTED_EDGE ( 'NONE', *, *, #759, .T. ) ;
#817 = CARTESIAN_POINT ( 'NONE',  ( -2.403932489184356314, -6.139981012455570486, 4.001901510369767045 ) ) ;
#818 = COORDINATED_UNIVERSAL_TIME_OFFSET ( 8, 0, .AHEAD. ) ;
#819 = ORIENTED_EDGE ( 'NONE', *, *, #34, .T. ) ;
#820 = LINE ( 'NONE', #82, #977 ) ;
#821 = EDGE_CURVE ( 'NONE', #474, #642, #39, .T. ) ;
#822 = ADVANCED_FACE ( 'NONE', ( #370 ), #439, .T. ) ;
#823 = CYLINDRICAL_SURFACE ( 'NONE', #64, 1.500000000000000000 ) ;
#824 = PERSON_AND_ORGANIZATION ( #340, #199 ) ;
#825 = AXIS2_PLACEMENT_3D ( 'NONE', #11, #662, #249 ) ;
#826 = CIRCLE ( 'NONE', #484, 0.9999999999999997780 ) ;
#827 = CARTESIAN_POINT ( 'NONE',  ( -1.500000000000000444, -8.500000000000000000, 0.1584315640623777111 ) ) ;
#828 = ADVANCED_BREP_SHAPE_REPRESENTATION ( '\X2\753578c1652f67b6\X0\v1.0.0', ( #709, #528 ), #687 ) ;
#829 = CARTESIAN_POINT ( 'NONE',  ( -2.000000000000000888, -7.885106708985492732E-17, 3.700000000000000622 ) ) ;
#830 = CARTESIAN_POINT ( 'NONE',  ( -1.500000000000000222, -9.500000000000001776, 0.1584315640623777111 ) ) ;
#831 = ADVANCED_FACE ( 'NONE', ( #447 ), #258, .T. ) ;
#832 = DIRECTION ( 'NONE',  ( 1.000000000000000000, 4.336808689942013299E-16, 4.336808689942017243E-16 ) ) ;
#833 = CARTESIAN_POINT ( 'NONE',  ( 0.000000000000000000, -5.499999999999992006, 4.200000000000000178 ) ) ;
#834 = DIRECTION ( 'NONE',  ( 0.000000000000000000, 0.000000000000000000, 1.000000000000000000 ) ) ;
#835 = AXIS2_PLACEMENT_3D ( 'NONE', #376, #194, #939 ) ;
#836 = VERTEX_POINT ( 'NONE', #763 ) ;
#837 = VECTOR ( 'NONE', #980, 1000.000000000000000 ) ;
#838 = DIRECTION ( 'NONE',  ( -0.000000000000000000, -0.000000000000000000, -1.000000000000000000 ) ) ;
#839 = AXIS2_PLACEMENT_3D ( 'NONE', #101, #15, #424 ) ;
#840 = EDGE_CURVE ( 'NONE', #73, #98, #201, .T. ) ;
#841 = LINE ( 'NONE', #987, #397 ) ;
#842 = ORIENTED_EDGE ( 'NONE', *, *, #266, .F. ) ;
#843 = LINE ( 'NONE', #1011, #481 ) ;
#844 = APPLICATION_CONTEXT ( 'configuration controlled 3d designs of mechanical parts and assemblies' ) ;
#845 = ORIENTED_EDGE ( 'NONE', *, *, #34, .F. ) ;
#846 = CARTESIAN_POINT ( 'NONE',  ( -2.500000000000000000, -8.857212390313460304, 0.9244760071813549196 ) ) ;
#847 = CARTESIAN_POINT ( 'NONE',  ( 7.921059878812816201E-16, -2.750000000000000000, 4.200000000000000178 ) ) ;
#848 = PRODUCT_DEFINITION ( 'æœ', '', #978, #100 ) ;
#849 = EDGE_CURVE ( 'NONE', #222, #881, #673, .T. ) ;
#850 = EDGE_CURVE ( 'NONE', #881, #222, #85, .T. ) ;
#851 = EDGE_LOOP ( 'NONE', ( #935, #722, #156, #1032, #76, #118, #857, #446 ) ) ;
#852 = DIRECTION ( 'NONE',  ( 0.000000000000000000, -0.6427876096865410283, -0.7660444431189765702 ) ) ;
#853 = VECTOR ( 'NONE', #758, 1000.000000000000000 ) ;
#854 = FACE_OUTER_BOUND ( 'NONE', #412, .T. ) ;
#855 = CARTESIAN_POINT ( 'NONE',  ( 0.000000000000000000, -6.595389280719547997, 2.116703975983084796 ) ) ;
#856 = ADVANCED_FACE ( 'NONE', ( #480 ), #964, .F. ) ;
#857 = ORIENTED_EDGE ( 'NONE', *, *, #909, .T. ) ;
#858 = DIRECTION ( 'NONE',  ( 7.885106708985489034E-17, -1.000000000000000000, 0.000000000000000000 ) ) ;
#859 = DIRECTION ( 'NONE',  ( 3.020171088909249006E-17, -0.7660444431189769032, 0.6427876096865406952 ) ) ;
#860 = DIRECTION ( 'NONE',  ( 1.000000000000000000, 0.000000000000000000, -4.336808689942018229E-16 ) ) ;
#861 = ORIENTED_EDGE ( 'NONE', *, *, #25, .T. ) ;
#862 = CARTESIAN_POINT ( 'NONE',  ( -1.500000000000000888, 4.499999999999998224, 3.700000000000000622 ) ) ;
#863 = CARTESIAN_POINT ( 'NONE',  ( 2.500000000000000444, 5.499999999999999112, 4.200000000000000178 ) ) ;
#864 = EDGE_CURVE ( 'NONE', #1027, #719, #146, .T. ) ;
#865 = VERTEX_POINT ( 'NONE', #632 ) ;
#866 = FACE_OUTER_BOUND ( 'NONE', #314, .T. ) ;
#867 = ADVANCED_FACE ( 'NONE', ( #47 ), #234, .F. ) ;
#868 = AXIS2_PLACEMENT_3D ( 'NONE', #957, #120, #227 ) ;
#869 = CARTESIAN_POINT ( 'NONE',  ( -2.000000000000000888, -5.708427471526543506, 4.200000000000000178 ) ) ;
#870 = AXIS2_PLACEMENT_3D ( 'NONE', #274, #690, #602 ) ;
#871 = VECTOR ( 'NONE', #42, 1000.000000000000000 ) ;
#872 = VERTEX_POINT ( 'NONE', #379 ) ;
#873 = DIRECTION ( 'NONE',  ( 1.000000000000000000, 0.000000000000000000, -0.000000000000000000 ) ) ;
#874 = CARTESIAN_POINT ( 'NONE',  ( -1.500000000000000222, -9.330222215594877966, 7.413938048432705763 ) ) ;
#875 = ORIENTED_EDGE ( 'NONE', *, *, #703, .T. ) ;
#876 = CARTESIAN_POINT ( 'NONE',  ( 1.500000000000001554, -7.857212390313464745, 1.390783665336355446 ) ) ;
#877 = COORDINATED_UNIVERSAL_TIME_OFFSET ( 8, 0, .AHEAD. ) ;
#878 = DIRECTION ( 'NONE',  ( 0.000000000000000000, 0.6427876096865410283, 0.7660444431189765702 ) ) ;
#879 = CARTESIAN_POINT ( 'NONE',  ( -2.500000000000000444, -6.459847030563297565, 3.700000000000000622 ) ) ;
#880 = EDGE_LOOP ( 'NONE', ( #263, #896, #643, #967, #813, #1004, #350, #29 ) ) ;
#881 = VERTEX_POINT ( 'NONE', #727 ) ;
#882 = CARTESIAN_POINT ( 'NONE',  ( -1.500000000000000222, -9.500000000000001776, 0.1584315640623777111 ) ) ;
#883 = EDGE_CURVE ( 'NONE', #222, #1040, #567, .T. ) ;
#884 = APPROVAL_DATE_TIME ( #736, #477 ) ;
#885 = VERTEX_POINT ( 'NONE', #466 ) ;
#886 = DIRECTION ( 'NONE',  ( -0.000000000000000000, -0.7660444431189769032, 0.6427876096865406952 ) ) ;
#887 = CARTESIAN_POINT ( 'NONE',  ( -1.500000000000000888, 4.499999999999998224, 4.200000000000000178 ) ) ;
#888 = ORIENTED_EDGE ( 'NONE', *, *, #575, .T. ) ;
#889 = ORIENTED_EDGE ( 'NONE', *, *, #789, .F. ) ;
#890 = DIRECTION ( 'NONE',  ( 0.000000000000000000, 0.6427876096865412503, 0.7660444431189764591 ) ) ;
#891 = CIRCLE ( 'NONE', #109, 0.9999999999999997780 ) ;
#892 = CIRCLE ( 'NONE', #31, 1.500000000000000000 ) ;
#893 = PERSON_AND_ORGANIZATION_ROLE ( 'design_owner' ) ;
#894 = VECTOR ( 'NONE', #797, 1000.000000000000000 ) ;
#895 = ORIENTED_EDGE ( 'NONE', *, *, #368, .F. ) ;
#896 = ORIENTED_EDGE ( 'NONE', *, *, #448, .T. ) ;
#897 = CARTESIAN_POINT ( 'NONE',  ( -1.500000000000000444, -8.500000000000000000, 0.000000000000000000 ) ) ;
#898 = ORIENTED_EDGE ( 'NONE', *, *, #377, .T. ) ;
#899 = DIRECTION ( 'NONE',  ( -0.000000000000000000, -0.000000000000000000, -1.000000000000000000 ) ) ;
#900 = ADVANCED_FACE ( 'NONE', ( #392 ), #1020, .T. ) ;
#901 = ORIENTED_EDGE ( 'NONE', *, *, #175, .F. ) ;
#902 = DIRECTION ( 'NONE',  ( 0.000000000000000000, -1.000000000000000000, 0.000000000000000000 ) ) ;
#903 = B_SPLINE_CURVE_WITH_KNOTS ( 'NONE', 3,
 ( #50, #382, #449, #482, #48, #461 ),
 .UNSPECIFIED., .F., .F.,
 ( 4, 2, 4 ),
 ( -8.626911281461979489E-06, 0.0005359524892329566850, 0.001080531889747375195 ),
 .UNSPECIFIED. ) ;
#904 = CARTESIAN_POINT ( 'NONE',  ( 1.500000000000000888, -2.750000000000000000, 0.000000000000000000 ) ) ;
#905 = APPROVAL_DATE_TIME ( #645, #135 ) ;
#906 = LINE ( 'NONE', #993, #527 ) ;
#907 = FACE_OUTER_BOUND ( 'NONE', #462, .T. ) ;
#908 = DIRECTION ( 'NONE',  ( 1.000000000000000000, 0.000000000000000000, 0.000000000000000000 ) ) ;
#909 = EDGE_CURVE ( 'NONE', #865, #836, #472, .T. ) ;
#910 = AXIS2_PLACEMENT_3D ( 'NONE', #399, #651, #572 ) ;
#911 = AXIS2_PLACEMENT_3D ( 'NONE', #422, #672, #745 ) ;
#912 = LOCAL_TIME ( 17, 46, 16.00000000000000000, #242 ) ;
#913 = CARTESIAN_POINT ( 'NONE',  ( 2.500000000000001332, -7.055723826860401005, 3.700000000000000622 ) ) ;
#914 = CYLINDRICAL_SURFACE ( 'NONE', #253, 0.5000000000000004441 ) ;
#915 = FACE_OUTER_BOUND ( 'NONE', #918, .T. ) ;
#916 = LINE ( 'NONE', #833, #991 ) ;
#917 = DIRECTION ( 'NONE',  ( 0.000000000000000000, 1.000000000000000000, 5.339695699491104604E-15 ) ) ;
#918 = EDGE_LOOP ( 'NONE', ( #36, #552, #811, #692, #352 ) ) ;
#919 = DIRECTION ( 'NONE',  ( -0.000000000000000000, -0.000000000000000000, -1.000000000000000000 ) ) ;
#920 = CARTESIAN_POINT ( 'NONE',  ( 1.500000000000001554, -7.500000000000000888, 0.1584315640623777111 ) ) ;
#921 = AXIS2_PLACEMENT_3D ( 'NONE', #1016, #130, #463 ) ;
#922 = ORIENTED_EDGE ( 'NONE', *, *, #187, .T. ) ;
#923 = CIRCLE ( 'NONE', #127, 0.5000000000000000000 ) ;
#924 = FACE_OUTER_BOUND ( 'NONE', #321, .T. ) ;
#925 = VECTOR ( 'NONE', #999, 1000.000000000000000 ) ;
#926 = ADVANCED_FACE ( 'NONE', ( #647, #138, #1028 ), #55, .T. ) ;
#927 = EDGE_CURVE ( 'NONE', #73, #783, #210, .T. ) ;
#928 = ORIENTED_EDGE ( 'NONE', *, *, #960, .T. ) ;
#929 = CARTESIAN_POINT ( 'NONE',  ( 2.000000000000000888, 1.577021341797098546E-16, 3.700000000000000622 ) ) ;
#930 = CARTESIAN_POINT ( 'NONE',  ( -2.500000000000000444, -9.330222215594877966, 7.413938048432705763 ) ) ;
#931 = VERTEX_POINT ( 'NONE', #385 ) ;
#932 = DIRECTION ( 'NONE',  ( 0.000000000000000000, 0.000000000000000000, 1.000000000000000000 ) ) ;
#933 = CARTESIAN_POINT ( 'NONE',  ( -1.499999999999999112, -2.750000000000000000, 4.200000000000000178 ) ) ;
#934 = ADVANCED_FACE ( 'NONE', ( #711 ), #1034, .T. ) ;
#935 = ORIENTED_EDGE ( 'NONE', *, *, #1003, .T. ) ;
#936 = DIRECTION ( 'NONE',  ( -1.000000000000000000, 0.000000000000000000, 0.000000000000000000 ) ) ;
#937 = VECTOR ( 'NONE', #180, 1000.000000000000000 ) ;
#938 = AXIS2_PLACEMENT_3D ( 'NONE', #678, #171, #347 ) ;
#939 = DIRECTION ( 'NONE',  ( 1.000000000000000000, 0.000000000000000000, 0.000000000000000000 ) ) ;
#940 = DIRECTION ( 'NONE',  ( -0.000000000000000000, -0.000000000000000000, -1.000000000000000000 ) ) ;
#941 = CARTESIAN_POINT ( 'NONE',  ( -1.500000000000000444, -7.500000000000000888, 0.000000000000000000 ) ) ;
#942 = ORIENTED_EDGE ( 'NONE', *, *, #624, .T. ) ;
#943 = EDGE_CURVE ( 'NONE', #872, #593, #346, .T. ) ;
#944 = CARTESIAN_POINT ( 'NONE',  ( -2.000000000000000888, 4.499999999999998224, 3.700000000000000622 ) ) ;
#945 = CARTESIAN_POINT ( 'NONE',  ( 7.921059878812816201E-16, -2.750000000000000000, 0.000000000000000000 ) ) ;
#946 = DIRECTION ( 'NONE',  ( 0.000000000000000000, -0.6427876096865406952, -0.7660444431189769032 ) ) ;
#947 = ORIENTED_EDGE ( 'NONE', *, *, #9, .T. ) ;
#948 = DIRECTION ( 'NONE',  ( 0.000000000000000000, 0.000000000000000000, 1.000000000000000000 ) ) ;
#949 = EDGE_LOOP ( 'NONE', ( #299, #635, #889, #942 ) ) ;
#950 = VECTOR ( 'NONE', #163, 1000.000000000000000 ) ;
#951 = CYLINDRICAL_SURFACE ( 'NONE', #500, 1.000000000000000000 ) ;
#952 = AXIS2_PLACEMENT_3D ( 'NONE', #680, #1001, #761 ) ;
#953 = VECTOR ( 'NONE', #589, 1000.000000000000000 ) ;
#954 = EDGE_LOOP ( 'NONE', ( #398, #922, #301, #486, #305, #705, #26, #898 ) ) ;
#955 = DIRECTION ( 'NONE',  ( 0.000000000000000000, -0.6427876096865408062, -0.7660444431189767922 ) ) ;
#956 = CC_DESIGN_DATE_AND_TIME_ASSIGNMENT ( #564, #489, ( #848 ) ) ;
#957 = CARTESIAN_POINT ( 'NONE',  ( 0.000000000000000000, 0.000000000000000000, 0.000000000000000000 ) ) ;
#958 = ORIENTED_EDGE ( 'NONE', *, *, #275, .F. ) ;
#959 = EDGE_LOOP ( 'NONE', ( #291, #360, #816, #661 ) ) ;
#960 = EDGE_CURVE ( 'NONE', #963, #402, #657, .T. ) ;
#961 = CARTESIAN_POINT ( 'NONE',  ( -1.500000000000000888, 4.499999999999998224, 3.700000000000000622 ) ) ;
#962 = PERSON_AND_ORGANIZATION ( #340, #199 ) ;
#963 = VERTEX_POINT ( 'NONE', #262 ) ;
#964 = PLANE ( 'NONE',  #256 ) ;
#965 = CARTESIAN_POINT ( 'NONE',  ( 2.000000000000001776, -5.708427471526543506, 4.200000000000000178 ) ) ;
#966 = EDGE_LOOP ( 'NONE', ( #248, #679 ) ) ;
#967 = ORIENTED_EDGE ( 'NONE', *, *, #769, .T. ) ;
#968 = CYLINDRICAL_SURFACE ( 'NONE', #976, 1.000000000000000000 ) ;
#969 = APPROVAL_ROLE ( '' ) ;
#970 = ORIENTED_EDGE ( 'NONE', *, *, #16, .T. ) ;
#971 = CARTESIAN_POINT ( 'NONE',  ( 2.500000000000001332, -7.857212390313464745, 1.390783665336355002 ) ) ;
#972 = ORIENTED_EDGE ( 'NONE', *, *, #790, .T. ) ;
#973 = DIRECTION ( 'NONE',  ( -0.000000000000000000, -0.7660444431189769032, 0.6427876096865406952 ) ) ;
#974 = ORIENTED_EDGE ( 'NONE', *, *, #584, .F. ) ;
#975 = CARTESIAN_POINT ( 'NONE',  ( 1.959434878635765723E-16, -5.566929105221082530, 3.342375084973448374 ) ) ;
#976 = AXIS2_PLACEMENT_3D ( 'NONE', #74, #230, #563 ) ;
#977 = VECTOR ( 'NONE', #988, 1000.000000000000000 ) ;
#978 = PRODUCT_DEFINITION_FORMATION_WITH_SPECIFIED_SOURCE ( 'ä»', '', #780, .NOT_KNOWN. ) ;
#979 = ORIENTED_EDGE ( 'NONE', *, *, #275, .T. ) ;
#980 = DIRECTION ( 'NONE',  ( -0.000000000000000000, 0.6427876096865406952, 0.7660444431189769032 ) ) ;
#981 = CYLINDRICAL_SURFACE ( 'NONE', #44, 0.5000000000000000000 ) ;
#982 = PERSON_AND_ORGANIZATION_ROLE ( 'classification_officer' ) ;
#983 = ORIENTED_EDGE ( 'NONE', *, *, #545, .T. ) ;
#984 = EDGE_CURVE ( 'NONE', #185, #128, #669, .T. ) ;
#985 = DIRECTION ( 'NONE',  ( 0.000000000000000000, 0.7660444431189769032, -0.6427876096865406952 ) ) ;
#986 = CARTESIAN_POINT ( 'NONE',  ( 1.500000000000001110, -5.499999999999992006, 4.200000000000000178 ) ) ;
#987 = CARTESIAN_POINT ( 'NONE',  ( 2.500000000000001332, -6.142787609686537920, 3.433955556881028048 ) ) ;
#988 = DIRECTION ( 'NONE',  ( 0.000000000000000000, 0.000000000000000000, -1.000000000000000000 ) ) ;
#989 = CARTESIAN_POINT ( 'NONE',  ( 2.000000000000000444, 4.499999999999998224, 4.200000000000000178 ) ) ;
#990 = LINE ( 'NONE', #257, #953 ) ;
#991 = VECTOR ( 'NONE', #177, 1000.000000000000000 ) ;
#992 = CIRCLE ( 'NONE', #239, 1.500000000000000000 ) ;
#993 = CARTESIAN_POINT ( 'NONE',  ( -1.500000000000001332, 4.999999999999999112, 4.200000000000000178 ) ) ;
#994 = DIRECTION ( 'NONE',  ( 1.000000000000000000, 3.469446951953614189E-15, 0.000000000000000000 ) ) ;
#995 = EDGE_CURVE ( 'NONE', #931, #593, #699, .T. ) ;
#996 = DIRECTION ( 'NONE',  ( -1.000000000000000000, -3.942553354492744517E-17, 0.000000000000000000 ) ) ;
#997 = VERTEX_POINT ( 'NONE', #421 ) ;
#998 = DIRECTION ( 'NONE',  ( 0.000000000000000000, -0.6427876096865406952, -0.7660444431189770143 ) ) ;
#999 = DIRECTION ( 'NONE',  ( -0.000000000000000000, -0.000000000000000000, 1.000000000000000000 ) ) ;
#1000 = VERTEX_POINT ( 'NONE', #349 ) ;
#1001 = DIRECTION ( 'NONE',  ( 0.000000000000000000, 0.000000000000000000, 1.000000000000000000 ) ) ;
#1002 = EDGE_CURVE ( 'NONE', #836, #547, #181, .T. ) ;
#1003 = EDGE_CURVE ( 'NONE', #547, #132, #505, .T. ) ;
#1004 = ORIENTED_EDGE ( 'NONE', *, *, #604, .T. ) ;
#1005 = LINE ( 'NONE', #1023, #1006 ) ;
#1006 = VECTOR ( 'NONE', #940, 1000.000000000000000 ) ;
#1007 = DIRECTION ( 'NONE',  ( 1.000000000000000000, 0.000000000000000000, 0.000000000000000000 ) ) ;
#1008 = CC_DESIGN_APPROVAL ( #135, ( #978 ) ) ;
#1009 = ORIENTED_EDGE ( 'NONE', *, *, #51, .F. ) ;
#1010 = CARTESIAN_POINT ( 'NONE',  ( 1.500000000000001332, -9.973009825281417662, 6.647893605313727861 ) ) ;
#1011 = CARTESIAN_POINT ( 'NONE',  ( 1.500000000000000888, -2.750000000000000000, 4.200000000000000178 ) ) ;
#1012 = EDGE_LOOP ( 'NONE', ( #775, #441, #371, #568 ) ) ;
#1013 = EDGE_CURVE ( 'NONE', #102, #931, #614, .T. ) ;
#1014 = ORIENTED_EDGE ( 'NONE', *, *, #487, .T. ) ;
#1015 = LINE ( 'NONE', #846, #213 ) ;
#1016 = CARTESIAN_POINT ( 'NONE',  ( 1.500000000000000444, 4.499999999999999112, 3.700000000000000622 ) ) ;
#1017 = CARTESIAN_POINT ( 'NONE',  ( -2.500000000000000444, -7.500000000000000888, 0.000000000000000000 ) ) ;
#1018 = AXIS2_PLACEMENT_3D ( 'NONE', #863, #62, #808 ) ;
#1019 = CIRCLE ( 'NONE', #753, 1.599999999999999645 ) ;
#1020 = TOROIDAL_SURFACE ( 'NONE', #460, 2.000000000000000000, 1.000000000000000000 ) ;
#1021 = CARTESIAN_POINT ( 'NONE',  ( 1.500000000000000222, 5.499999999999999112, 4.200000000000000178 ) ) ;
#1022 = EDGE_CURVE ( 'NONE', #233, #713, #841, .T. ) ;
#1023 = CARTESIAN_POINT ( 'NONE',  ( 1.500000000000000666, 2.750000000000000000, 4.200000000000000178 ) ) ;
#1024 = DIRECTION ( 'NONE',  ( 1.000000000000000000, 1.734723475976806848E-16, -0.000000000000000000 ) ) ;
#1025 = CARTESIAN_POINT ( 'NONE',  ( -1.500000000000000222, -12.33022221559488507, 3.838677270650079354 ) ) ;
#1026 = LINE ( 'NONE', #494, #236 ) ;
#1027 = VERTEX_POINT ( 'NONE', #265 ) ;
#1028 = FACE_BOUND ( 'NONE', #966, .T. ) ;
#1029 = CARTESIAN_POINT ( 'NONE',  ( -1.500000000000001332, 5.499999999999998224, 0.000000000000000000 ) ) ;
#1030 = ORIENTED_EDGE ( 'NONE', *, *, #559, .T. ) ;
#1031 = FACE_OUTER_BOUND ( 'NONE', #688, .T. ) ;
#1032 = ORIENTED_EDGE ( 'NONE', *, *, #436, .F. ) ;
#1033 = EDGE_CURVE ( 'NONE', #865, #642, #826, .T. ) ;
#1034 = CYLINDRICAL_SURFACE ( 'NONE', #416, 1.000000000000000444 ) ;
#1035 = CARTESIAN_POINT ( 'NONE',  ( 1.500000000000000222, 5.499999999999999112, 3.700000000000000622 ) ) ;
#1036 = AXIS2_PLACEMENT_3D ( 'NONE', #944, #206, #536 ) ;
#1037 = ORIENTED_EDGE ( 'NONE', *, *, #559, .F. ) ;
#1038 = CARTESIAN_POINT ( 'NONE',  ( -2.439361717380276851, -6.202859013713503344, 3.947131946218983778 ) ) ;
#1039 = CC_DESIGN_SECURITY_CLASSIFICATION ( #504, ( #978 ) ) ;
#1040 = VERTEX_POINT ( 'NONE', #19 ) ;
#1041 = CARTESIAN_POINT ( 'NONE',  ( 0.000000000000000000, -6.595389280719547997, 2.116703975983084796 ) ) ;
#1042 = FACE_BOUND ( 'NONE', #229, .T. ) ;
#1043 = ORIENTED_EDGE ( 'NONE', *, *, #850, .F. ) ;
#1044 = ORIENTED_EDGE ( 'NONE', *, *, #79, .F. ) ;
#1045 = FACE_OUTER_BOUND ( 'NONE', #805, .T. ) ;
#1046 = EDGE_CURVE ( 'NONE', #554, #243, #990, .T. ) ;
#1047 = DIRECTION ( 'NONE',  ( 1.000000000000000000, 0.000000000000000000, 0.000000000000000000 ) ) ;
#1048 = VERTEX_POINT ( 'NONE', #675 ) ;
#1049 = CARTESIAN_POINT ( 'NONE',  ( 0.000000000000000000, -6.595389280719547997, 2.116703975983084796 ) ) ;
#1050 = ORIENTED_EDGE ( 'NONE', *, *, #167, .T. ) ;
#1051 = DIRECTION ( 'NONE',  ( 1.000000000000000000, 0.000000000000000000, 0.000000000000000000 ) ) ;
#1052 = ORIENTED_EDGE ( 'NONE', *, *, #545, .F. ) ;
#1053 = DIRECTION ( 'NONE',  ( 0.000000000000000000, -0.7660444431189769032, 0.6427876096865406952 ) ) ;
#1054 = DIRECTION ( 'NONE',  ( 0.000000000000000000, 0.000000000000000000, 1.000000000000000000 ) ) ;
ENDSEC;
END-ISO-10303-21;
